<?xml version="1.0" encoding="utf-8"?>
<!-- Generator: Adobe Illustrator 27.3.1, SVG Export Plug-In . SVG Version: 6.00 Build 0)  -->
<svg version="1.1" id="Layer_1" xmlns="http://www.w3.org/2000/svg" xmlns:xlink="http://www.w3.org/1999/xlink" x="0px" y="0px"
	 viewBox="0 0 365.06 273.39" style="enable-background:new 0 0 365.06 273.39;" xml:space="preserve">
<style type="text/css">
	.st0{display:none;fill-rule:evenodd;clip-rule:evenodd;}
	.st1{clip-path:url(#SVGID_00000097501981384375913400000010881973012868930213_);}
	.st2{clip-path:url(#SVGID_00000110442073537649692660000018027487781323431828_);}
	.st3{fill:#FFFFFF;}
	.st4{clip-path:url(#SVGID_00000156571513729941038020000018228802362200400015_);}
	.st5{clip-path:url(#SVGID_00000132800457235676487830000003557613952033779899_);}
	.st6{clip-path:url(#SVGID_00000035493109029985028300000015579032991091287218_);}
	.st7{clip-path:url(#SVGID_00000085242221434334849600000010873222461036903811_);}
	.st8{clip-path:url(#SVGID_00000179603961617876749840000014942851037941091213_);}
	.st9{clip-path:url(#SVGID_00000077306884683451247020000016568819014708898952_);}
	.st10{clip-path:url(#SVGID_00000153689130527950248500000017933889188829882760_);}
	.st11{clip-path:url(#SVGID_00000127003855227333065080000014272089584928706200_);}
	.st12{clip-path:url(#SVGID_00000138558327289469381860000015884856831315186360_);}
	.st13{clip-path:url(#SVGID_00000072269153602071165390000005560074206052701354_);}
	.st14{clip-path:url(#SVGID_00000140012356087916994600000000982289955688842170_);}
	.st15{clip-path:url(#SVGID_00000133519906202182576140000007166429344813483710_);}
	.st16{clip-path:url(#SVGID_00000042737710656005481480000009099264115986690731_);}
	.st17{clip-path:url(#SVGID_00000170986400052037889900000011511757035908988310_);}
	.st18{clip-path:url(#SVGID_00000080915341791657235080000002590770614461521599_);}
	.st19{clip-path:url(#SVGID_00000025438318815650073880000016932179327729317527_);}
	.st20{fill:#50495F;}
	.st21{fill:none;stroke:#FFFFFF;stroke-width:0.216;stroke-miterlimit:22.9256;}
	.st22{fill-rule:evenodd;clip-rule:evenodd;fill:#50495F;}
	.st23{fill:#068FBE;}
	.st24{fill:url(#SVGID_00000074420948346350907530000010784487909910212278_);}
	.st25{fill:url(#SVGID_00000041274250751540959090000003991415562787134080_);}
	.st26{fill:url(#SVGID_00000124853127054824093100000008410738128727227027_);}
	.st27{fill:url(#SVGID_00000100352489239501756660000009452532193246917297_);}
	.st28{fill:url(#SVGID_00000077321762969116800820000004350502179751916730_);}
	.st29{fill:url(#SVGID_00000042001007201052399300000013486561375691568789_);}
	.st30{fill:url(#SVGID_00000167365956098628759960000002462511677848738182_);}
	.st31{fill:url(#SVGID_00000085970731429783707570000012524399702919790487_);}
	.st32{fill:url(#SVGID_00000057113460773189352810000000787288075288266922_);}
	.st33{fill:#94D6F4;}
	.st34{fill:#26BBED;}
	.st35{fill:#11A1D9;}
	.st36{fill-rule:evenodd;clip-rule:evenodd;fill:#CC3B7A;}
	.st37{fill-rule:evenodd;clip-rule:evenodd;fill:#FFFFFF;}
	.st38{fill-rule:evenodd;clip-rule:evenodd;fill:#D96C9B;}
	.st39{fill-rule:evenodd;clip-rule:evenodd;fill:#D3558D;}
</style>
<g id="_x33_">
	<path d="M243.41,75.81c-15.58-15.58-37.11-25.22-60.88-25.22c-23.78,0-45.3,9.64-60.88,25.22c-15.58,15.58-25.22,37.11-25.22,60.88
		s9.64,45.3,25.22,60.88c15.58,15.58,37.11,25.22,60.88,25.22c23.78,0,45.3-9.64,60.88-25.22c15.58-15.58,25.22-37.11,25.22-60.88
		S258.99,91.39,243.41,75.81 M182.53,47.36c24.66,0,47,10,63.16,26.16c16.16,16.17,26.16,38.5,26.16,63.17
		c0,24.66-10,47-26.16,63.16c-16.16,16.16-38.5,26.16-63.16,26.16c-24.66,0-47-10-63.16-26.16c-16.16-16.16-26.16-38.5-26.16-63.16
		c0-24.67,10-47,26.16-63.17C135.53,57.36,157.87,47.36,182.53,47.36z"/>
	<path class="st20" d="M236.13,83.09c-7.03-7.03-15.37-12.67-24.58-16.49c-8.89-3.68-18.7-5.72-29.03-5.72s-20.14,2.03-29.03,5.72
		c-9.21,3.81-17.55,9.45-24.58,16.49c-7.03,7.03-12.67,15.37-16.49,24.58c-3.68,8.89-5.72,18.69-5.72,29.03s2.03,20.13,5.72,29.03
		c3.81,9.21,9.46,17.55,16.49,24.58c7.03,7.03,15.37,12.67,24.58,16.49c8.89,3.68,18.69,5.72,29.03,5.72s20.13-2.03,29.03-5.72
		c9.21-3.81,17.55-9.46,24.58-16.49c7.03-7.03,12.67-15.37,16.49-24.58c3.68-8.89,5.72-18.69,5.72-29.03s-2.03-20.13-5.72-29.03
		C248.81,98.46,243.17,90.12,236.13,83.09 M182.53,37.07c13.43,0,26.29,2.69,38.06,7.57c12.26,5.08,23.24,12.47,32.38,21.61
		c9.14,9.14,16.53,20.13,21.61,32.38c4.88,11.78,7.57,24.63,7.57,38.06s-2.69,26.29-7.57,38.06c-5.08,12.26-12.47,23.24-21.61,32.38
		c-9.14,9.14-20.12,16.53-32.38,21.61c-11.77,4.88-24.64,7.57-38.06,7.57c-13.43,0-26.29-2.69-38.06-7.57
		c-12.26-5.08-23.24-12.47-32.38-21.61c-9.14-9.14-16.53-20.12-21.61-32.38c-4.88-11.77-7.57-24.63-7.57-38.06
		s2.69-26.29,7.57-38.06c5.08-12.26,12.47-23.24,21.61-32.38c9.14-9.14,20.12-16.53,32.38-21.61
		C156.25,39.76,169.1,37.07,182.53,37.07z"/>
	<path class="st3" d="M242.33,75.57c-0.59,0.68-1.31,1.01-2.16,0.99c-0.89-0.02-1.79-0.42-2.68-1.2c-1.19-1.03-1.69-1.85-1.52-2.46
		c0.1-0.37,0.27-0.82,0.5-1.34c0.11-0.23,0.26-0.33,0.44-0.27c0.22,0.07,0.32,0.21,0.3,0.43c-0.1,0.8-0.06,1.46,0.1,1.97
		c0.16,0.49,0.46,0.93,0.9,1.32c1.12,0.97,2.06,1.01,2.84,0.11c0.3-0.35,0.44-0.76,0.4-1.21c-0.04-0.43-0.26-1.18-0.65-2.22
		c-0.5-1.32-0.78-2.26-0.82-2.81c-0.06-0.68,0.14-1.28,0.6-1.8c0.48-0.56,1.13-0.83,1.94-0.82c0.81,0.01,1.58,0.33,2.31,0.96
		c0.51,0.45,0.96,0.94,1.33,1.49c0.29,0.42,0.39,0.74,0.3,0.93c-0.18,0.42-0.46,0.87-0.85,1.38c-0.14,0.18-0.28,0.23-0.43,0.14
		c-0.18-0.11-0.24-0.26-0.19-0.45c0.19-0.72,0.21-1.32,0.07-1.8c-0.13-0.44-0.43-0.87-0.91-1.28c-0.42-0.36-0.84-0.55-1.26-0.57
		c-0.41-0.02-0.78,0.16-1.09,0.52c-0.29,0.34-0.42,0.73-0.4,1.19c0.03,0.43,0.22,1.06,0.57,1.91c0.54,1.3,0.84,2.27,0.92,2.91
		C242.98,74.37,242.8,75.03,242.33,75.57z M230.6,69.12c-0.14,0.18-0.28,0.2-0.44,0.06c-0.72-0.64-1.65-1.24-2.76-1.79
		c-0.16-0.08-0.25-0.13-0.28-0.17c-0.05-0.07-0.04-0.17,0.05-0.29c0.08-0.11,0.25-0.13,0.51-0.06c0.26,0.07,0.46,0.01,0.58-0.18
		c0.07-0.1,0.09-0.23,0.08-0.38c-0.1-1.24-0.18-2.53-0.25-3.86c-1.64,0.51-2.73,0.9-3.28,1.18c-0.24,0.12-0.41,0.26-0.51,0.4
		c-0.14,0.22-0.11,0.47,0.1,0.75c0.14,0.2,0.17,0.36,0.07,0.48c-0.11,0.15-0.29,0.12-0.54-0.09c-0.76-0.63-1.54-1.15-2.35-1.54
		c-0.13-0.06-0.2-0.11-0.22-0.16c-0.02-0.04,0-0.12,0.07-0.23c0.1-0.15,0.31-0.19,0.62-0.1c0.51,0.14,1.12,0.1,1.81-0.14
		c0.33-0.11,1.73-0.53,4.18-1.28c-0.04-1.18-0.07-1.99-0.1-2.42c-0.05-0.93-0.11-1.72-0.2-2.36c-0.07-0.59-0.33-1.11-0.76-1.56
		c-0.18-0.18-0.25-0.32-0.19-0.4c0.12-0.19,0.27-0.21,0.44-0.08c0.74,0.58,1.69,1.13,2.86,1.64c0.17,0.07,0.27,0.13,0.3,0.16
		c0.06,0.07,0.04,0.16-0.04,0.29c-0.07,0.11-0.24,0.14-0.51,0.08c-0.3-0.07-0.51-0.02-0.6,0.13c-0.07,0.11-0.1,0.28-0.08,0.54
		c0.07,1.45,0.11,2.64,0.13,3.55c1.66-0.53,2.7-0.91,3.11-1.16c0.22-0.14,0.39-0.28,0.48-0.42c0.15-0.23,0.13-0.47-0.06-0.72
		c-0.15-0.21-0.18-0.38-0.09-0.5c0.11-0.15,0.29-0.12,0.53,0.09c0.81,0.68,1.6,1.2,2.36,1.55c0.21,0.1,0.26,0.23,0.16,0.39
		c-0.09,0.14-0.32,0.17-0.68,0.1c-0.57-0.12-1.16-0.07-1.77,0.13c-1.59,0.52-2.92,0.95-4,1.29c0.06,2,0.19,3.69,0.39,5.05
		c0.11,0.7,0.34,1.24,0.68,1.62C230.6,68.91,230.65,69.04,230.6,69.12z M220.21,61c-0.4,0.51-0.75,1.05-1.06,1.62
		c-0.05,0.09-0.21,0.06-0.5-0.09c-0.74-0.38-1.69-0.83-2.87-1.36c-1.29-0.58-2.41-1.06-3.36-1.43c-0.21-0.08-0.28-0.22-0.2-0.4
		c0.06-0.13,0.2-0.15,0.41-0.08c0.31,0.1,0.52,0.13,0.64,0.09c0.15-0.05,0.29-0.23,0.43-0.54l3.03-6.7c0.2-0.45,0.29-0.75,0.26-0.91
		c-0.03-0.16-0.2-0.37-0.53-0.66c-0.17-0.15-0.19-0.3-0.06-0.45c0.06-0.08,0.13-0.11,0.18-0.1c0.06,0.01,0.18,0.08,0.37,0.2
		c0.29,0.19,1.09,0.58,2.4,1.18c1.31,0.59,2.45,1.07,3.42,1.44c0.33,0.12,0.47,0.22,0.44,0.28c-0.01,0.02-0.03,0.05-0.05,0.06
		c-0.32,0.43-0.61,0.95-0.87,1.57c-0.06,0.15-0.17,0.2-0.31,0.13c-0.14-0.06-0.2-0.17-0.19-0.32c0.02-0.4,0-0.68-0.05-0.85
		c-0.07-0.25-0.25-0.47-0.52-0.65c-0.21-0.15-1.03-0.54-2.44-1.18c-0.16-0.07-0.28-0.09-0.34-0.06c-0.04,0.02-0.08,0.09-0.13,0.2
		l-1.37,3.04c-0.05,0.12-0.01,0.21,0.13,0.28c0.45,0.19,1.11,0.45,1.97,0.78c0.15,0.05,0.29,0.03,0.41-0.07
		c0.1-0.07,0.24-0.25,0.44-0.53c0.14-0.19,0.29-0.21,0.44-0.07c0.15,0.11,0.19,0.21,0.11,0.32c-0.43,0.59-0.86,1.43-1.29,2.5
		c-0.05,0.12-0.16,0.15-0.33,0.1c-0.15-0.04-0.2-0.16-0.15-0.35c0.12-0.39,0.17-0.66,0.14-0.81c-0.02-0.15-0.13-0.28-0.33-0.4
		c-0.38-0.23-0.97-0.53-1.77-0.89c-0.09-0.04-0.15-0.03-0.18,0.04l-1.43,3.17c-0.2,0.45-0.07,0.85,0.41,1.18
		c0.12,0.08,0.57,0.3,1.35,0.65c1.21,0.55,2.15,0.46,2.83-0.24c0.16-0.17,0.31-0.18,0.44-0.04C220.29,60.75,220.31,60.87,220.21,61z
		 M210.55,56c-0.25,0.86-0.76,1.47-1.54,1.81c-0.82,0.36-1.8,0.37-2.94,0.05c-1.51-0.43-2.32-0.96-2.42-1.59
		c-0.06-0.38-0.1-0.86-0.11-1.42c0-0.26,0.09-0.4,0.28-0.43c0.23-0.03,0.38,0.05,0.45,0.26c0.25,0.77,0.56,1.35,0.92,1.75
		c0.35,0.38,0.81,0.65,1.38,0.82c1.42,0.4,2.29,0.04,2.62-1.1c0.13-0.44,0.08-0.87-0.15-1.27c-0.22-0.38-0.73-0.96-1.53-1.74
		c-1.02-0.99-1.66-1.72-1.93-2.19c-0.34-0.59-0.41-1.22-0.22-1.89c0.2-0.71,0.67-1.23,1.41-1.57c0.74-0.33,1.57-0.37,2.5-0.1
		c0.65,0.19,1.27,0.45,1.84,0.79c0.44,0.26,0.66,0.5,0.67,0.72c0.01,0.45-0.05,0.99-0.18,1.61c-0.05,0.22-0.16,0.33-0.33,0.3
		c-0.21-0.02-0.33-0.13-0.36-0.33c-0.14-0.73-0.37-1.28-0.7-1.66c-0.31-0.35-0.76-0.61-1.37-0.78c-0.54-0.15-1-0.15-1.38,0.02
		c-0.38,0.16-0.64,0.47-0.77,0.93c-0.12,0.43-0.07,0.84,0.14,1.24c0.21,0.37,0.65,0.87,1.32,1.49c1.03,0.95,1.73,1.7,2.06,2.24
		C210.63,54.64,210.74,55.32,210.55,56z M202.66,46.05c-0.02,0.13-0.18,0.21-0.48,0.25c-0.66,0.07-1.03,0.26-1.08,0.57l-1.37,7.64
		c-0.09,0.49,0.15,0.84,0.71,1.05c0.28,0.1,0.4,0.23,0.38,0.38c-0.02,0.13-0.06,0.21-0.12,0.23c-0.05,0.02-0.19,0.01-0.41-0.04
		c-1.37-0.3-2.44-0.5-3.21-0.57c-0.2-0.02-0.3-0.08-0.32-0.17c0-0.04,0-0.1,0.01-0.17c0.02-0.11,0.15-0.16,0.4-0.17
		c0.46-0.02,0.73-0.05,0.8-0.08c0.19-0.07,0.31-0.27,0.37-0.6l1.38-7.71c0.08-0.43-0.17-0.75-0.74-0.96
		c-0.24-0.08-0.35-0.18-0.33-0.29c0.03-0.15,0.06-0.24,0.11-0.27c0.05-0.03,0.14-0.02,0.28,0.02c1,0.29,2.06,0.47,3.17,0.54
		c0.21,0.01,0.33,0.03,0.37,0.04C202.67,45.78,202.69,45.89,202.66,46.05z M195.64,44.65c-0.01,0.13-0.16,0.23-0.45,0.29
		c-0.65,0.13-1,0.48-1.04,1.04l-0.44,5.73c-0.09,1.21-0.15,2.18-0.17,2.92c-0.01,0.28-0.09,0.44-0.23,0.46
		c-0.24,0.04-0.44-0.1-0.58-0.42c-0.23-0.53-1.18-1.85-2.84-3.97c-1.39-1.77-2.75-3.42-4.06-4.97c-0.04-0.05-0.09-0.07-0.14-0.05
		c-0.05,0.02-0.08,0.08-0.09,0.18l-0.5,6.52c-0.05,0.7,0.27,1.14,0.97,1.33c0.29,0.08,0.43,0.19,0.42,0.34
		c-0.01,0.2-0.19,0.28-0.51,0.24c-1.26-0.15-2.24-0.22-2.94-0.22c-0.23,0-0.34-0.1-0.32-0.31c0.01-0.11,0.13-0.18,0.36-0.21
		c0.41-0.06,0.7-0.17,0.85-0.33c0.15-0.15,0.24-0.43,0.27-0.82l0.53-7.04c0.02-0.31-0.02-0.55-0.14-0.72
		c-0.11-0.16-0.34-0.33-0.67-0.52c-0.25-0.14-0.37-0.28-0.34-0.4c0.03-0.14,0.15-0.19,0.37-0.14c0.68,0.15,1.27,0.21,1.78,0.2
		c0.26-0.01,0.49,0.11,0.68,0.35l6.13,7.62c0.08,0.11,0.14,0.16,0.17,0.17c0.04,0,0.07-0.07,0.08-0.21l0.44-5.76
		c0.05-0.67-0.27-1.1-0.97-1.27c-0.25-0.06-0.37-0.14-0.36-0.25c0.02-0.22,0.14-0.31,0.36-0.27c0.86,0.16,1.84,0.22,2.92,0.19
		c0.19-0.01,0.31,0,0.36,0.02C195.62,44.41,195.65,44.5,195.64,44.65z M180.26,43.95c0.01,0.11-0.1,0.2-0.34,0.27
		c-0.41,0.13-0.66,0.24-0.77,0.35c-0.14,0.14-0.19,0.4-0.17,0.76l0.35,4.56c0.11,1.46-0.19,2.61-0.88,3.46
		c-0.72,0.88-1.82,1.37-3.3,1.48c-3.13,0.24-4.81-1.12-5.03-4.06L169.76,46c-0.04-0.5-0.36-0.79-0.95-0.85
		c-0.2-0.02-0.33-0.05-0.38-0.08c-0.05-0.03-0.08-0.09-0.08-0.18c-0.01-0.16,0.02-0.26,0.1-0.3c0.04-0.02,0.16-0.03,0.37-0.04
		c1.43-0.03,2.53-0.11,3.27-0.25c0.16-0.03,0.25-0.03,0.29,0c0.04,0.03,0.06,0.12,0.07,0.27c0.01,0.11-0.1,0.2-0.33,0.27
		c-0.44,0.13-0.69,0.22-0.75,0.26c-0.16,0.12-0.23,0.34-0.21,0.67l0.35,4.6c0.1,1.35,0.46,2.33,1.07,2.91
		c0.61,0.59,1.54,0.84,2.78,0.74c2.14-0.16,3.11-1.47,2.93-3.94l-0.35-4.59c-0.03-0.36-0.14-0.62-0.34-0.77
		c-0.16-0.12-0.43-0.21-0.8-0.24c-0.3-0.03-0.45-0.12-0.46-0.26c-0.01-0.16,0.02-0.26,0.11-0.29c0.03-0.01,0.16-0.03,0.37-0.04
		c1.48-0.06,2.5-0.14,3.05-0.24c0.21-0.04,0.33,0,0.36,0.1C180.25,43.82,180.25,43.87,180.26,43.95z M161.03,54.25
		c-0.24-0.86-0.71-1.42-1.4-1.69c-0.59-0.23-1.28-0.24-2.06-0.01c-0.46,0.13-0.82,0.26-1.09,0.4l1.08,3.82
		c0.14,0.5,0.72,0.6,1.74,0.31C160.86,56.63,161.44,55.69,161.03,54.25z M158.87,49.52c-0.19-0.67-0.5-1.1-0.92-1.31
		c-0.42-0.2-1.01-0.2-1.75,0.01c-0.59,0.17-0.89,0.35-0.89,0.53c0,0.05,0.01,0.1,0.03,0.17l0.94,3.32l0.68-0.19
		c0.85-0.24,1.43-0.56,1.73-0.96C159,50.71,159.06,50.18,158.87,49.52z M162.55,53.62c0.28,0.99,0.11,1.84-0.51,2.56
		c-0.57,0.65-1.47,1.16-2.72,1.51c-0.14,0.04-0.47,0.12-1,0.23c-0.53,0.12-0.95,0.22-1.28,0.31c-0.52,0.15-0.93,0.3-1.21,0.45
		c-0.18,0.09-0.3,0.07-0.37-0.06c-0.07-0.12,0.01-0.27,0.23-0.44c0.25-0.2,0.41-0.37,0.47-0.49c0.09-0.17,0.09-0.4,0.01-0.7
		l-2.05-7.2c-0.14-0.49-0.51-0.71-1.11-0.66c-0.29,0.02-0.46-0.02-0.5-0.15c-0.04-0.15-0.03-0.25,0.04-0.31
		c0.04-0.03,0.16-0.07,0.36-0.09c0.23-0.03,0.61-0.12,1.12-0.27c0.28-0.08,0.74-0.22,1.36-0.41c0.63-0.19,1.02-0.32,1.17-0.36
		c0.95-0.27,1.75-0.31,2.4-0.1c0.73,0.22,1.2,0.72,1.42,1.51c0.3,1.04-0.14,1.94-1.29,2.71c-0.13,0.09-0.12,0.12,0.05,0.1
		C161.01,51.56,162.15,52.18,162.55,53.62z M148.14,57.14c-0.65-0.58-1.66-1.48-3.02-2.71c-0.08-0.06-0.14-0.09-0.19-0.06
		c-0.05,0.02-0.07,0.08-0.07,0.18l0.13,3.98c0.54-0.2,1.13-0.44,1.77-0.73C147.16,57.63,147.62,57.41,148.14,57.14z M153.83,59.19
		c0.03,0.15,0.03,0.24,0.01,0.28c-0.02,0.03-0.09,0.06-0.21,0.08c-0.75,0.18-1.77,0.63-3.06,1.33c-0.25,0.13-0.4,0.15-0.48,0.04
		c-0.09-0.12-0.05-0.27,0.1-0.42c0.43-0.45,0.6-0.76,0.52-0.95c-0.03-0.07-0.11-0.16-0.23-0.27c-0.75-0.7-1.36-1.25-1.83-1.67
		c-0.34,0.18-0.94,0.46-1.81,0.85c-0.72,0.32-1.34,0.58-1.86,0.77c0.02,0.49,0.04,1.19,0.08,2.07c0.01,0.2,0.05,0.37,0.11,0.51
		c0.12,0.27,0.36,0.4,0.71,0.4c0.54-0.01,0.83,0.04,0.87,0.14c0.06,0.17-0.06,0.31-0.37,0.4c-0.96,0.31-1.79,0.73-2.5,1.23
		c-0.18,0.14-0.33,0.12-0.44-0.06c-0.08-0.12,0.02-0.32,0.29-0.62c0.29-0.31,0.44-0.8,0.44-1.45c0.01-2.47,0.02-4.1,0-4.87
		c-0.03-1.85-0.13-3.33-0.29-4.43c-0.03-0.16,0.1-0.39,0.39-0.68c0.07-0.07,0.24,0.03,0.51,0.28c2.19,2.05,4.58,4.21,7.18,6.49
		c0.41,0.36,0.9,0.51,1.46,0.43C153.66,59.02,153.8,59.06,153.83,59.19z M136.74,56.04c0.12,0.35,0.4,0.88,0.83,1.6
		c0.09,0.14,0.07,0.25-0.06,0.33c-0.13,0.08-0.25,0.08-0.38-0.01c-0.34-0.24-0.62-0.39-0.82-0.44c-0.24-0.06-0.49-0.03-0.75,0.09
		c-0.28,0.12-0.93,0.51-1.95,1.16c-0.23,0.15-0.37,0.27-0.41,0.37c-0.02,0.06,0,0.14,0.06,0.24l1.95,3.03
		c0.07,0.1,0.16,0.11,0.29,0.02c0.4-0.26,0.96-0.66,1.69-1.19c0.13-0.11,0.21-0.22,0.21-0.33c0-0.11-0.07-0.35-0.23-0.7
		c-0.08-0.2-0.02-0.33,0.18-0.41c0.17-0.07,0.28-0.04,0.33,0.08c0.26,0.69,0.72,1.5,1.39,2.44c0.08,0.11,0.04,0.22-0.1,0.33
		c-0.12,0.09-0.24,0.08-0.36-0.05c-0.47-0.48-0.88-0.64-1.22-0.47c-0.34,0.16-0.87,0.48-1.58,0.93c-0.08,0.05-0.1,0.11-0.07,0.16
		l1.94,3.03c0.14,0.23,0.32,0.33,0.54,0.3c0.17-0.02,0.49-0.14,0.96-0.36c0.23-0.12,0.39-0.08,0.47,0.11
		c0.07,0.17-0.09,0.35-0.48,0.56c-1.12,0.6-1.99,1.16-2.62,1.7c-0.18,0.15-0.32,0.13-0.44-0.05c-0.08-0.12-0.02-0.25,0.16-0.39
		c0.41-0.33,0.38-0.85-0.08-1.58l-3.69-5.75c-0.19-0.3-0.39-0.49-0.6-0.58c-0.21-0.09-0.5-0.11-0.87-0.06
		c-0.23,0.04-0.37-0.03-0.41-0.2c-0.03-0.1-0.03-0.17,0.02-0.21c0.04-0.04,0.16-0.11,0.37-0.2c0.31-0.13,0.99-0.54,2.04-1.21
		c1.24-0.79,2.29-1.51,3.15-2.14c0.29-0.21,0.45-0.28,0.5-0.21C136.72,56,136.73,56.02,136.74,56.04z M126.57,73.39
		c-0.79-0.21-1.76-0.34-2.91-0.38c-0.15-0.01-0.82,0.07-2.02,0.23c-0.57,1.42-0.44,2.57,0.38,3.43c0.53,0.55,1.13,0.82,1.79,0.78
		c0.63-0.03,1.22-0.31,1.78-0.85C126.38,75.85,126.71,74.78,126.57,73.39z M121.03,69.85c-0.67-0.7-1.29-0.79-1.86-0.25
		c-0.61,0.58-0.59,1.21,0.06,1.89c0.45,0.48,1.21,0.67,2.28,0.58C121.82,71.25,121.66,70.51,121.03,69.85z M130.82,71.35
		c0.14,0.06,0.18,0.21,0.13,0.43c-0.16,0.63-0.43,1.13-0.81,1.5c-0.41,0.39-0.8,0.61-1.18,0.67c-0.34,0.05-0.79-0.03-1.36-0.24
		c-0.16-0.06-0.3-0.1-0.4-0.13c0.1,1.57-0.35,2.84-1.37,3.81c-0.82,0.78-1.63,1.22-2.44,1.32c-0.83,0.11-1.55-0.16-2.16-0.8
		c-1.06-1.11-1.17-2.64-0.33-4.61c-1.04,0.05-1.84-0.2-2.38-0.77c-0.48-0.5-0.68-1.08-0.61-1.72c0.07-0.62,0.36-1.18,0.89-1.68
		c0.48-0.46,1-0.72,1.54-0.77c0.57-0.05,1.06,0.13,1.46,0.55c0.76,0.79,0.89,1.81,0.39,3.06c0.46-0.07,1.1-0.14,1.92-0.2
		c0.77,0.02,1.49,0.09,2.17,0.21c-0.21-0.78-0.54-1.64-1-2.58c-0.07-0.16-0.15-0.29-0.25-0.39c-0.21-0.22-0.52-0.25-0.92-0.09
		c-0.19,0.07-0.32,0.07-0.4-0.02c-0.1-0.11-0.03-0.23,0.2-0.37c0.17-0.11,0.46-0.34,0.87-0.7c0.37-0.33,0.62-0.57,0.74-0.71
		c0.19-0.22,0.34-0.27,0.45-0.16c0.09,0.09,0,0.3-0.27,0.64c-0.13,0.18-0.21,0.33-0.22,0.45c-0.01,0.12,0.04,0.3,0.15,0.52
		c0.65,1.31,1.09,2.5,1.33,3.56c0.15,0.03,0.39,0.11,0.72,0.22c0.64,0.22,1.11,0.33,1.41,0.34c0.36,0.01,0.66-0.1,0.91-0.33
		c0.2-0.19,0.38-0.5,0.53-0.94C130.59,71.31,130.68,71.29,130.82,71.35z M112.78,79.35c0.08,0.06,0.12,0.11,0.14,0.14
		c0.02,0.03,0.01,0.09-0.03,0.18c-0.08,0.19-0.22,0.25-0.41,0.19c-0.71-0.23-1.26-0.28-1.63-0.16c-0.51,0.17-1.08,0.7-1.72,1.59
		c-0.26,0.36-0.36,0.59-0.3,0.68c0.01,0.03,0.05,0.06,0.09,0.1l6.48,4.61c0.28,0.2,0.52,0.27,0.72,0.22
		c0.2-0.05,0.49-0.24,0.86-0.56c0.15-0.14,0.24-0.22,0.27-0.23c0.08-0.03,0.18,0,0.3,0.11c0.09,0.08,0.11,0.17,0.06,0.26
		c0,0.01-0.07,0.1-0.21,0.26c-0.91,1.07-1.59,2.02-2.03,2.83c-0.11,0.19-0.19,0.3-0.24,0.34c-0.05,0.03-0.12,0.02-0.21-0.02
		c-0.16-0.06-0.2-0.2-0.12-0.42c0.17-0.44,0.23-0.77,0.19-1c-0.05-0.25-0.24-0.5-0.58-0.74l-6.31-4.48
		c-0.13-0.09-0.26-0.07-0.39,0.07c-0.02,0.02-0.11,0.14-0.28,0.38c-0.58,0.82-0.87,1.53-0.87,2.12c0,0.45,0.21,0.99,0.61,1.62
		c0.13,0.2,0.11,0.34-0.04,0.43c-0.14,0.12-0.26,0.12-0.36-0.01c-0.36-0.48-0.97-1.03-1.82-1.63c-0.1-0.07-0.05-0.24,0.16-0.49
		c0.73-0.89,1.5-1.91,2.3-3.04c1.53-2.15,2.48-3.58,2.84-4.28c0.14-0.27,0.27-0.37,0.4-0.31C111.33,78.37,112.03,78.79,112.78,79.35
		z M109.74,92.87c0.78,0.45,1.24,1.09,1.38,1.93c0.15,0.88-0.08,1.83-0.67,2.86c-0.78,1.36-1.49,2.02-2.13,1.96
		c-0.39-0.03-0.86-0.11-1.41-0.24c-0.25-0.07-0.37-0.19-0.35-0.37c0.02-0.23,0.14-0.36,0.36-0.37c0.81-0.06,1.44-0.22,1.92-0.47
		c0.45-0.25,0.83-0.63,1.13-1.14c0.74-1.28,0.59-2.22-0.43-2.81c-0.4-0.23-0.83-0.29-1.27-0.17c-0.42,0.12-1.11,0.48-2.06,1.06
		c-1.2,0.75-2.07,1.2-2.6,1.34c-0.65,0.19-1.28,0.1-1.88-0.24c-0.64-0.37-1.03-0.95-1.18-1.75c-0.14-0.8,0.03-1.61,0.51-2.45
		c0.34-0.59,0.74-1.12,1.21-1.59c0.36-0.36,0.65-0.52,0.86-0.47c0.44,0.1,0.95,0.29,1.52,0.57c0.2,0.1,0.28,0.23,0.22,0.39
		c-0.08,0.2-0.21,0.29-0.4,0.27c-0.74-0.05-1.33,0.05-1.78,0.28c-0.41,0.21-0.77,0.59-1.09,1.14c-0.28,0.48-0.38,0.93-0.32,1.34
		c0.06,0.41,0.3,0.74,0.72,0.97c0.39,0.22,0.8,0.28,1.24,0.16c0.41-0.11,1-0.42,1.76-0.92c1.17-0.78,2.07-1.26,2.68-1.46
		C108.44,92.46,109.12,92.52,109.74,92.87z M102.3,104.27c-0.87,0.03-2.22,0.09-4.05,0.17c-0.1,0.01-0.16,0.03-0.18,0.08
		c-0.02,0.05,0.01,0.11,0.08,0.18l2.86,2.77c0.25-0.51,0.5-1.1,0.76-1.76C101.92,105.31,102.1,104.83,102.3,104.27z M107.8,101.78
		c0.12,0.08,0.19,0.15,0.2,0.19c0.01,0.04-0.02,0.1-0.09,0.2c-0.41,0.65-0.84,1.69-1.27,3.09c-0.08,0.27-0.19,0.39-0.32,0.36
		c-0.15-0.03-0.23-0.15-0.23-0.37c-0.01-0.62-0.1-0.96-0.29-1.04c-0.08-0.03-0.19-0.04-0.35-0.04c-1.02,0.02-1.85,0.05-2.48,0.08
		c-0.12,0.36-0.35,0.98-0.7,1.87c-0.29,0.73-0.55,1.35-0.8,1.85c0.36,0.34,0.86,0.82,1.49,1.43c0.15,0.14,0.29,0.23,0.43,0.29
		c0.28,0.11,0.54,0.04,0.79-0.21c0.38-0.39,0.62-0.56,0.72-0.51c0.16,0.08,0.17,0.26,0.02,0.55c-0.47,0.89-0.78,1.77-0.93,2.62
		c-0.04,0.23-0.16,0.31-0.36,0.26c-0.14-0.03-0.21-0.25-0.23-0.65c-0.01-0.43-0.24-0.88-0.7-1.35c-1.71-1.79-2.85-2.95-3.39-3.49
		c-1.31-1.31-2.41-2.29-3.3-2.97c-0.14-0.1-0.2-0.35-0.2-0.76c0-0.1,0.19-0.15,0.56-0.15c2.99-0.05,6.22-0.17,9.67-0.34
		c0.55-0.03,1-0.26,1.35-0.71C107.56,101.78,107.69,101.71,107.8,101.78z M93.31,111.58c0.33,0.17,0.89,0.35,1.71,0.56
		c0.16,0.04,0.22,0.13,0.19,0.28c-0.03,0.15-0.12,0.23-0.28,0.26c-0.41,0.07-0.71,0.15-0.89,0.26c-0.21,0.12-0.37,0.32-0.47,0.59
		c-0.11,0.28-0.31,1.01-0.58,2.19c-0.06,0.27-0.07,0.45-0.04,0.55c0.02,0.06,0.1,0.1,0.21,0.13l3.51,0.81
		c0.12,0.03,0.19-0.03,0.22-0.19c0.1-0.46,0.22-1.14,0.37-2.03c0.02-0.17-0.01-0.31-0.08-0.38c-0.08-0.08-0.3-0.19-0.66-0.34
		c-0.2-0.08-0.25-0.22-0.16-0.42c0.08-0.17,0.18-0.23,0.29-0.17c0.67,0.31,1.56,0.57,2.7,0.77c0.13,0.02,0.19,0.13,0.16,0.3
		c-0.02,0.15-0.12,0.22-0.29,0.22c-0.67-0.01-1.07,0.16-1.2,0.52c-0.13,0.36-0.29,0.95-0.48,1.77c-0.02,0.09,0,0.15,0.07,0.16
		l3.51,0.81c0.26,0.06,0.46,0.01,0.6-0.16c0.11-0.13,0.26-0.44,0.44-0.92c0.09-0.25,0.22-0.33,0.41-0.26
		c0.17,0.07,0.18,0.32,0.05,0.73c-0.38,1.21-0.61,2.22-0.68,3.05c-0.02,0.23-0.14,0.32-0.35,0.27c-0.14-0.03-0.19-0.16-0.16-0.39
		c0.06-0.52-0.33-0.88-1.16-1.07l-6.66-1.54c-0.34-0.08-0.62-0.08-0.83,0c-0.21,0.08-0.43,0.27-0.66,0.57
		c-0.14,0.19-0.29,0.23-0.43,0.14c-0.09-0.05-0.14-0.1-0.13-0.16c0-0.05,0.04-0.19,0.13-0.4c0.13-0.31,0.33-1.08,0.61-2.29
		c0.33-1.43,0.58-2.68,0.76-3.73c0.06-0.35,0.13-0.52,0.2-0.5C93.27,111.56,93.29,111.57,93.31,111.58z"/>
	<path class="st21" d="M242.33,75.57c-0.59,0.68-1.31,1.01-2.16,0.99c-0.89-0.02-1.79-0.42-2.68-1.2c-1.19-1.03-1.69-1.85-1.52-2.46
		c0.1-0.37,0.27-0.82,0.5-1.34c0.11-0.23,0.26-0.33,0.44-0.27c0.22,0.07,0.32,0.21,0.3,0.43c-0.1,0.8-0.06,1.46,0.1,1.97
		c0.16,0.49,0.46,0.93,0.9,1.32c1.12,0.97,2.06,1.01,2.84,0.11c0.3-0.35,0.44-0.76,0.4-1.21c-0.04-0.43-0.26-1.18-0.65-2.22
		c-0.5-1.32-0.78-2.26-0.82-2.81c-0.06-0.68,0.14-1.28,0.6-1.8c0.48-0.56,1.13-0.83,1.94-0.82c0.81,0.01,1.58,0.33,2.31,0.96
		c0.51,0.45,0.96,0.94,1.33,1.49c0.29,0.42,0.39,0.74,0.3,0.93c-0.18,0.42-0.46,0.87-0.85,1.38c-0.14,0.18-0.28,0.23-0.43,0.14
		c-0.18-0.11-0.24-0.26-0.19-0.45c0.19-0.72,0.21-1.32,0.07-1.8c-0.13-0.44-0.43-0.87-0.91-1.28c-0.42-0.36-0.84-0.55-1.26-0.57
		c-0.41-0.02-0.78,0.16-1.09,0.52c-0.29,0.34-0.42,0.73-0.4,1.19c0.03,0.43,0.22,1.06,0.57,1.91c0.54,1.3,0.84,2.27,0.92,2.91
		C242.98,74.37,242.8,75.03,242.33,75.57z M230.6,69.12c-0.14,0.18-0.28,0.2-0.44,0.06c-0.72-0.64-1.65-1.24-2.76-1.79
		c-0.16-0.08-0.25-0.13-0.28-0.17c-0.05-0.07-0.04-0.17,0.05-0.29c0.08-0.11,0.25-0.13,0.51-0.06c0.26,0.07,0.46,0.01,0.58-0.18
		c0.07-0.1,0.09-0.23,0.08-0.38c-0.1-1.24-0.18-2.53-0.25-3.86c-1.64,0.51-2.73,0.9-3.28,1.18c-0.24,0.12-0.41,0.26-0.51,0.4
		c-0.14,0.22-0.11,0.47,0.1,0.75c0.14,0.2,0.17,0.36,0.07,0.48c-0.11,0.15-0.29,0.12-0.54-0.09c-0.76-0.63-1.54-1.15-2.35-1.54
		c-0.13-0.06-0.2-0.11-0.22-0.16c-0.02-0.04,0-0.12,0.07-0.23c0.1-0.15,0.31-0.19,0.62-0.1c0.51,0.14,1.12,0.1,1.81-0.14
		c0.33-0.11,1.73-0.53,4.18-1.28c-0.04-1.18-0.07-1.99-0.1-2.42c-0.05-0.93-0.11-1.72-0.2-2.36c-0.07-0.59-0.33-1.11-0.76-1.56
		c-0.18-0.18-0.25-0.32-0.19-0.4c0.12-0.19,0.27-0.21,0.44-0.08c0.74,0.58,1.69,1.13,2.86,1.64c0.17,0.07,0.27,0.13,0.3,0.16
		c0.06,0.07,0.04,0.16-0.04,0.29c-0.07,0.11-0.24,0.14-0.51,0.08c-0.3-0.07-0.51-0.02-0.6,0.13c-0.07,0.11-0.1,0.28-0.08,0.54
		c0.07,1.45,0.11,2.64,0.13,3.55c1.66-0.53,2.7-0.91,3.11-1.16c0.22-0.14,0.39-0.28,0.48-0.42c0.15-0.23,0.13-0.47-0.06-0.72
		c-0.15-0.21-0.18-0.38-0.09-0.5c0.11-0.15,0.29-0.12,0.53,0.09c0.81,0.68,1.6,1.2,2.36,1.55c0.21,0.1,0.26,0.23,0.16,0.39
		c-0.09,0.14-0.32,0.17-0.68,0.1c-0.57-0.12-1.16-0.07-1.77,0.13c-1.59,0.52-2.92,0.95-4,1.29c0.06,2,0.19,3.69,0.39,5.05
		c0.11,0.7,0.34,1.24,0.68,1.62C230.6,68.91,230.65,69.04,230.6,69.12z M220.21,61c-0.4,0.51-0.75,1.05-1.06,1.62
		c-0.05,0.09-0.21,0.06-0.5-0.09c-0.74-0.38-1.69-0.83-2.87-1.36c-1.29-0.58-2.41-1.06-3.36-1.43c-0.21-0.08-0.28-0.22-0.2-0.4
		c0.06-0.13,0.2-0.15,0.41-0.08c0.31,0.1,0.52,0.13,0.64,0.09c0.15-0.05,0.29-0.23,0.43-0.54l3.03-6.7c0.2-0.45,0.29-0.75,0.26-0.91
		c-0.03-0.16-0.2-0.37-0.53-0.66c-0.17-0.15-0.19-0.3-0.06-0.45c0.06-0.08,0.13-0.11,0.18-0.1c0.06,0.01,0.18,0.08,0.37,0.2
		c0.29,0.19,1.09,0.58,2.4,1.18c1.31,0.59,2.45,1.07,3.42,1.44c0.33,0.12,0.47,0.22,0.44,0.28c-0.01,0.02-0.03,0.05-0.05,0.06
		c-0.32,0.43-0.61,0.95-0.87,1.57c-0.06,0.15-0.17,0.2-0.31,0.13c-0.14-0.06-0.2-0.17-0.19-0.32c0.02-0.4,0-0.68-0.05-0.85
		c-0.07-0.25-0.25-0.47-0.52-0.65c-0.21-0.15-1.03-0.54-2.44-1.18c-0.16-0.07-0.28-0.09-0.34-0.06c-0.04,0.02-0.08,0.09-0.13,0.2
		l-1.37,3.04c-0.05,0.12-0.01,0.21,0.13,0.28c0.45,0.19,1.11,0.45,1.97,0.78c0.15,0.05,0.29,0.03,0.41-0.07
		c0.1-0.07,0.24-0.25,0.44-0.53c0.14-0.19,0.29-0.21,0.44-0.07c0.15,0.11,0.19,0.21,0.11,0.32c-0.43,0.59-0.86,1.43-1.29,2.5
		c-0.05,0.12-0.16,0.15-0.33,0.1c-0.15-0.04-0.2-0.16-0.15-0.35c0.12-0.39,0.17-0.66,0.14-0.81c-0.02-0.15-0.13-0.28-0.33-0.4
		c-0.38-0.23-0.97-0.53-1.77-0.89c-0.09-0.04-0.15-0.03-0.18,0.04l-1.43,3.17c-0.2,0.45-0.07,0.85,0.41,1.18
		c0.12,0.08,0.57,0.3,1.35,0.65c1.21,0.55,2.15,0.46,2.83-0.24c0.16-0.17,0.31-0.18,0.44-0.04C220.29,60.75,220.31,60.87,220.21,61z
		 M210.55,56c-0.25,0.86-0.76,1.47-1.54,1.81c-0.82,0.36-1.8,0.37-2.94,0.05c-1.51-0.43-2.32-0.96-2.42-1.59
		c-0.06-0.38-0.1-0.86-0.11-1.42c0-0.26,0.09-0.4,0.28-0.43c0.23-0.03,0.38,0.05,0.45,0.26c0.25,0.77,0.56,1.35,0.92,1.75
		c0.35,0.38,0.81,0.65,1.38,0.82c1.42,0.4,2.29,0.04,2.62-1.1c0.13-0.44,0.08-0.87-0.15-1.27c-0.22-0.38-0.73-0.96-1.53-1.74
		c-1.02-0.99-1.66-1.72-1.93-2.19c-0.34-0.59-0.41-1.22-0.22-1.89c0.2-0.71,0.67-1.23,1.41-1.57c0.74-0.33,1.57-0.37,2.5-0.1
		c0.65,0.19,1.27,0.45,1.84,0.79c0.44,0.26,0.66,0.5,0.67,0.72c0.01,0.45-0.05,0.99-0.18,1.61c-0.05,0.22-0.16,0.33-0.33,0.3
		c-0.21-0.02-0.33-0.13-0.36-0.33c-0.14-0.73-0.37-1.28-0.7-1.66c-0.31-0.35-0.76-0.61-1.37-0.78c-0.54-0.15-1-0.15-1.38,0.02
		c-0.38,0.16-0.64,0.47-0.77,0.93c-0.12,0.43-0.07,0.84,0.14,1.24c0.21,0.37,0.65,0.87,1.32,1.49c1.03,0.95,1.73,1.7,2.06,2.24
		C210.63,54.64,210.74,55.32,210.55,56z M202.66,46.05c-0.02,0.13-0.18,0.21-0.48,0.25c-0.66,0.07-1.03,0.26-1.08,0.57l-1.37,7.64
		c-0.09,0.49,0.15,0.84,0.71,1.05c0.28,0.1,0.4,0.23,0.38,0.38c-0.02,0.13-0.06,0.21-0.12,0.23c-0.05,0.02-0.19,0.01-0.41-0.04
		c-1.37-0.3-2.44-0.5-3.21-0.57c-0.2-0.02-0.3-0.08-0.32-0.17c0-0.04,0-0.1,0.01-0.17c0.02-0.11,0.15-0.16,0.4-0.17
		c0.46-0.02,0.73-0.05,0.8-0.08c0.19-0.07,0.31-0.27,0.37-0.6l1.38-7.71c0.08-0.43-0.17-0.75-0.74-0.96
		c-0.24-0.08-0.35-0.18-0.33-0.29c0.03-0.15,0.06-0.24,0.11-0.27c0.05-0.03,0.14-0.02,0.28,0.02c1,0.29,2.06,0.47,3.17,0.54
		c0.21,0.01,0.33,0.03,0.37,0.04C202.67,45.78,202.69,45.89,202.66,46.05z M195.64,44.65c-0.01,0.13-0.16,0.23-0.45,0.29
		c-0.65,0.13-1,0.48-1.04,1.04l-0.44,5.73c-0.09,1.21-0.15,2.18-0.17,2.92c-0.01,0.28-0.09,0.44-0.23,0.46
		c-0.24,0.04-0.44-0.1-0.58-0.42c-0.23-0.53-1.18-1.85-2.84-3.97c-1.39-1.77-2.75-3.42-4.06-4.97c-0.04-0.05-0.09-0.07-0.14-0.05
		c-0.05,0.02-0.08,0.08-0.09,0.18l-0.5,6.52c-0.05,0.7,0.27,1.14,0.97,1.33c0.29,0.08,0.43,0.19,0.42,0.34
		c-0.01,0.2-0.19,0.28-0.51,0.24c-1.26-0.15-2.24-0.22-2.94-0.22c-0.23,0-0.34-0.1-0.32-0.31c0.01-0.11,0.13-0.18,0.36-0.21
		c0.41-0.06,0.7-0.17,0.85-0.33c0.15-0.15,0.24-0.43,0.27-0.82l0.53-7.04c0.02-0.31-0.02-0.55-0.14-0.72
		c-0.11-0.16-0.34-0.33-0.67-0.52c-0.25-0.14-0.37-0.28-0.34-0.4c0.03-0.14,0.15-0.19,0.37-0.14c0.68,0.15,1.27,0.21,1.78,0.2
		c0.26-0.01,0.49,0.11,0.68,0.35l6.13,7.62c0.08,0.11,0.14,0.16,0.17,0.17c0.04,0,0.07-0.07,0.08-0.21l0.44-5.76
		c0.05-0.67-0.27-1.1-0.97-1.27c-0.25-0.06-0.37-0.14-0.36-0.25c0.02-0.22,0.14-0.31,0.36-0.27c0.86,0.16,1.84,0.22,2.92,0.19
		c0.19-0.01,0.31,0,0.36,0.02C195.62,44.41,195.65,44.5,195.64,44.65z M180.26,43.95c0.01,0.11-0.1,0.2-0.34,0.27
		c-0.41,0.13-0.66,0.24-0.77,0.35c-0.14,0.14-0.19,0.4-0.17,0.76l0.35,4.56c0.11,1.46-0.19,2.61-0.88,3.46
		c-0.72,0.88-1.82,1.37-3.3,1.48c-3.13,0.24-4.81-1.12-5.03-4.06L169.76,46c-0.04-0.5-0.36-0.79-0.95-0.85
		c-0.2-0.02-0.33-0.05-0.38-0.08c-0.05-0.03-0.08-0.09-0.08-0.18c-0.01-0.16,0.02-0.26,0.1-0.3c0.04-0.02,0.16-0.03,0.37-0.04
		c1.43-0.03,2.53-0.11,3.27-0.25c0.16-0.03,0.25-0.03,0.29,0c0.04,0.03,0.06,0.12,0.07,0.27c0.01,0.11-0.1,0.2-0.33,0.27
		c-0.44,0.13-0.69,0.22-0.75,0.26c-0.16,0.12-0.23,0.34-0.21,0.67l0.35,4.6c0.1,1.35,0.46,2.33,1.07,2.91
		c0.61,0.59,1.54,0.84,2.78,0.74c2.14-0.16,3.11-1.47,2.93-3.94l-0.35-4.59c-0.03-0.36-0.14-0.62-0.34-0.77
		c-0.16-0.12-0.43-0.21-0.8-0.24c-0.3-0.03-0.45-0.12-0.46-0.26c-0.01-0.16,0.02-0.26,0.11-0.29c0.03-0.01,0.16-0.03,0.37-0.04
		c1.48-0.06,2.5-0.14,3.05-0.24c0.21-0.04,0.33,0,0.36,0.1C180.25,43.82,180.25,43.87,180.26,43.95z M161.03,54.25
		c-0.24-0.86-0.71-1.42-1.4-1.69c-0.59-0.23-1.28-0.24-2.06-0.01c-0.46,0.13-0.82,0.26-1.09,0.4l1.08,3.82
		c0.14,0.5,0.72,0.6,1.74,0.31C160.86,56.63,161.44,55.69,161.03,54.25z M158.87,49.52c-0.19-0.67-0.5-1.1-0.92-1.31
		c-0.42-0.2-1.01-0.2-1.75,0.01c-0.59,0.17-0.89,0.35-0.89,0.53c0,0.05,0.01,0.1,0.03,0.17l0.94,3.32l0.68-0.19
		c0.85-0.24,1.43-0.56,1.73-0.96C159,50.71,159.06,50.18,158.87,49.52z M162.55,53.62c0.28,0.99,0.11,1.84-0.51,2.56
		c-0.57,0.65-1.47,1.16-2.72,1.51c-0.14,0.04-0.47,0.12-1,0.23c-0.53,0.12-0.95,0.22-1.28,0.31c-0.52,0.15-0.93,0.3-1.21,0.45
		c-0.18,0.09-0.3,0.07-0.37-0.06c-0.07-0.12,0.01-0.27,0.23-0.44c0.25-0.2,0.41-0.37,0.47-0.49c0.09-0.17,0.09-0.4,0.01-0.7
		l-2.05-7.2c-0.14-0.49-0.51-0.71-1.11-0.66c-0.29,0.02-0.46-0.02-0.5-0.15c-0.04-0.15-0.03-0.25,0.04-0.31
		c0.04-0.03,0.16-0.07,0.36-0.09c0.23-0.03,0.61-0.12,1.12-0.27c0.28-0.08,0.74-0.22,1.36-0.41c0.63-0.19,1.02-0.32,1.17-0.36
		c0.95-0.27,1.75-0.31,2.4-0.1c0.73,0.22,1.2,0.72,1.42,1.51c0.3,1.04-0.14,1.94-1.29,2.71c-0.13,0.09-0.12,0.12,0.05,0.1
		C161.01,51.56,162.15,52.18,162.55,53.62z M148.14,57.14c-0.65-0.58-1.66-1.48-3.02-2.71c-0.08-0.06-0.14-0.09-0.19-0.06
		c-0.05,0.02-0.07,0.08-0.07,0.18l0.13,3.98c0.54-0.2,1.13-0.44,1.77-0.73C147.16,57.63,147.62,57.41,148.14,57.14z M153.83,59.19
		c0.03,0.15,0.03,0.24,0.01,0.28c-0.02,0.03-0.09,0.06-0.21,0.08c-0.75,0.18-1.77,0.63-3.06,1.33c-0.25,0.13-0.4,0.15-0.48,0.04
		c-0.09-0.12-0.05-0.27,0.1-0.42c0.43-0.45,0.6-0.76,0.52-0.95c-0.03-0.07-0.11-0.16-0.23-0.27c-0.75-0.7-1.36-1.25-1.83-1.67
		c-0.34,0.18-0.94,0.46-1.81,0.85c-0.72,0.32-1.34,0.58-1.86,0.77c0.02,0.49,0.04,1.19,0.08,2.07c0.01,0.2,0.05,0.37,0.11,0.51
		c0.12,0.27,0.36,0.4,0.71,0.4c0.54-0.01,0.83,0.04,0.87,0.14c0.06,0.17-0.06,0.31-0.37,0.4c-0.96,0.31-1.79,0.73-2.5,1.23
		c-0.18,0.14-0.33,0.12-0.44-0.06c-0.08-0.12,0.02-0.32,0.29-0.62c0.29-0.31,0.44-0.8,0.44-1.45c0.01-2.47,0.02-4.1,0-4.87
		c-0.03-1.85-0.13-3.33-0.29-4.43c-0.03-0.16,0.1-0.39,0.39-0.68c0.07-0.07,0.24,0.03,0.51,0.28c2.19,2.05,4.58,4.21,7.18,6.49
		c0.41,0.36,0.9,0.51,1.46,0.43C153.66,59.02,153.8,59.06,153.83,59.19z M136.74,56.04c0.12,0.35,0.4,0.88,0.83,1.6
		c0.09,0.14,0.07,0.25-0.06,0.33c-0.13,0.08-0.25,0.08-0.38-0.01c-0.34-0.24-0.62-0.39-0.82-0.44c-0.24-0.06-0.49-0.03-0.75,0.09
		c-0.28,0.12-0.93,0.51-1.95,1.16c-0.23,0.15-0.37,0.27-0.41,0.37c-0.02,0.06,0,0.14,0.06,0.24l1.95,3.03
		c0.07,0.1,0.16,0.11,0.29,0.02c0.4-0.26,0.96-0.66,1.69-1.19c0.13-0.11,0.21-0.22,0.21-0.33c0-0.11-0.07-0.35-0.23-0.7
		c-0.08-0.2-0.02-0.33,0.18-0.41c0.17-0.07,0.28-0.04,0.33,0.08c0.26,0.69,0.72,1.5,1.39,2.44c0.08,0.11,0.04,0.22-0.1,0.33
		c-0.12,0.09-0.24,0.08-0.36-0.05c-0.47-0.48-0.88-0.64-1.22-0.47c-0.34,0.16-0.87,0.48-1.58,0.93c-0.08,0.05-0.1,0.11-0.07,0.16
		l1.94,3.03c0.14,0.23,0.32,0.33,0.54,0.3c0.17-0.02,0.49-0.14,0.96-0.36c0.23-0.12,0.39-0.08,0.47,0.11
		c0.07,0.17-0.09,0.35-0.48,0.56c-1.12,0.6-1.99,1.16-2.62,1.7c-0.18,0.15-0.32,0.13-0.44-0.05c-0.08-0.12-0.02-0.25,0.16-0.39
		c0.41-0.33,0.38-0.85-0.08-1.58l-3.69-5.75c-0.19-0.3-0.39-0.49-0.6-0.58c-0.21-0.09-0.5-0.11-0.87-0.06
		c-0.23,0.04-0.37-0.03-0.41-0.2c-0.03-0.1-0.03-0.17,0.02-0.21c0.04-0.04,0.16-0.11,0.37-0.2c0.31-0.13,0.99-0.54,2.04-1.21
		c1.24-0.79,2.29-1.51,3.15-2.14c0.29-0.21,0.45-0.28,0.5-0.21C136.72,56,136.73,56.02,136.74,56.04z M126.57,73.39
		c-0.79-0.21-1.76-0.34-2.91-0.38c-0.15-0.01-0.82,0.07-2.02,0.23c-0.57,1.42-0.44,2.57,0.38,3.43c0.53,0.55,1.13,0.82,1.79,0.78
		c0.63-0.03,1.22-0.31,1.78-0.85C126.38,75.85,126.71,74.78,126.57,73.39z M121.03,69.85c-0.67-0.7-1.29-0.79-1.86-0.25
		c-0.61,0.58-0.59,1.21,0.06,1.89c0.45,0.48,1.21,0.67,2.28,0.58C121.82,71.25,121.66,70.51,121.03,69.85z M130.82,71.35
		c0.14,0.06,0.18,0.21,0.13,0.43c-0.16,0.63-0.43,1.13-0.81,1.5c-0.41,0.39-0.8,0.61-1.18,0.67c-0.34,0.05-0.79-0.03-1.36-0.24
		c-0.16-0.06-0.3-0.1-0.4-0.13c0.1,1.57-0.35,2.84-1.37,3.81c-0.82,0.78-1.63,1.22-2.44,1.32c-0.83,0.11-1.55-0.16-2.16-0.8
		c-1.06-1.11-1.17-2.64-0.33-4.61c-1.04,0.05-1.84-0.2-2.38-0.77c-0.48-0.5-0.68-1.08-0.61-1.72c0.07-0.62,0.36-1.18,0.89-1.68
		c0.48-0.46,1-0.72,1.54-0.77c0.57-0.05,1.06,0.13,1.46,0.55c0.76,0.79,0.89,1.81,0.39,3.06c0.46-0.07,1.1-0.14,1.92-0.2
		c0.77,0.02,1.49,0.09,2.17,0.21c-0.21-0.78-0.54-1.64-1-2.58c-0.07-0.16-0.15-0.29-0.25-0.39c-0.21-0.22-0.52-0.25-0.92-0.09
		c-0.19,0.07-0.32,0.07-0.4-0.02c-0.1-0.11-0.03-0.23,0.2-0.37c0.17-0.11,0.46-0.34,0.87-0.7c0.37-0.33,0.62-0.57,0.74-0.71
		c0.19-0.22,0.34-0.27,0.45-0.16c0.09,0.09,0,0.3-0.27,0.64c-0.13,0.18-0.21,0.33-0.22,0.45c-0.01,0.12,0.04,0.3,0.15,0.52
		c0.65,1.31,1.09,2.5,1.33,3.56c0.15,0.03,0.39,0.11,0.72,0.22c0.64,0.22,1.11,0.33,1.41,0.34c0.36,0.01,0.66-0.1,0.91-0.33
		c0.2-0.19,0.38-0.5,0.53-0.94C130.59,71.31,130.68,71.29,130.82,71.35z M112.78,79.35c0.08,0.06,0.12,0.11,0.14,0.14
		c0.02,0.03,0.01,0.09-0.03,0.18c-0.08,0.19-0.22,0.25-0.41,0.19c-0.71-0.23-1.26-0.28-1.63-0.16c-0.51,0.17-1.08,0.7-1.72,1.59
		c-0.26,0.36-0.36,0.59-0.3,0.68c0.01,0.03,0.05,0.06,0.09,0.1l6.48,4.61c0.28,0.2,0.52,0.27,0.72,0.22
		c0.2-0.05,0.49-0.24,0.86-0.56c0.15-0.14,0.24-0.22,0.27-0.23c0.08-0.03,0.18,0,0.3,0.11c0.09,0.08,0.11,0.17,0.06,0.26
		c0,0.01-0.07,0.1-0.21,0.26c-0.91,1.07-1.59,2.02-2.03,2.83c-0.11,0.19-0.19,0.3-0.24,0.34c-0.05,0.03-0.12,0.02-0.21-0.02
		c-0.16-0.06-0.2-0.2-0.12-0.42c0.17-0.44,0.23-0.77,0.19-1c-0.05-0.25-0.24-0.5-0.58-0.74l-6.31-4.48
		c-0.13-0.09-0.26-0.07-0.39,0.07c-0.02,0.02-0.11,0.14-0.28,0.38c-0.58,0.82-0.87,1.53-0.87,2.12c0,0.45,0.21,0.99,0.61,1.62
		c0.13,0.2,0.11,0.34-0.04,0.43c-0.14,0.12-0.26,0.12-0.36-0.01c-0.36-0.48-0.97-1.03-1.82-1.63c-0.1-0.07-0.05-0.24,0.16-0.49
		c0.73-0.89,1.5-1.91,2.3-3.04c1.53-2.15,2.48-3.58,2.84-4.28c0.14-0.27,0.27-0.37,0.4-0.31C111.33,78.37,112.03,78.79,112.78,79.35
		z M109.74,92.87c0.78,0.45,1.24,1.09,1.38,1.93c0.15,0.88-0.08,1.83-0.67,2.86c-0.78,1.36-1.49,2.02-2.13,1.96
		c-0.39-0.03-0.86-0.11-1.41-0.24c-0.25-0.07-0.37-0.19-0.35-0.37c0.02-0.23,0.14-0.36,0.36-0.37c0.81-0.06,1.44-0.22,1.92-0.47
		c0.45-0.25,0.83-0.63,1.13-1.14c0.74-1.28,0.59-2.22-0.43-2.81c-0.4-0.23-0.83-0.29-1.27-0.17c-0.42,0.12-1.11,0.48-2.06,1.06
		c-1.2,0.75-2.07,1.2-2.6,1.34c-0.65,0.19-1.28,0.1-1.88-0.24c-0.64-0.37-1.03-0.95-1.18-1.75c-0.14-0.8,0.03-1.61,0.51-2.45
		c0.34-0.59,0.74-1.12,1.21-1.59c0.36-0.36,0.65-0.52,0.86-0.47c0.44,0.1,0.95,0.29,1.52,0.57c0.2,0.1,0.28,0.23,0.22,0.39
		c-0.08,0.2-0.21,0.29-0.4,0.27c-0.74-0.05-1.33,0.05-1.78,0.28c-0.41,0.21-0.77,0.59-1.09,1.14c-0.28,0.48-0.38,0.93-0.32,1.34
		c0.06,0.41,0.3,0.74,0.72,0.97c0.39,0.22,0.8,0.28,1.24,0.16c0.41-0.11,1-0.42,1.76-0.92c1.17-0.78,2.07-1.26,2.68-1.46
		C108.44,92.46,109.12,92.52,109.74,92.87z M102.3,104.27c-0.87,0.03-2.22,0.09-4.05,0.17c-0.1,0.01-0.16,0.03-0.18,0.08
		c-0.02,0.05,0.01,0.11,0.08,0.18l2.86,2.77c0.25-0.51,0.5-1.1,0.76-1.76C101.92,105.31,102.1,104.83,102.3,104.27z M107.8,101.78
		c0.12,0.08,0.19,0.15,0.2,0.19c0.01,0.04-0.02,0.1-0.09,0.2c-0.41,0.65-0.84,1.69-1.27,3.09c-0.08,0.27-0.19,0.39-0.32,0.36
		c-0.15-0.03-0.23-0.15-0.23-0.37c-0.01-0.62-0.1-0.96-0.29-1.04c-0.08-0.03-0.19-0.04-0.35-0.04c-1.02,0.02-1.85,0.05-2.48,0.08
		c-0.12,0.36-0.35,0.98-0.7,1.87c-0.29,0.73-0.55,1.35-0.8,1.85c0.36,0.34,0.86,0.82,1.49,1.43c0.15,0.14,0.29,0.23,0.43,0.29
		c0.28,0.11,0.54,0.04,0.79-0.21c0.38-0.39,0.62-0.56,0.72-0.51c0.16,0.08,0.17,0.26,0.02,0.55c-0.47,0.89-0.78,1.77-0.93,2.62
		c-0.04,0.23-0.16,0.31-0.36,0.26c-0.14-0.03-0.21-0.25-0.23-0.65c-0.01-0.43-0.24-0.88-0.7-1.35c-1.71-1.79-2.85-2.95-3.39-3.49
		c-1.31-1.31-2.41-2.29-3.3-2.97c-0.14-0.1-0.2-0.35-0.2-0.76c0-0.1,0.19-0.15,0.56-0.15c2.99-0.05,6.22-0.17,9.67-0.34
		c0.55-0.03,1-0.26,1.35-0.71C107.56,101.78,107.69,101.71,107.8,101.78z M93.31,111.58c0.33,0.17,0.89,0.35,1.71,0.56
		c0.16,0.04,0.22,0.13,0.19,0.28c-0.03,0.15-0.12,0.23-0.28,0.26c-0.41,0.07-0.71,0.15-0.89,0.26c-0.21,0.12-0.37,0.32-0.47,0.59
		c-0.11,0.28-0.31,1.01-0.58,2.19c-0.06,0.27-0.07,0.45-0.04,0.55c0.02,0.06,0.1,0.1,0.21,0.13l3.51,0.81
		c0.12,0.03,0.19-0.03,0.22-0.19c0.1-0.46,0.22-1.14,0.37-2.03c0.02-0.17-0.01-0.31-0.08-0.38c-0.08-0.08-0.3-0.19-0.66-0.34
		c-0.2-0.08-0.25-0.22-0.16-0.42c0.08-0.17,0.18-0.23,0.29-0.17c0.67,0.31,1.56,0.57,2.7,0.77c0.13,0.02,0.19,0.13,0.16,0.3
		c-0.02,0.15-0.12,0.22-0.29,0.22c-0.67-0.01-1.07,0.16-1.2,0.52c-0.13,0.36-0.29,0.95-0.48,1.77c-0.02,0.09,0,0.15,0.07,0.16
		l3.51,0.81c0.26,0.06,0.46,0.01,0.6-0.16c0.11-0.13,0.26-0.44,0.44-0.92c0.09-0.25,0.22-0.33,0.41-0.26
		c0.17,0.07,0.18,0.32,0.05,0.73c-0.38,1.21-0.61,2.22-0.68,3.05c-0.02,0.23-0.14,0.32-0.35,0.27c-0.14-0.03-0.19-0.16-0.16-0.39
		c0.06-0.52-0.33-0.88-1.16-1.07l-6.66-1.54c-0.34-0.08-0.62-0.08-0.83,0c-0.21,0.08-0.43,0.27-0.66,0.57
		c-0.14,0.19-0.29,0.23-0.43,0.14c-0.09-0.05-0.14-0.1-0.13-0.16c0-0.05,0.04-0.19,0.13-0.4c0.13-0.31,0.33-1.08,0.61-2.29
		c0.33-1.43,0.58-2.68,0.76-3.73c0.06-0.35,0.13-0.52,0.2-0.5C93.27,111.56,93.29,111.57,93.31,111.58z"/>
	<path class="st3" d="M152.04,216.14c0.29-0.85,0.83-1.43,1.63-1.73c0.83-0.31,1.81-0.28,2.94,0.1c1.49,0.5,2.27,1.07,2.34,1.71
		c0.04,0.39,0.06,0.86,0.04,1.43c-0.01,0.26-0.11,0.4-0.3,0.41c-0.23,0.02-0.38-0.07-0.43-0.28c-0.21-0.78-0.49-1.38-0.84-1.79
		c-0.33-0.4-0.78-0.69-1.34-0.88c-1.4-0.47-2.29-0.15-2.67,0.97c-0.15,0.44-0.12,0.86,0.08,1.27c0.2,0.39,0.68,0.99,1.45,1.81
		c0.97,1.04,1.57,1.8,1.82,2.29c0.31,0.6,0.35,1.24,0.13,1.9c-0.24,0.7-0.73,1.2-1.49,1.49c-0.75,0.29-1.59,0.29-2.5-0.02
		c-0.64-0.22-1.24-0.51-1.8-0.88c-0.42-0.28-0.64-0.54-0.63-0.75c0.01-0.45,0.1-0.99,0.26-1.6c0.06-0.22,0.18-0.32,0.34-0.29
		c0.21,0.04,0.32,0.15,0.35,0.34c0.1,0.74,0.31,1.3,0.62,1.69c0.29,0.36,0.73,0.64,1.33,0.85c0.53,0.18,0.99,0.2,1.38,0.05
		c0.39-0.14,0.66-0.44,0.82-0.9c0.14-0.42,0.11-0.84-0.08-1.25c-0.19-0.38-0.61-0.9-1.25-1.55c-0.99-1-1.64-1.78-1.95-2.34
		C151.89,217.5,151.81,216.82,152.04,216.14z M159.44,226.49c0.03-0.13,0.19-0.21,0.49-0.22c0.67-0.04,1.04-0.21,1.1-0.51l1.75-7.57
		c0.11-0.49-0.11-0.85-0.66-1.09c-0.27-0.12-0.39-0.25-0.36-0.4c0.03-0.13,0.07-0.2,0.13-0.22c0.06-0.02,0.19,0,0.41,0.06
		c1.35,0.37,2.41,0.62,3.17,0.73c0.2,0.03,0.3,0.09,0.31,0.19c0,0.04-0.01,0.1-0.02,0.17c-0.02,0.11-0.16,0.16-0.4,0.15
		c-0.46,0-0.73,0.01-0.8,0.04c-0.19,0.06-0.32,0.26-0.4,0.58l-1.76,7.63c-0.1,0.43,0.13,0.76,0.69,1c0.24,0.1,0.34,0.2,0.32,0.31
		c-0.03,0.15-0.07,0.23-0.12,0.26c-0.05,0.02-0.14,0.01-0.28-0.04c-0.99-0.34-2.03-0.57-3.14-0.7c-0.21-0.02-0.33-0.04-0.36-0.06
		C159.43,226.75,159.41,226.65,159.44,226.49z M166.43,228.02c0.02-0.13,0.17-0.22,0.47-0.27c0.66-0.1,1.02-0.43,1.09-0.98l0.72-5.7
		c0.15-1.2,0.26-2.17,0.32-2.91c0.02-0.28,0.11-0.43,0.26-0.45c0.25-0.03,0.43,0.12,0.56,0.45c0.2,0.54,1.08,1.9,2.64,4.1
		c1.3,1.83,2.57,3.55,3.8,5.16c0.04,0.05,0.09,0.07,0.13,0.06c0.05-0.02,0.09-0.08,0.1-0.17l0.82-6.49c0.09-0.7-0.21-1.16-0.9-1.38
		c-0.28-0.09-0.42-0.22-0.4-0.36c0.02-0.2,0.2-0.27,0.53-0.21c1.25,0.21,2.23,0.34,2.93,0.37c0.23,0.01,0.33,0.12,0.31,0.32
		c-0.01,0.11-0.14,0.18-0.37,0.19c-0.42,0.04-0.71,0.14-0.86,0.29c-0.16,0.14-0.26,0.41-0.31,0.8l-0.89,7
		c-0.04,0.3-0.01,0.55,0.1,0.73c0.1,0.16,0.32,0.35,0.65,0.55c0.24,0.15,0.35,0.29,0.32,0.42c-0.03,0.14-0.16,0.18-0.38,0.12
		c-0.67-0.18-1.26-0.28-1.77-0.29c-0.26-0.01-0.48-0.14-0.66-0.39l-5.73-7.92c-0.08-0.11-0.13-0.17-0.16-0.18
		c-0.04-0.01-0.07,0.06-0.09,0.2l-0.73,5.73c-0.08,0.67,0.22,1.11,0.9,1.32c0.24,0.07,0.36,0.16,0.35,0.27
		c-0.03,0.22-0.15,0.3-0.38,0.24c-0.85-0.2-1.82-0.32-2.9-0.33c-0.19,0-0.31-0.01-0.36-0.04
		C166.45,228.26,166.41,228.17,166.43,228.02z M182.21,229.6c-0.01-0.11,0.11-0.2,0.34-0.27c0.41-0.13,0.66-0.24,0.77-0.35
		c0.14-0.14,0.19-0.4,0.17-0.76l-0.35-4.56c-0.11-1.46,0.18-2.61,0.88-3.46c0.72-0.88,1.82-1.37,3.3-1.48
		c3.13-0.24,4.81,1.11,5.03,4.06l0.36,4.77c0.04,0.51,0.36,0.79,0.95,0.85c0.2,0.02,0.33,0.05,0.38,0.08
		c0.05,0.03,0.08,0.09,0.08,0.18c0.01,0.16-0.02,0.26-0.1,0.29c-0.04,0.02-0.16,0.03-0.37,0.04c-1.43,0.03-2.53,0.12-3.27,0.25
		c-0.16,0.03-0.26,0.03-0.29,0c-0.04-0.03-0.06-0.11-0.07-0.27c-0.01-0.11,0.1-0.2,0.32-0.27c0.44-0.13,0.69-0.22,0.76-0.26
		c0.16-0.12,0.23-0.34,0.21-0.67l-0.35-4.6c-0.1-1.35-0.46-2.33-1.07-2.91c-0.61-0.59-1.54-0.84-2.78-0.74
		c-2.14,0.16-3.11,1.48-2.93,3.94l0.35,4.59c0.03,0.36,0.14,0.62,0.34,0.77c0.16,0.12,0.43,0.21,0.8,0.24
		c0.3,0.03,0.45,0.12,0.46,0.26c0.01,0.16-0.02,0.26-0.11,0.3c-0.03,0.01-0.16,0.03-0.37,0.04c-1.48,0.06-2.5,0.14-3.05,0.24
		c-0.21,0.04-0.33,0-0.36-0.1C182.22,229.74,182.22,229.68,182.21,229.6z M201.39,219.78c0.2,0.87,0.64,1.45,1.31,1.75
		c0.58,0.26,1.27,0.3,2.06,0.12c0.46-0.11,0.83-0.22,1.11-0.34l-0.89-3.87c-0.12-0.5-0.69-0.63-1.72-0.4
		C201.68,217.41,201.06,218.32,201.39,219.78z M203.31,224.61c0.16,0.68,0.44,1.13,0.85,1.35c0.41,0.22,1,0.25,1.75,0.07
		c0.6-0.14,0.91-0.3,0.91-0.49c0-0.05-0.01-0.1-0.02-0.17l-0.78-3.36l-0.68,0.16c-0.86,0.2-1.46,0.49-1.78,0.87
		C203.25,223.42,203.16,223.94,203.31,224.61z M199.84,220.33c-0.23-1-0.02-1.85,0.64-2.53c0.6-0.62,1.53-1.08,2.8-1.38
		c0.14-0.03,0.48-0.09,1.01-0.18c0.54-0.09,0.96-0.17,1.29-0.25c0.53-0.12,0.94-0.25,1.23-0.39c0.18-0.08,0.31-0.06,0.37,0.08
		c0.06,0.12-0.02,0.27-0.25,0.43c-0.26,0.19-0.43,0.35-0.49,0.47c-0.1,0.16-0.11,0.4-0.04,0.7l1.68,7.29
		c0.11,0.49,0.47,0.73,1.07,0.71c0.3-0.01,0.46,0.05,0.49,0.17c0.04,0.15,0.02,0.26-0.05,0.3c-0.05,0.03-0.17,0.06-0.36,0.07
		c-0.24,0.02-0.61,0.09-1.13,0.21c-0.28,0.06-0.75,0.18-1.38,0.34c-0.64,0.16-1.03,0.26-1.19,0.3c-0.96,0.22-1.76,0.22-2.4-0.02
		c-0.72-0.26-1.17-0.79-1.35-1.58c-0.24-1.05,0.23-1.93,1.43-2.64c0.14-0.08,0.12-0.12-0.04-0.11
		C201.28,222.46,200.18,221.79,199.84,220.33z M214.49,217.45c0.62,0.61,1.58,1.56,2.89,2.85c0.07,0.07,0.13,0.09,0.18,0.07
		c0.05-0.02,0.07-0.08,0.08-0.18l0.07-3.98c-0.54,0.17-1.15,0.38-1.81,0.64C215.5,217.02,215.03,217.22,214.49,217.45z
		 M208.92,215.13c-0.02-0.15-0.02-0.24,0-0.28c0.02-0.03,0.09-0.05,0.21-0.07c0.76-0.15,1.8-0.54,3.12-1.18
		c0.25-0.12,0.41-0.13,0.48-0.02c0.08,0.13,0.04,0.27-0.12,0.42c-0.45,0.43-0.64,0.73-0.56,0.92c0.03,0.08,0.1,0.17,0.21,0.28
		c0.71,0.73,1.3,1.32,1.75,1.76c0.34-0.16,0.96-0.41,1.85-0.76c0.73-0.29,1.36-0.51,1.89-0.68c0.01-0.49,0.01-1.19,0.03-2.07
		c0-0.2-0.03-0.37-0.08-0.51c-0.11-0.28-0.34-0.42-0.69-0.43c-0.54-0.01-0.83-0.08-0.86-0.18c-0.06-0.17,0.07-0.3,0.39-0.38
		c0.97-0.27,1.82-0.64,2.55-1.11c0.19-0.13,0.34-0.1,0.44,0.09c0.07,0.12-0.04,0.32-0.32,0.61c-0.31,0.3-0.48,0.77-0.51,1.43
		c-0.13,2.47-0.22,4.09-0.24,4.86c-0.06,1.85-0.03,3.33,0.08,4.44c0.02,0.17-0.12,0.39-0.42,0.66c-0.07,0.06-0.24-0.04-0.49-0.3
		c-2.08-2.15-4.37-4.43-6.85-6.84c-0.39-0.38-0.88-0.55-1.44-0.5C209.08,215.31,208.94,215.26,208.92,215.13z M225.8,218.89
		c-0.1-0.35-0.35-0.9-0.75-1.63c-0.08-0.14-0.06-0.25,0.07-0.33c0.13-0.07,0.26-0.07,0.38,0.03c0.33,0.26,0.6,0.42,0.8,0.47
		c0.24,0.07,0.49,0.05,0.75-0.05c0.29-0.11,0.95-0.47,2-1.07c0.24-0.14,0.38-0.25,0.43-0.35c0.02-0.06,0.01-0.14-0.05-0.25
		l-1.8-3.12c-0.06-0.11-0.16-0.12-0.29-0.04c-0.41,0.24-0.99,0.61-1.74,1.11c-0.14,0.11-0.22,0.21-0.22,0.32
		c-0.01,0.11,0.06,0.35,0.2,0.71c0.07,0.2,0.01,0.33-0.2,0.4c-0.18,0.06-0.28,0.02-0.32-0.1c-0.23-0.7-0.65-1.53-1.27-2.5
		c-0.07-0.11-0.03-0.22,0.12-0.32c0.12-0.09,0.24-0.06,0.36,0.07c0.45,0.5,0.85,0.68,1.19,0.53c0.35-0.15,0.89-0.43,1.62-0.85
		c0.08-0.05,0.11-0.1,0.07-0.16l-1.79-3.12c-0.13-0.23-0.31-0.34-0.53-0.33c-0.17,0.01-0.5,0.11-0.97,0.31
		c-0.24,0.11-0.4,0.06-0.47-0.13c-0.06-0.17,0.11-0.35,0.5-0.53c1.14-0.54,2.04-1.07,2.7-1.57c0.18-0.14,0.33-0.12,0.44,0.07
		c0.07,0.12,0.01,0.25-0.18,0.38c-0.42,0.31-0.42,0.84,0,1.58l3.41,5.93c0.17,0.3,0.36,0.51,0.57,0.61c0.2,0.1,0.49,0.13,0.86,0.1
		c0.23-0.02,0.37,0.05,0.4,0.22c0.03,0.1,0.02,0.17-0.03,0.21c-0.04,0.04-0.17,0.1-0.38,0.18c-0.32,0.12-1.02,0.49-2.1,1.11
		c-1.27,0.73-2.36,1.39-3.25,1.98c-0.3,0.19-0.47,0.26-0.51,0.19C225.81,218.93,225.8,218.91,225.8,218.89z M236.76,201.92
		c0.78,0.24,1.74,0.42,2.89,0.52c0.15,0.01,0.82-0.03,2.03-0.13c0.64-1.39,0.57-2.54-0.22-3.45c-0.5-0.58-1.09-0.87-1.75-0.87
		c-0.63,0-1.23,0.25-1.82,0.76C237.07,199.47,236.69,200.53,236.76,201.92z M242.13,205.72c0.64,0.74,1.25,0.85,1.84,0.33
		c0.64-0.55,0.65-1.18,0.03-1.89c-0.43-0.5-1.18-0.73-2.25-0.69C241.41,204.28,241.53,205.03,242.13,205.72z M232.42,203.75
		c-0.14-0.07-0.17-0.22-0.11-0.44c0.19-0.62,0.49-1.11,0.89-1.46c0.43-0.37,0.83-0.58,1.2-0.61c0.34-0.03,0.79,0.07,1.34,0.31
		c0.16,0.07,0.3,0.12,0.39,0.15c-0.03-1.58,0.49-2.82,1.55-3.74c0.85-0.74,1.68-1.14,2.5-1.2c0.84-0.07,1.54,0.23,2.12,0.9
		c1,1.16,1.04,2.7,0.11,4.62c1.04,0,1.83,0.29,2.34,0.88c0.45,0.52,0.63,1.11,0.53,1.75c-0.1,0.61-0.42,1.16-0.97,1.63
		c-0.5,0.44-1.03,0.67-1.57,0.7c-0.57,0.03-1.05-0.18-1.43-0.62c-0.72-0.83-0.8-1.85-0.25-3.07c-0.46,0.05-1.1,0.08-1.93,0.11
		c-0.77-0.05-1.48-0.16-2.16-0.32c0.17,0.79,0.47,1.66,0.87,2.62c0.07,0.16,0.14,0.3,0.23,0.4c0.2,0.23,0.51,0.28,0.92,0.13
		c0.19-0.06,0.32-0.05,0.4,0.04c0.1,0.11,0.02,0.23-0.22,0.36c-0.18,0.1-0.48,0.32-0.9,0.65c-0.39,0.32-0.65,0.54-0.77,0.67
		c-0.2,0.21-0.36,0.26-0.46,0.14c-0.08-0.09,0.02-0.3,0.3-0.63c0.14-0.18,0.23-0.32,0.24-0.44c0.02-0.12-0.02-0.3-0.13-0.53
		c-0.58-1.34-0.97-2.54-1.16-3.62c-0.15-0.04-0.38-0.13-0.71-0.25c-0.62-0.25-1.09-0.38-1.4-0.41c-0.36-0.03-0.66,0.07-0.92,0.29
		c-0.21,0.18-0.4,0.49-0.57,0.91C232.65,203.81,232.56,203.83,232.42,203.75z M250.68,196.48c-0.07-0.06-0.12-0.11-0.13-0.15
		c-0.02-0.04,0-0.09,0.04-0.18c0.09-0.18,0.23-0.24,0.42-0.17c0.7,0.26,1.24,0.34,1.62,0.24c0.52-0.15,1.12-0.65,1.79-1.51
		c0.27-0.35,0.39-0.57,0.33-0.66c-0.01-0.03-0.05-0.06-0.09-0.1l-6.25-4.91c-0.27-0.21-0.5-0.29-0.71-0.25
		c-0.2,0.04-0.5,0.22-0.88,0.52c-0.16,0.14-0.25,0.21-0.28,0.22c-0.09,0.03-0.18-0.01-0.29-0.13c-0.09-0.09-0.1-0.18-0.05-0.26
		c0-0.01,0.07-0.1,0.22-0.25c0.96-1.03,1.68-1.94,2.16-2.73c0.12-0.18,0.2-0.29,0.26-0.33c0.05-0.02,0.13-0.01,0.21,0.03
		c0.16,0.07,0.19,0.21,0.1,0.43c-0.19,0.43-0.27,0.76-0.24,0.99c0.03,0.26,0.22,0.51,0.54,0.77l6.09,4.78
		c0.12,0.1,0.25,0.08,0.39-0.06c0.02-0.01,0.12-0.14,0.3-0.37c0.62-0.79,0.95-1.49,0.97-2.08c0.02-0.44-0.16-0.99-0.53-1.65
		c-0.12-0.21-0.09-0.35,0.06-0.43c0.15-0.11,0.27-0.11,0.36,0.03c0.34,0.5,0.92,1.07,1.74,1.72c0.1,0.08,0.03,0.24-0.18,0.48
		c-0.77,0.86-1.59,1.83-2.45,2.93c-1.63,2.08-2.65,3.45-3.04,4.14c-0.15,0.26-0.29,0.36-0.41,0.29
		C252.08,197.52,251.4,197.07,250.68,196.48z M254.34,183.14c-0.78-0.45-1.24-1.09-1.38-1.93c-0.15-0.88,0.08-1.83,0.67-2.87
		c0.78-1.36,1.49-2.01,2.13-1.96c0.39,0.03,0.86,0.11,1.41,0.24c0.25,0.07,0.37,0.19,0.35,0.37c-0.02,0.23-0.14,0.36-0.36,0.37
		c-0.81,0.06-1.44,0.22-1.92,0.47c-0.45,0.25-0.83,0.63-1.12,1.14c-0.74,1.28-0.59,2.22,0.43,2.81c0.4,0.23,0.82,0.29,1.27,0.17
		c0.42-0.12,1.11-0.48,2.06-1.07c1.2-0.75,2.07-1.2,2.6-1.34c0.65-0.19,1.28-0.1,1.89,0.25c0.64,0.37,1.03,0.95,1.18,1.75
		c0.14,0.8-0.02,1.61-0.51,2.45c-0.34,0.59-0.74,1.12-1.21,1.59c-0.36,0.36-0.65,0.52-0.86,0.47c-0.44-0.1-0.95-0.29-1.52-0.57
		c-0.2-0.1-0.28-0.24-0.22-0.39c0.07-0.2,0.21-0.29,0.4-0.27c0.74,0.05,1.34-0.05,1.78-0.28c0.41-0.21,0.77-0.59,1.09-1.14
		c0.28-0.48,0.38-0.93,0.32-1.34c-0.06-0.41-0.3-0.74-0.72-0.98c-0.39-0.22-0.8-0.27-1.24-0.16c-0.41,0.11-1,0.42-1.76,0.92
		c-1.17,0.78-2.07,1.26-2.68,1.46C255.64,183.55,254.96,183.49,254.34,183.14z M262.01,171.94c0.87,0.01,2.22,0.02,4.06,0.03
		c0.1,0,0.16-0.02,0.18-0.07c0.02-0.05,0-0.11-0.07-0.18l-2.72-2.9c-0.28,0.5-0.56,1.07-0.85,1.72
		C262.43,170.93,262.23,171.4,262.01,171.94z M256.39,174.16c-0.12-0.09-0.18-0.16-0.19-0.2c-0.01-0.04,0.03-0.1,0.11-0.2
		c0.44-0.63,0.92-1.64,1.42-3.02c0.09-0.26,0.21-0.38,0.33-0.35c0.15,0.04,0.22,0.16,0.21,0.38c-0.02,0.62,0.05,0.97,0.24,1.05
		c0.07,0.03,0.19,0.05,0.35,0.05c1.02,0.03,1.85,0.04,2.48,0.04c0.14-0.35,0.4-0.96,0.79-1.83c0.33-0.72,0.62-1.32,0.89-1.8
		c-0.34-0.36-0.82-0.86-1.42-1.5c-0.14-0.15-0.28-0.25-0.41-0.31c-0.27-0.12-0.54-0.06-0.8,0.17c-0.4,0.37-0.65,0.52-0.75,0.47
		c-0.16-0.08-0.16-0.27,0.01-0.55c0.51-0.87,0.87-1.73,1.06-2.58c0.05-0.22,0.17-0.3,0.37-0.24c0.14,0.04,0.2,0.26,0.19,0.66
		c-0.01,0.43,0.2,0.89,0.63,1.38c1.62,1.87,2.7,3.09,3.22,3.65c1.25,1.37,2.3,2.41,3.15,3.13c0.13,0.1,0.18,0.36,0.16,0.77
		c-0.01,0.1-0.2,0.14-0.56,0.13c-2.99-0.09-6.22-0.13-9.68-0.13c-0.55,0-1.01,0.22-1.38,0.64
		C256.63,174.18,256.49,174.24,256.39,174.16z M271.07,165.15c-0.32-0.18-0.88-0.4-1.68-0.65c-0.16-0.05-0.22-0.14-0.18-0.29
		c0.04-0.14,0.14-0.23,0.29-0.24c0.42-0.05,0.72-0.12,0.9-0.22c0.22-0.11,0.38-0.3,0.5-0.56c0.13-0.28,0.36-1,0.69-2.16
		c0.08-0.26,0.09-0.44,0.06-0.54c-0.02-0.06-0.09-0.11-0.21-0.14l-3.47-0.98c-0.12-0.03-0.19,0.02-0.23,0.17
		c-0.12,0.46-0.28,1.13-0.47,2.01c-0.03,0.17-0.01,0.3,0.07,0.39c0.07,0.09,0.29,0.21,0.64,0.37c0.2,0.09,0.24,0.23,0.13,0.43
		c-0.09,0.16-0.19,0.22-0.3,0.16c-0.65-0.34-1.53-0.64-2.66-0.91c-0.13-0.03-0.18-0.14-0.14-0.31c0.02-0.15,0.13-0.21,0.31-0.2
		c0.67,0.05,1.08-0.1,1.22-0.45c0.15-0.35,0.33-0.93,0.57-1.74c0.03-0.09,0.01-0.15-0.06-0.17l-3.46-0.98
		c-0.26-0.07-0.46-0.03-0.6,0.13c-0.12,0.13-0.28,0.43-0.48,0.9c-0.1,0.24-0.24,0.32-0.43,0.23c-0.16-0.08-0.17-0.33-0.01-0.73
		c0.44-1.19,0.72-2.19,0.84-3.01c0.03-0.23,0.15-0.31,0.36-0.25c0.14,0.04,0.18,0.17,0.14,0.4c-0.09,0.52,0.28,0.89,1.11,1.13
		l6.57,1.87c0.34,0.1,0.61,0.11,0.83,0.04c0.21-0.07,0.44-0.25,0.69-0.53c0.15-0.18,0.3-0.22,0.44-0.12
		c0.09,0.05,0.13,0.11,0.13,0.17c0,0.06-0.05,0.19-0.15,0.4c-0.14,0.31-0.39,1.06-0.73,2.26c-0.4,1.41-0.72,2.64-0.95,3.69
		c-0.08,0.35-0.15,0.51-0.23,0.49C271.11,165.17,271.09,165.16,271.07,165.15z M273.93,118.25c-0.13,0.03-0.27-0.07-0.43-0.33
		c-0.35-0.57-0.79-0.77-1.33-0.62l-5.52,1.57c-1.17,0.33-2.1,0.61-2.8,0.84c-0.27,0.09-0.44,0.07-0.52-0.06
		c-0.12-0.21-0.06-0.44,0.19-0.69c0.41-0.4,1.33-1.74,2.74-4.04c1.18-1.92,2.26-3.76,3.26-5.52c0.03-0.06,0.03-0.11,0-0.15
		c-0.04-0.04-0.11-0.05-0.2-0.02l-6.29,1.79c-0.68,0.19-0.98,0.65-0.91,1.37c0.02,0.3-0.03,0.47-0.18,0.51
		c-0.19,0.05-0.33-0.08-0.4-0.4c-0.29-1.23-0.56-2.18-0.81-2.84c-0.08-0.22-0.02-0.35,0.18-0.41c0.11-0.03,0.22,0.06,0.32,0.26
		c0.2,0.37,0.4,0.6,0.6,0.68c0.2,0.09,0.48,0.08,0.86-0.03l6.79-1.93c0.3-0.08,0.51-0.21,0.63-0.38c0.11-0.16,0.19-0.43,0.25-0.81
		c0.05-0.28,0.13-0.44,0.26-0.46c0.14-0.02,0.23,0.08,0.26,0.3c0.1,0.69,0.24,1.27,0.43,1.74c0.1,0.24,0.06,0.5-0.1,0.76l-5.03,8.38
		c-0.07,0.12-0.11,0.19-0.1,0.22c0.01,0.04,0.09,0.04,0.22,0.01l5.55-1.58c0.65-0.18,0.94-0.63,0.86-1.35
		c-0.03-0.25,0.01-0.39,0.11-0.42c0.21-0.06,0.34,0.02,0.37,0.25c0.15,0.86,0.42,1.8,0.83,2.8c0.07,0.17,0.11,0.29,0.11,0.34
		C274.14,118.14,274.07,118.2,273.93,118.25z M263.9,104.03c1.41-0.64,2.35-1.53,2.82-2.67c0.45-1.1,0.4-2.26-0.15-3.47
		c-0.46-1.01-1.2-1.67-2.24-1.98c-1.04-0.31-2.15-0.2-3.34,0.34c-1.43,0.65-2.39,1.53-2.87,2.65c-0.47,1.09-0.41,2.27,0.16,3.52
		c0.46,1.01,1.2,1.67,2.24,1.97C261.56,104.71,262.69,104.58,263.9,104.03z M264.82,105.39c-1.4,0.63-2.82,0.65-4.27,0.05
		c-1.42-0.58-2.45-1.59-3.1-3.02c-0.68-1.5-0.79-2.96-0.34-4.36c0.47-1.44,1.44-2.49,2.92-3.16c1.43-0.65,2.86-0.67,4.29-0.08
		c1.41,0.59,2.45,1.62,3.11,3.08c0.67,1.49,0.77,2.94,0.29,4.35C267.24,103.7,266.27,104.74,264.82,105.39z M255.96,94.62
		c-0.67,0.21-1.26,0.48-1.76,0.8c-0.09,0.05-0.21-0.07-0.38-0.36c-0.42-0.73-0.96-1.62-1.63-2.66c-0.71-1.11-1.37-2.09-1.97-2.93
		c-0.09-0.13-0.13-0.21-0.12-0.26c0.01-0.05,0.07-0.11,0.18-0.18c0.12-0.08,0.25-0.02,0.39,0.16c0.33,0.41,0.7,0.48,1.13,0.21
		l6.19-3.97c0.31-0.2,0.52-0.39,0.62-0.58c0.11-0.22,0.12-0.5,0.04-0.86c-0.05-0.22,0-0.36,0.16-0.42c0.11-0.05,0.19-0.06,0.23-0.03
		c0.05,0.04,0.12,0.15,0.22,0.36c0.35,0.7,0.86,1.47,1.52,2.33c0.12,0.15,0.18,0.24,0.19,0.27c0.04,0.1,0.02,0.19-0.08,0.27
		c-0.11,0.09-0.22,0.12-0.3,0.07c-0.04-0.01-0.12-0.09-0.26-0.22c-0.27-0.27-0.48-0.41-0.62-0.43c-0.14-0.02-0.37,0.06-0.66,0.25
		L253,90.28c-0.38,0.24-0.55,0.53-0.53,0.87c0.03,0.34,0.25,0.85,0.68,1.51c0.41,0.64,0.79,1.06,1.15,1.26
		c0.36,0.2,0.83,0.26,1.4,0.16c0.23-0.04,0.36,0.03,0.4,0.22C256.16,94.47,256.11,94.57,255.96,94.62z M249.81,81.58
		c0.37-0.79,0.95-2.01,1.73-3.67c0.04-0.09,0.04-0.16,0.01-0.2c-0.04-0.04-0.1-0.04-0.19-0.01l-3.78,1.26
		c0.34,0.46,0.74,0.96,1.2,1.49C249.07,80.78,249.41,81.16,249.81,81.58z M249.47,87.61c-0.13,0.07-0.22,0.1-0.26,0.09
		c-0.04-0.01-0.08-0.07-0.13-0.18c-0.39-0.67-1.11-1.52-2.15-2.56c-0.2-0.2-0.26-0.34-0.18-0.45c0.09-0.12,0.24-0.13,0.44-0.03
		c0.55,0.28,0.9,0.36,1.06,0.22c0.06-0.05,0.13-0.15,0.2-0.3c0.46-0.91,0.81-1.66,1.08-2.23c-0.26-0.27-0.71-0.77-1.33-1.49
		c-0.52-0.6-0.94-1.12-1.27-1.56c-0.47,0.16-1.12,0.38-1.96,0.66c-0.19,0.07-0.34,0.15-0.45,0.25c-0.22,0.19-0.28,0.46-0.18,0.8
		c0.17,0.52,0.2,0.81,0.11,0.87c-0.14,0.11-0.31,0.03-0.49-0.24c-0.57-0.83-1.2-1.51-1.89-2.04c-0.18-0.14-0.2-0.28-0.07-0.44
		c0.09-0.11,0.32-0.07,0.68,0.1c0.38,0.19,0.89,0.19,1.52,0.01c2.38-0.69,3.93-1.15,4.67-1.39c1.77-0.56,3.15-1.07,4.16-1.54
		c0.15-0.08,0.4-0.02,0.76,0.18c0.08,0.05,0.04,0.24-0.12,0.56c-1.34,2.68-2.73,5.59-4.18,8.73c-0.23,0.5-0.23,1.01,0,1.52
		C249.59,87.4,249.59,87.55,249.47,87.61z"/>
	<path class="st21" d="M152.04,216.14c0.29-0.85,0.83-1.43,1.63-1.73c0.83-0.31,1.81-0.28,2.94,0.1c1.49,0.5,2.27,1.07,2.34,1.71
		c0.04,0.39,0.06,0.86,0.04,1.43c-0.01,0.26-0.11,0.4-0.3,0.41c-0.23,0.02-0.38-0.07-0.43-0.28c-0.21-0.78-0.49-1.38-0.84-1.79
		c-0.33-0.4-0.78-0.69-1.34-0.88c-1.4-0.47-2.29-0.15-2.67,0.97c-0.15,0.44-0.12,0.86,0.08,1.27c0.2,0.39,0.68,0.99,1.45,1.81
		c0.97,1.04,1.57,1.8,1.82,2.29c0.31,0.6,0.35,1.24,0.13,1.9c-0.24,0.7-0.73,1.2-1.49,1.49c-0.75,0.29-1.59,0.29-2.5-0.02
		c-0.64-0.22-1.24-0.51-1.8-0.88c-0.42-0.28-0.64-0.54-0.63-0.75c0.01-0.45,0.1-0.99,0.26-1.6c0.06-0.22,0.18-0.32,0.34-0.29
		c0.21,0.04,0.32,0.15,0.35,0.34c0.1,0.74,0.31,1.3,0.62,1.69c0.29,0.36,0.73,0.64,1.33,0.85c0.53,0.18,0.99,0.2,1.38,0.05
		c0.39-0.14,0.66-0.44,0.82-0.9c0.14-0.42,0.11-0.84-0.08-1.25c-0.19-0.38-0.61-0.9-1.25-1.55c-0.99-1-1.64-1.78-1.95-2.34
		C151.89,217.5,151.81,216.82,152.04,216.14z M159.44,226.49c0.03-0.13,0.19-0.21,0.49-0.22c0.67-0.04,1.04-0.21,1.1-0.51l1.75-7.57
		c0.11-0.49-0.11-0.85-0.66-1.09c-0.27-0.12-0.39-0.25-0.36-0.4c0.03-0.13,0.07-0.2,0.13-0.22c0.06-0.02,0.19,0,0.41,0.06
		c1.35,0.37,2.41,0.62,3.17,0.73c0.2,0.03,0.3,0.09,0.31,0.19c0,0.04-0.01,0.1-0.02,0.17c-0.02,0.11-0.16,0.16-0.4,0.15
		c-0.46,0-0.73,0.01-0.8,0.04c-0.19,0.06-0.32,0.26-0.4,0.58l-1.76,7.63c-0.1,0.43,0.13,0.76,0.69,1c0.24,0.1,0.34,0.2,0.32,0.31
		c-0.03,0.15-0.07,0.23-0.12,0.26c-0.05,0.02-0.14,0.01-0.28-0.04c-0.99-0.34-2.03-0.57-3.14-0.7c-0.21-0.02-0.33-0.04-0.36-0.06
		C159.43,226.75,159.41,226.65,159.44,226.49z M166.43,228.02c0.02-0.13,0.17-0.22,0.47-0.27c0.66-0.1,1.02-0.43,1.09-0.98l0.72-5.7
		c0.15-1.2,0.26-2.17,0.32-2.91c0.02-0.28,0.11-0.43,0.26-0.45c0.25-0.03,0.43,0.12,0.56,0.45c0.2,0.54,1.08,1.9,2.64,4.1
		c1.3,1.83,2.57,3.55,3.8,5.16c0.04,0.05,0.09,0.07,0.13,0.06c0.05-0.02,0.09-0.08,0.1-0.17l0.82-6.49c0.09-0.7-0.21-1.16-0.9-1.38
		c-0.28-0.09-0.42-0.22-0.4-0.36c0.02-0.2,0.2-0.27,0.53-0.21c1.25,0.21,2.23,0.34,2.93,0.37c0.23,0.01,0.33,0.12,0.31,0.32
		c-0.01,0.11-0.14,0.18-0.37,0.19c-0.42,0.04-0.71,0.14-0.86,0.29c-0.16,0.14-0.26,0.41-0.31,0.8l-0.89,7
		c-0.04,0.3-0.01,0.55,0.1,0.73c0.1,0.16,0.32,0.35,0.65,0.55c0.24,0.15,0.35,0.29,0.32,0.42c-0.03,0.14-0.16,0.18-0.38,0.12
		c-0.67-0.18-1.26-0.28-1.77-0.29c-0.26-0.01-0.48-0.14-0.66-0.39l-5.73-7.92c-0.08-0.11-0.13-0.17-0.16-0.18
		c-0.04-0.01-0.07,0.06-0.09,0.2l-0.73,5.73c-0.08,0.67,0.22,1.11,0.9,1.32c0.24,0.07,0.36,0.16,0.35,0.27
		c-0.03,0.22-0.15,0.3-0.38,0.24c-0.85-0.2-1.82-0.32-2.9-0.33c-0.19,0-0.31-0.01-0.36-0.04
		C166.45,228.26,166.41,228.17,166.43,228.02z M182.21,229.6c-0.01-0.11,0.11-0.2,0.34-0.27c0.41-0.13,0.66-0.24,0.77-0.35
		c0.14-0.14,0.19-0.4,0.17-0.76l-0.35-4.56c-0.11-1.46,0.18-2.61,0.88-3.46c0.72-0.88,1.82-1.37,3.3-1.48
		c3.13-0.24,4.81,1.11,5.03,4.06l0.36,4.77c0.04,0.51,0.36,0.79,0.95,0.85c0.2,0.02,0.33,0.05,0.38,0.08
		c0.05,0.03,0.08,0.09,0.08,0.18c0.01,0.16-0.02,0.26-0.1,0.29c-0.04,0.02-0.16,0.03-0.37,0.04c-1.43,0.03-2.53,0.12-3.27,0.25
		c-0.16,0.03-0.26,0.03-0.29,0c-0.04-0.03-0.06-0.11-0.07-0.27c-0.01-0.11,0.1-0.2,0.32-0.27c0.44-0.13,0.69-0.22,0.76-0.26
		c0.16-0.12,0.23-0.34,0.21-0.67l-0.35-4.6c-0.1-1.35-0.46-2.33-1.07-2.91c-0.61-0.59-1.54-0.84-2.78-0.74
		c-2.14,0.16-3.11,1.48-2.93,3.94l0.35,4.59c0.03,0.36,0.14,0.62,0.34,0.77c0.16,0.12,0.43,0.21,0.8,0.24
		c0.3,0.03,0.45,0.12,0.46,0.26c0.01,0.16-0.02,0.26-0.11,0.3c-0.03,0.01-0.16,0.03-0.37,0.04c-1.48,0.06-2.5,0.14-3.05,0.24
		c-0.21,0.04-0.33,0-0.36-0.1C182.22,229.74,182.22,229.68,182.21,229.6z M201.39,219.78c0.2,0.87,0.64,1.45,1.31,1.75
		c0.58,0.26,1.27,0.3,2.06,0.12c0.46-0.11,0.83-0.22,1.11-0.34l-0.89-3.87c-0.12-0.5-0.69-0.63-1.72-0.4
		C201.68,217.41,201.06,218.32,201.39,219.78z M203.31,224.61c0.16,0.68,0.44,1.13,0.85,1.35c0.41,0.22,1,0.25,1.75,0.07
		c0.6-0.14,0.91-0.3,0.91-0.49c0-0.05-0.01-0.1-0.02-0.17l-0.78-3.36l-0.68,0.16c-0.86,0.2-1.46,0.49-1.78,0.87
		C203.25,223.42,203.16,223.94,203.31,224.61z M199.84,220.33c-0.23-1-0.02-1.85,0.64-2.53c0.6-0.62,1.53-1.08,2.8-1.38
		c0.14-0.03,0.48-0.09,1.01-0.18c0.54-0.09,0.96-0.17,1.29-0.25c0.53-0.12,0.94-0.25,1.23-0.39c0.18-0.08,0.31-0.06,0.37,0.08
		c0.06,0.12-0.02,0.27-0.25,0.43c-0.26,0.19-0.43,0.35-0.49,0.47c-0.1,0.16-0.11,0.4-0.04,0.7l1.68,7.29
		c0.11,0.49,0.47,0.73,1.07,0.71c0.3-0.01,0.46,0.05,0.49,0.17c0.04,0.15,0.02,0.26-0.05,0.3c-0.05,0.03-0.17,0.06-0.36,0.07
		c-0.24,0.02-0.61,0.09-1.13,0.21c-0.28,0.06-0.75,0.18-1.38,0.34c-0.64,0.16-1.03,0.26-1.19,0.3c-0.96,0.22-1.76,0.22-2.4-0.02
		c-0.72-0.26-1.17-0.79-1.35-1.58c-0.24-1.05,0.23-1.93,1.43-2.64c0.14-0.08,0.12-0.12-0.04-0.11
		C201.28,222.46,200.18,221.79,199.84,220.33z M214.49,217.45c0.62,0.61,1.58,1.56,2.89,2.85c0.07,0.07,0.13,0.09,0.18,0.07
		c0.05-0.02,0.07-0.08,0.08-0.18l0.07-3.98c-0.54,0.17-1.15,0.38-1.81,0.64C215.5,217.02,215.03,217.22,214.49,217.45z
		 M208.92,215.13c-0.02-0.15-0.02-0.24,0-0.28c0.02-0.03,0.09-0.05,0.21-0.07c0.76-0.15,1.8-0.54,3.12-1.18
		c0.25-0.12,0.41-0.13,0.48-0.02c0.08,0.13,0.04,0.27-0.12,0.42c-0.45,0.43-0.64,0.73-0.56,0.92c0.03,0.08,0.1,0.17,0.21,0.28
		c0.71,0.73,1.3,1.32,1.75,1.76c0.34-0.16,0.96-0.41,1.85-0.76c0.73-0.29,1.36-0.51,1.89-0.68c0.01-0.49,0.01-1.19,0.03-2.07
		c0-0.2-0.03-0.37-0.08-0.51c-0.11-0.28-0.34-0.42-0.69-0.43c-0.54-0.01-0.83-0.08-0.86-0.18c-0.06-0.17,0.07-0.3,0.39-0.38
		c0.97-0.27,1.82-0.64,2.55-1.11c0.19-0.13,0.34-0.1,0.44,0.09c0.07,0.12-0.04,0.32-0.32,0.61c-0.31,0.3-0.48,0.77-0.51,1.43
		c-0.13,2.47-0.22,4.09-0.24,4.86c-0.06,1.85-0.03,3.33,0.08,4.44c0.02,0.17-0.12,0.39-0.42,0.66c-0.07,0.06-0.24-0.04-0.49-0.3
		c-2.08-2.15-4.37-4.43-6.85-6.84c-0.39-0.38-0.88-0.55-1.44-0.5C209.08,215.31,208.94,215.26,208.92,215.13z M225.8,218.89
		c-0.1-0.35-0.35-0.9-0.75-1.63c-0.08-0.14-0.06-0.25,0.07-0.33c0.13-0.07,0.26-0.07,0.38,0.03c0.33,0.26,0.6,0.42,0.8,0.47
		c0.24,0.07,0.49,0.05,0.75-0.05c0.29-0.11,0.95-0.47,2-1.07c0.24-0.14,0.38-0.25,0.43-0.35c0.02-0.06,0.01-0.14-0.05-0.25
		l-1.8-3.12c-0.06-0.11-0.16-0.12-0.29-0.04c-0.41,0.24-0.99,0.61-1.74,1.11c-0.14,0.11-0.22,0.21-0.22,0.32
		c-0.01,0.11,0.06,0.35,0.2,0.71c0.07,0.2,0.01,0.33-0.2,0.4c-0.18,0.06-0.28,0.02-0.32-0.1c-0.23-0.7-0.65-1.53-1.27-2.5
		c-0.07-0.11-0.03-0.22,0.12-0.32c0.12-0.09,0.24-0.06,0.36,0.07c0.45,0.5,0.85,0.68,1.19,0.53c0.35-0.15,0.89-0.43,1.62-0.85
		c0.08-0.05,0.11-0.1,0.07-0.16l-1.79-3.12c-0.13-0.23-0.31-0.34-0.53-0.33c-0.17,0.01-0.5,0.11-0.97,0.31
		c-0.24,0.11-0.4,0.06-0.47-0.13c-0.06-0.17,0.11-0.35,0.5-0.53c1.14-0.54,2.04-1.07,2.7-1.57c0.18-0.14,0.33-0.12,0.44,0.07
		c0.07,0.12,0.01,0.25-0.18,0.38c-0.42,0.31-0.42,0.84,0,1.58l3.41,5.93c0.17,0.3,0.36,0.51,0.57,0.61c0.2,0.1,0.49,0.13,0.86,0.1
		c0.23-0.02,0.37,0.05,0.4,0.22c0.03,0.1,0.02,0.17-0.03,0.21c-0.04,0.04-0.17,0.1-0.38,0.18c-0.32,0.12-1.02,0.49-2.1,1.11
		c-1.27,0.73-2.36,1.39-3.25,1.98c-0.3,0.19-0.47,0.26-0.51,0.19C225.81,218.93,225.8,218.91,225.8,218.89z M236.76,201.92
		c0.78,0.24,1.74,0.42,2.89,0.52c0.15,0.01,0.82-0.03,2.03-0.13c0.64-1.39,0.57-2.54-0.22-3.45c-0.5-0.58-1.09-0.87-1.75-0.87
		c-0.63,0-1.23,0.25-1.82,0.76C237.07,199.47,236.69,200.53,236.76,201.92z M242.13,205.72c0.64,0.74,1.25,0.85,1.84,0.33
		c0.64-0.55,0.65-1.18,0.03-1.89c-0.43-0.5-1.18-0.73-2.25-0.69C241.41,204.28,241.53,205.03,242.13,205.72z M232.42,203.75
		c-0.14-0.07-0.17-0.22-0.11-0.44c0.19-0.62,0.49-1.11,0.89-1.46c0.43-0.37,0.83-0.58,1.2-0.61c0.34-0.03,0.79,0.07,1.34,0.31
		c0.16,0.07,0.3,0.12,0.39,0.15c-0.03-1.58,0.49-2.82,1.55-3.74c0.85-0.74,1.68-1.14,2.5-1.2c0.84-0.07,1.54,0.23,2.12,0.9
		c1,1.16,1.04,2.7,0.11,4.62c1.04,0,1.83,0.29,2.34,0.88c0.45,0.52,0.63,1.11,0.53,1.75c-0.1,0.61-0.42,1.16-0.97,1.63
		c-0.5,0.44-1.03,0.67-1.57,0.7c-0.57,0.03-1.05-0.18-1.43-0.62c-0.72-0.83-0.8-1.85-0.25-3.07c-0.46,0.05-1.1,0.08-1.93,0.11
		c-0.77-0.05-1.48-0.16-2.16-0.32c0.17,0.79,0.47,1.66,0.87,2.62c0.07,0.16,0.14,0.3,0.23,0.4c0.2,0.23,0.51,0.28,0.92,0.13
		c0.19-0.06,0.32-0.05,0.4,0.04c0.1,0.11,0.02,0.23-0.22,0.36c-0.18,0.1-0.48,0.32-0.9,0.65c-0.39,0.32-0.65,0.54-0.77,0.67
		c-0.2,0.21-0.36,0.26-0.46,0.14c-0.08-0.09,0.02-0.3,0.3-0.63c0.14-0.18,0.23-0.32,0.24-0.44c0.02-0.12-0.02-0.3-0.13-0.53
		c-0.58-1.34-0.97-2.54-1.16-3.62c-0.15-0.04-0.38-0.13-0.71-0.25c-0.62-0.25-1.09-0.38-1.4-0.41c-0.36-0.03-0.66,0.07-0.92,0.29
		c-0.21,0.18-0.4,0.49-0.57,0.91C232.65,203.81,232.56,203.83,232.42,203.75z M250.68,196.48c-0.07-0.06-0.12-0.11-0.13-0.15
		c-0.02-0.04,0-0.09,0.04-0.18c0.09-0.18,0.23-0.24,0.42-0.17c0.7,0.26,1.24,0.34,1.62,0.24c0.52-0.15,1.12-0.65,1.79-1.51
		c0.27-0.35,0.39-0.57,0.33-0.66c-0.01-0.03-0.05-0.06-0.09-0.1l-6.25-4.91c-0.27-0.21-0.5-0.29-0.71-0.25
		c-0.2,0.04-0.5,0.22-0.88,0.52c-0.16,0.14-0.25,0.21-0.28,0.22c-0.09,0.03-0.18-0.01-0.29-0.13c-0.09-0.09-0.1-0.18-0.05-0.26
		c0-0.01,0.07-0.1,0.22-0.25c0.96-1.03,1.68-1.94,2.16-2.73c0.12-0.18,0.2-0.29,0.26-0.33c0.05-0.02,0.13-0.01,0.21,0.03
		c0.16,0.07,0.19,0.21,0.1,0.43c-0.19,0.43-0.27,0.76-0.24,0.99c0.03,0.26,0.22,0.51,0.54,0.77l6.09,4.78
		c0.12,0.1,0.25,0.08,0.39-0.06c0.02-0.01,0.12-0.14,0.3-0.37c0.62-0.79,0.95-1.49,0.97-2.08c0.02-0.44-0.16-0.99-0.53-1.65
		c-0.12-0.21-0.09-0.35,0.06-0.43c0.15-0.11,0.27-0.11,0.36,0.03c0.34,0.5,0.92,1.07,1.74,1.72c0.1,0.08,0.03,0.24-0.18,0.48
		c-0.77,0.86-1.59,1.83-2.45,2.93c-1.63,2.08-2.65,3.45-3.04,4.14c-0.15,0.26-0.29,0.36-0.41,0.29
		C252.08,197.52,251.4,197.07,250.68,196.48z M254.34,183.14c-0.78-0.45-1.24-1.09-1.38-1.93c-0.15-0.88,0.08-1.83,0.67-2.87
		c0.78-1.36,1.49-2.01,2.13-1.96c0.39,0.03,0.86,0.11,1.41,0.24c0.25,0.07,0.37,0.19,0.35,0.37c-0.02,0.23-0.14,0.36-0.36,0.37
		c-0.81,0.06-1.44,0.22-1.92,0.47c-0.45,0.25-0.83,0.63-1.12,1.14c-0.74,1.28-0.59,2.22,0.43,2.81c0.4,0.23,0.82,0.29,1.27,0.17
		c0.42-0.12,1.11-0.48,2.06-1.07c1.2-0.75,2.07-1.2,2.6-1.34c0.65-0.19,1.28-0.1,1.89,0.25c0.64,0.37,1.03,0.95,1.18,1.75
		c0.14,0.8-0.02,1.61-0.51,2.45c-0.34,0.59-0.74,1.12-1.21,1.59c-0.36,0.36-0.65,0.52-0.86,0.47c-0.44-0.1-0.95-0.29-1.52-0.57
		c-0.2-0.1-0.28-0.24-0.22-0.39c0.07-0.2,0.21-0.29,0.4-0.27c0.74,0.05,1.34-0.05,1.78-0.28c0.41-0.21,0.77-0.59,1.09-1.14
		c0.28-0.48,0.38-0.93,0.32-1.34c-0.06-0.41-0.3-0.74-0.72-0.98c-0.39-0.22-0.8-0.27-1.24-0.16c-0.41,0.11-1,0.42-1.76,0.92
		c-1.17,0.78-2.07,1.26-2.68,1.46C255.64,183.55,254.96,183.49,254.34,183.14z M262.01,171.94c0.87,0.01,2.22,0.02,4.06,0.03
		c0.1,0,0.16-0.02,0.18-0.07c0.02-0.05,0-0.11-0.07-0.18l-2.72-2.9c-0.28,0.5-0.56,1.07-0.85,1.72
		C262.43,170.93,262.23,171.4,262.01,171.94z M256.39,174.16c-0.12-0.09-0.18-0.16-0.19-0.2c-0.01-0.04,0.03-0.1,0.11-0.2
		c0.44-0.63,0.92-1.64,1.42-3.02c0.09-0.26,0.21-0.38,0.33-0.35c0.15,0.04,0.22,0.16,0.21,0.38c-0.02,0.62,0.05,0.97,0.24,1.05
		c0.07,0.03,0.19,0.05,0.35,0.05c1.02,0.03,1.85,0.04,2.48,0.04c0.14-0.35,0.4-0.96,0.79-1.83c0.33-0.72,0.62-1.32,0.89-1.8
		c-0.34-0.36-0.82-0.86-1.42-1.5c-0.14-0.15-0.28-0.25-0.41-0.31c-0.27-0.12-0.54-0.06-0.8,0.17c-0.4,0.37-0.65,0.52-0.75,0.47
		c-0.16-0.08-0.16-0.27,0.01-0.55c0.51-0.87,0.87-1.73,1.06-2.58c0.05-0.22,0.17-0.3,0.37-0.24c0.14,0.04,0.2,0.26,0.19,0.66
		c-0.01,0.43,0.2,0.89,0.63,1.38c1.62,1.87,2.7,3.09,3.22,3.65c1.25,1.37,2.3,2.41,3.15,3.13c0.13,0.1,0.18,0.36,0.16,0.77
		c-0.01,0.1-0.2,0.14-0.56,0.13c-2.99-0.09-6.22-0.13-9.68-0.13c-0.55,0-1.01,0.22-1.38,0.64
		C256.63,174.18,256.49,174.24,256.39,174.16z M271.07,165.15c-0.32-0.18-0.88-0.4-1.68-0.65c-0.16-0.05-0.22-0.14-0.18-0.29
		c0.04-0.14,0.14-0.23,0.29-0.24c0.42-0.05,0.72-0.12,0.9-0.22c0.22-0.11,0.38-0.3,0.5-0.56c0.13-0.28,0.36-1,0.69-2.16
		c0.08-0.26,0.09-0.44,0.06-0.54c-0.02-0.06-0.09-0.11-0.21-0.14l-3.47-0.98c-0.12-0.03-0.19,0.02-0.23,0.17
		c-0.12,0.46-0.28,1.13-0.47,2.01c-0.03,0.17-0.01,0.3,0.07,0.39c0.07,0.09,0.29,0.21,0.64,0.37c0.2,0.09,0.24,0.23,0.13,0.43
		c-0.09,0.16-0.19,0.22-0.3,0.16c-0.65-0.34-1.53-0.64-2.66-0.91c-0.13-0.03-0.18-0.14-0.14-0.31c0.02-0.15,0.13-0.21,0.31-0.2
		c0.67,0.05,1.08-0.1,1.22-0.45c0.15-0.35,0.33-0.93,0.57-1.74c0.03-0.09,0.01-0.15-0.06-0.17l-3.46-0.98
		c-0.26-0.07-0.46-0.03-0.6,0.13c-0.12,0.13-0.28,0.43-0.48,0.9c-0.1,0.24-0.24,0.32-0.43,0.23c-0.16-0.08-0.17-0.33-0.01-0.73
		c0.44-1.19,0.72-2.19,0.84-3.01c0.03-0.23,0.15-0.31,0.36-0.25c0.14,0.04,0.18,0.17,0.14,0.4c-0.09,0.52,0.28,0.89,1.11,1.13
		l6.57,1.87c0.34,0.1,0.61,0.11,0.83,0.04c0.21-0.07,0.44-0.25,0.69-0.53c0.15-0.18,0.3-0.22,0.44-0.12
		c0.09,0.05,0.13,0.11,0.13,0.17c0,0.06-0.05,0.19-0.15,0.4c-0.14,0.31-0.39,1.06-0.73,2.26c-0.4,1.41-0.72,2.64-0.95,3.69
		c-0.08,0.35-0.15,0.51-0.23,0.49C271.11,165.17,271.09,165.16,271.07,165.15z M273.93,118.25c-0.13,0.03-0.27-0.07-0.43-0.33
		c-0.35-0.57-0.79-0.77-1.33-0.62l-5.52,1.57c-1.17,0.33-2.1,0.61-2.8,0.84c-0.27,0.09-0.44,0.07-0.52-0.06
		c-0.12-0.21-0.06-0.44,0.19-0.69c0.41-0.4,1.33-1.74,2.74-4.04c1.18-1.92,2.26-3.76,3.26-5.52c0.03-0.06,0.03-0.11,0-0.15
		c-0.04-0.04-0.11-0.05-0.2-0.02l-6.29,1.79c-0.68,0.19-0.98,0.65-0.91,1.37c0.02,0.3-0.03,0.47-0.18,0.51
		c-0.19,0.05-0.33-0.08-0.4-0.4c-0.29-1.23-0.56-2.18-0.81-2.84c-0.08-0.22-0.02-0.35,0.18-0.41c0.11-0.03,0.22,0.06,0.32,0.26
		c0.2,0.37,0.4,0.6,0.6,0.68c0.2,0.09,0.48,0.08,0.86-0.03l6.79-1.93c0.3-0.08,0.51-0.21,0.63-0.38c0.11-0.16,0.19-0.43,0.25-0.81
		c0.05-0.28,0.13-0.44,0.26-0.46c0.14-0.02,0.23,0.08,0.26,0.3c0.1,0.69,0.24,1.27,0.43,1.74c0.1,0.24,0.06,0.5-0.1,0.76l-5.03,8.38
		c-0.07,0.12-0.11,0.19-0.1,0.22c0.01,0.04,0.09,0.04,0.22,0.01l5.55-1.58c0.65-0.18,0.94-0.63,0.86-1.35
		c-0.03-0.25,0.01-0.39,0.11-0.42c0.21-0.06,0.34,0.02,0.37,0.25c0.15,0.86,0.42,1.8,0.83,2.8c0.07,0.17,0.11,0.29,0.11,0.34
		C274.14,118.14,274.07,118.2,273.93,118.25z M263.9,104.03c1.41-0.64,2.35-1.53,2.82-2.67c0.45-1.1,0.4-2.26-0.15-3.47
		c-0.46-1.01-1.2-1.67-2.24-1.98c-1.04-0.31-2.15-0.2-3.34,0.34c-1.43,0.65-2.39,1.53-2.87,2.65c-0.47,1.09-0.41,2.27,0.16,3.52
		c0.46,1.01,1.2,1.67,2.24,1.97C261.56,104.71,262.69,104.58,263.9,104.03z M264.82,105.39c-1.4,0.63-2.82,0.65-4.27,0.05
		c-1.42-0.58-2.45-1.59-3.1-3.02c-0.68-1.5-0.79-2.96-0.34-4.36c0.47-1.44,1.44-2.49,2.92-3.16c1.43-0.65,2.86-0.67,4.29-0.08
		c1.41,0.59,2.45,1.62,3.11,3.08c0.67,1.49,0.77,2.94,0.29,4.35C267.24,103.7,266.27,104.74,264.82,105.39z M255.96,94.62
		c-0.67,0.21-1.26,0.48-1.76,0.8c-0.09,0.05-0.21-0.07-0.38-0.36c-0.42-0.73-0.96-1.62-1.63-2.66c-0.71-1.11-1.37-2.09-1.97-2.93
		c-0.09-0.13-0.13-0.21-0.12-0.26c0.01-0.05,0.07-0.11,0.18-0.18c0.12-0.08,0.25-0.02,0.39,0.16c0.33,0.41,0.7,0.48,1.13,0.21
		l6.19-3.97c0.31-0.2,0.52-0.39,0.62-0.58c0.11-0.22,0.12-0.5,0.04-0.86c-0.05-0.22,0-0.36,0.16-0.42c0.11-0.05,0.19-0.06,0.23-0.03
		c0.05,0.04,0.12,0.15,0.22,0.36c0.35,0.7,0.86,1.47,1.52,2.33c0.12,0.15,0.18,0.24,0.19,0.27c0.04,0.1,0.02,0.19-0.08,0.27
		c-0.11,0.09-0.22,0.12-0.3,0.07c-0.04-0.01-0.12-0.09-0.26-0.22c-0.27-0.27-0.48-0.41-0.62-0.43c-0.14-0.02-0.37,0.06-0.66,0.25
		L253,90.28c-0.38,0.24-0.55,0.53-0.53,0.87c0.03,0.34,0.25,0.85,0.68,1.51c0.41,0.64,0.79,1.06,1.15,1.26
		c0.36,0.2,0.83,0.26,1.4,0.16c0.23-0.04,0.36,0.03,0.4,0.22C256.16,94.47,256.11,94.57,255.96,94.62z M249.81,81.58
		c0.37-0.79,0.95-2.01,1.73-3.67c0.04-0.09,0.04-0.16,0.01-0.2c-0.04-0.04-0.1-0.04-0.19-0.01l-3.78,1.26
		c0.34,0.46,0.74,0.96,1.2,1.49C249.07,80.78,249.41,81.16,249.81,81.58z M249.47,87.61c-0.13,0.07-0.22,0.1-0.26,0.09
		c-0.04-0.01-0.08-0.07-0.13-0.18c-0.39-0.67-1.11-1.52-2.15-2.56c-0.2-0.2-0.26-0.34-0.18-0.45c0.09-0.12,0.24-0.13,0.44-0.03
		c0.55,0.28,0.9,0.36,1.06,0.22c0.06-0.05,0.13-0.15,0.2-0.3c0.46-0.91,0.81-1.66,1.08-2.23c-0.26-0.27-0.71-0.77-1.33-1.49
		c-0.52-0.6-0.94-1.12-1.27-1.56c-0.47,0.16-1.12,0.38-1.96,0.66c-0.19,0.07-0.34,0.15-0.45,0.25c-0.22,0.19-0.28,0.46-0.18,0.8
		c0.17,0.52,0.2,0.81,0.11,0.87c-0.14,0.11-0.31,0.03-0.49-0.24c-0.57-0.83-1.2-1.51-1.89-2.04c-0.18-0.14-0.2-0.28-0.07-0.44
		c0.09-0.11,0.32-0.07,0.68,0.1c0.38,0.19,0.89,0.19,1.52,0.01c2.38-0.69,3.93-1.15,4.67-1.39c1.77-0.56,3.15-1.07,4.16-1.54
		c0.15-0.08,0.4-0.02,0.76,0.18c0.08,0.05,0.04,0.24-0.12,0.56c-1.34,2.68-2.73,5.59-4.18,8.73c-0.23,0.5-0.23,1.01,0,1.52
		C249.59,87.4,249.59,87.55,249.47,87.61z"/>
	<path class="st3" d="M91.08,151.54c0.12-0.03,0.26,0.09,0.41,0.35c0.32,0.58,0.75,0.81,1.3,0.68l5.6-1.29
		c1.18-0.27,2.13-0.51,2.84-0.7c0.27-0.07,0.44-0.05,0.51,0.09c0.11,0.22,0.04,0.44-0.23,0.68c-0.43,0.37-1.41,1.67-2.94,3.89
		c-1.27,1.86-2.45,3.64-3.53,5.35c-0.04,0.06-0.04,0.11-0.01,0.15c0.04,0.05,0.1,0.05,0.2,0.03l6.37-1.47
		c0.68-0.16,1.01-0.6,0.98-1.32c-0.01-0.3,0.06-0.47,0.2-0.5c0.2-0.05,0.32,0.09,0.38,0.42c0.23,1.25,0.45,2.2,0.66,2.88
		c0.07,0.22,0,0.35-0.2,0.4c-0.11,0.03-0.21-0.07-0.31-0.28c-0.19-0.38-0.37-0.61-0.57-0.71c-0.19-0.1-0.48-0.1-0.86-0.01
		l-6.88,1.59c-0.3,0.07-0.52,0.18-0.65,0.35c-0.12,0.15-0.21,0.42-0.29,0.8c-0.06,0.28-0.15,0.43-0.28,0.45
		c-0.14,0.02-0.23-0.09-0.25-0.31c-0.06-0.69-0.18-1.28-0.34-1.76c-0.08-0.25-0.04-0.5,0.13-0.76l5.44-8.12
		c0.08-0.11,0.12-0.18,0.11-0.21c-0.01-0.04-0.08-0.05-0.23-0.02l-5.63,1.3c-0.66,0.15-0.97,0.59-0.93,1.3
		c0.02,0.25-0.03,0.39-0.13,0.42c-0.22,0.05-0.34-0.04-0.36-0.27c-0.1-0.87-0.33-1.82-0.69-2.84c-0.06-0.18-0.09-0.29-0.09-0.35
		C90.86,151.63,90.94,151.57,91.08,151.54z M100.6,166.31c-1.44,0.57-2.43,1.41-2.95,2.53c-0.5,1.07-0.51,2.23-0.02,3.48
		c0.41,1.03,1.12,1.73,2.14,2.09c1.02,0.36,2.14,0.3,3.36-0.18c1.46-0.58,2.46-1.41,2.99-2.51c0.52-1.07,0.52-2.25,0.02-3.53
		c-0.41-1.04-1.12-1.73-2.14-2.08C102.97,165.75,101.84,165.82,100.6,166.31z M99.75,164.9c1.43-0.56,2.85-0.51,4.27,0.16
		c1.39,0.65,2.37,1.71,2.95,3.17c0.61,1.54,0.64,2.99,0.13,4.37c-0.54,1.41-1.56,2.42-3.07,3.01c-1.46,0.57-2.89,0.53-4.29-0.13
		c-1.38-0.66-2.36-1.73-2.95-3.23c-0.6-1.52-0.63-2.98-0.08-4.36C97.25,166.48,98.27,165.49,99.75,164.9z M108.07,176.01
		c0.68-0.18,1.28-0.42,1.8-0.71c0.09-0.05,0.21,0.08,0.36,0.38c0.38,0.75,0.88,1.66,1.5,2.74c0.66,1.14,1.27,2.15,1.83,3.02
		c0.09,0.13,0.12,0.22,0.11,0.27c-0.01,0.05-0.07,0.11-0.19,0.17c-0.12,0.07-0.25,0.01-0.38-0.18c-0.31-0.43-0.68-0.51-1.11-0.26
		l-6.38,3.66c-0.32,0.19-0.54,0.37-0.64,0.55c-0.12,0.21-0.15,0.5-0.08,0.86c0.04,0.22-0.02,0.36-0.18,0.42
		c-0.11,0.05-0.19,0.05-0.23,0.01c-0.05-0.04-0.11-0.16-0.2-0.37c-0.32-0.71-0.78-1.51-1.41-2.4c-0.11-0.16-0.17-0.25-0.18-0.28
		c-0.04-0.1-0.01-0.19,0.09-0.26c0.12-0.09,0.22-0.1,0.31-0.06c0.04,0.02,0.12,0.1,0.25,0.24c0.26,0.28,0.46,0.43,0.6,0.46
		c0.14,0.03,0.37-0.04,0.67-0.22l6.2-3.56c0.39-0.22,0.58-0.5,0.57-0.85c-0.01-0.34-0.21-0.86-0.61-1.54
		c-0.38-0.65-0.74-1.09-1.09-1.31c-0.35-0.22-0.81-0.3-1.39-0.23c-0.23,0.03-0.35-0.05-0.38-0.24
		C107.86,176.15,107.92,176.05,108.07,176.01z M113.88,189.29c-0.41,0.77-1.04,1.96-1.9,3.58c-0.04,0.09-0.05,0.16-0.02,0.2
		c0.03,0.04,0.1,0.05,0.19,0.02l3.83-1.07c-0.32-0.47-0.69-0.99-1.13-1.55C114.58,190.13,114.26,189.74,113.88,189.29z
		 M114.51,183.28c0.13-0.06,0.22-0.09,0.27-0.08c0.04,0.01,0.08,0.07,0.13,0.18c0.36,0.69,1.03,1.57,2.02,2.65
		c0.19,0.21,0.24,0.36,0.15,0.46c-0.1,0.11-0.25,0.12-0.43,0.01c-0.54-0.31-0.89-0.4-1.04-0.27c-0.06,0.05-0.13,0.15-0.21,0.29
		c-0.5,0.89-0.89,1.62-1.18,2.18c0.25,0.28,0.67,0.8,1.26,1.55c0.49,0.62,0.88,1.16,1.19,1.62c0.47-0.14,1.14-0.33,1.99-0.57
		c0.19-0.06,0.35-0.13,0.47-0.22c0.23-0.18,0.31-0.45,0.21-0.79c-0.14-0.53-0.17-0.82-0.07-0.88c0.15-0.1,0.31-0.02,0.48,0.26
		c0.53,0.85,1.13,1.56,1.8,2.13c0.18,0.15,0.19,0.29,0.04,0.44c-0.09,0.1-0.32,0.06-0.67-0.13c-0.37-0.21-0.88-0.23-1.52-0.08
		c-2.41,0.58-3.98,0.97-4.73,1.17c-1.79,0.47-3.2,0.92-4.23,1.34c-0.15,0.07-0.4,0-0.75-0.22c-0.08-0.05-0.03-0.24,0.15-0.56
		c1.46-2.61,2.99-5.45,4.59-8.52c0.25-0.49,0.28-1,0.07-1.53C114.38,183.49,114.39,183.34,114.51,183.28z M121.02,195.48
		c0.62-0.65,1.36-0.94,2.21-0.88c0.89,0.07,1.76,0.51,2.62,1.33c1.14,1.08,1.6,1.93,1.4,2.53c-0.12,0.37-0.31,0.8-0.57,1.31
		c-0.12,0.23-0.27,0.31-0.45,0.25c-0.22-0.08-0.31-0.22-0.27-0.44c0.13-0.8,0.13-1.45,0-1.98c-0.13-0.5-0.41-0.96-0.84-1.36
		c-1.07-1.02-2.01-1.1-2.83-0.25c-0.32,0.33-0.47,0.73-0.46,1.19c0.02,0.44,0.2,1.19,0.55,2.25c0.44,1.35,0.67,2.29,0.69,2.84
		c0.03,0.68-0.2,1.27-0.68,1.77c-0.51,0.53-1.17,0.78-1.98,0.73c-0.81-0.05-1.56-0.41-2.26-1.07c-0.49-0.47-0.91-0.99-1.26-1.56
		c-0.26-0.44-0.35-0.75-0.25-0.94c0.2-0.41,0.51-0.85,0.91-1.34c0.15-0.17,0.29-0.21,0.43-0.12c0.17,0.12,0.23,0.27,0.17,0.46
		c-0.22,0.71-0.27,1.31-0.15,1.79c0.11,0.45,0.39,0.89,0.85,1.33c0.4,0.38,0.81,0.59,1.23,0.63c0.41,0.04,0.79-0.12,1.12-0.47
		c0.31-0.32,0.46-0.71,0.45-1.17c-0.01-0.43-0.17-1.07-0.48-1.93c-0.47-1.32-0.74-2.31-0.78-2.95
		C120.31,196.65,120.53,195.99,121.02,195.48z M132.46,202.64c0.14-0.18,0.28-0.2,0.44-0.06c0.72,0.64,1.65,1.24,2.76,1.79
		c0.16,0.08,0.25,0.13,0.28,0.17c0.05,0.07,0.04,0.17-0.05,0.29c-0.08,0.11-0.25,0.13-0.51,0.06c-0.26-0.07-0.46-0.01-0.58,0.18
		c-0.07,0.1-0.09,0.23-0.08,0.38c0.1,1.24,0.18,2.53,0.25,3.86c1.64-0.51,2.73-0.9,3.28-1.18c0.24-0.12,0.41-0.26,0.5-0.4
		c0.14-0.22,0.11-0.47-0.1-0.75c-0.14-0.2-0.17-0.36-0.07-0.48c0.11-0.15,0.29-0.12,0.54,0.09c0.76,0.63,1.54,1.15,2.35,1.54
		c0.13,0.06,0.2,0.11,0.22,0.16c0.02,0.04,0,0.12-0.07,0.23c-0.1,0.15-0.31,0.19-0.62,0.1c-0.51-0.14-1.12-0.1-1.81,0.14
		c-0.33,0.11-1.73,0.53-4.18,1.28c0.04,1.18,0.07,1.99,0.1,2.42c0.05,0.93,0.11,1.72,0.2,2.36c0.07,0.59,0.33,1.11,0.76,1.56
		c0.18,0.18,0.25,0.32,0.19,0.4c-0.12,0.19-0.27,0.21-0.44,0.08c-0.74-0.58-1.69-1.13-2.86-1.64c-0.17-0.07-0.27-0.13-0.3-0.16
		c-0.06-0.07-0.04-0.16,0.04-0.29c0.07-0.11,0.24-0.14,0.51-0.08c0.3,0.07,0.51,0.02,0.6-0.13c0.07-0.11,0.1-0.28,0.08-0.54
		c-0.07-1.45-0.11-2.64-0.13-3.56c-1.66,0.53-2.7,0.91-3.11,1.16c-0.22,0.14-0.39,0.28-0.48,0.42c-0.15,0.23-0.12,0.47,0.06,0.72
		c0.15,0.21,0.18,0.38,0.09,0.5c-0.11,0.15-0.29,0.12-0.53-0.09c-0.81-0.68-1.6-1.2-2.36-1.55c-0.21-0.1-0.26-0.23-0.16-0.39
		c0.09-0.14,0.32-0.17,0.68-0.1c0.57,0.12,1.16,0.07,1.77-0.13c1.59-0.52,2.92-0.95,4-1.29c-0.05-2-0.19-3.69-0.39-5.05
		c-0.11-0.7-0.34-1.24-0.68-1.62C132.46,202.85,132.4,202.71,132.46,202.64z M142.58,211.09c0.4-0.51,0.75-1.05,1.06-1.62
		c0.05-0.09,0.21-0.06,0.5,0.09c0.74,0.38,1.69,0.83,2.87,1.36c1.29,0.58,2.41,1.06,3.36,1.43c0.21,0.08,0.28,0.22,0.2,0.4
		c-0.06,0.13-0.2,0.15-0.41,0.08c-0.31-0.1-0.52-0.13-0.64-0.09c-0.15,0.05-0.29,0.23-0.43,0.54l-3.03,6.7
		c-0.2,0.45-0.29,0.75-0.26,0.91c0.03,0.16,0.2,0.37,0.53,0.66c0.17,0.15,0.19,0.3,0.06,0.45c-0.06,0.08-0.13,0.11-0.18,0.1
		c-0.06-0.01-0.18-0.08-0.37-0.2c-0.29-0.19-1.09-0.58-2.4-1.18c-1.31-0.59-2.45-1.07-3.42-1.44c-0.32-0.12-0.47-0.22-0.44-0.28
		c0.01-0.02,0.03-0.05,0.05-0.06c0.32-0.43,0.61-0.95,0.87-1.57c0.06-0.15,0.17-0.2,0.31-0.13c0.14,0.06,0.2,0.17,0.19,0.32
		c-0.02,0.4,0,0.68,0.05,0.85c0.07,0.25,0.25,0.47,0.52,0.65c0.21,0.15,1.03,0.54,2.44,1.18c0.16,0.07,0.28,0.09,0.34,0.06
		c0.04-0.02,0.08-0.09,0.13-0.2l1.37-3.04c0.06-0.12,0.01-0.21-0.13-0.28c-0.45-0.19-1.11-0.45-1.97-0.78
		c-0.15-0.05-0.29-0.03-0.41,0.07c-0.1,0.07-0.24,0.25-0.44,0.53c-0.14,0.19-0.29,0.21-0.44,0.07c-0.15-0.11-0.19-0.21-0.11-0.32
		c0.43-0.59,0.86-1.43,1.29-2.5c0.05-0.12,0.16-0.15,0.33-0.1c0.15,0.05,0.2,0.16,0.15,0.35c-0.12,0.39-0.17,0.66-0.14,0.81
		c0.02,0.15,0.13,0.28,0.33,0.4c0.38,0.23,0.97,0.53,1.77,0.89c0.09,0.04,0.15,0.02,0.18-0.04l1.43-3.17
		c0.2-0.45,0.07-0.85-0.41-1.18c-0.12-0.08-0.57-0.3-1.35-0.65c-1.21-0.55-2.15-0.46-2.83,0.24c-0.16,0.17-0.31,0.18-0.44,0.04
		C142.5,211.33,142.48,211.21,142.58,211.09z"/>
	<path class="st21" d="M91.08,151.54c0.12-0.03,0.26,0.09,0.41,0.35c0.32,0.58,0.75,0.81,1.3,0.68l5.6-1.29
		c1.18-0.27,2.13-0.51,2.84-0.7c0.27-0.07,0.44-0.05,0.51,0.09c0.11,0.22,0.04,0.44-0.23,0.68c-0.43,0.37-1.41,1.67-2.94,3.89
		c-1.27,1.86-2.45,3.64-3.53,5.35c-0.04,0.06-0.04,0.11-0.01,0.15c0.04,0.05,0.1,0.05,0.2,0.03l6.37-1.47
		c0.68-0.16,1.01-0.6,0.98-1.32c-0.01-0.3,0.06-0.47,0.2-0.5c0.2-0.05,0.32,0.09,0.38,0.42c0.23,1.25,0.45,2.2,0.66,2.88
		c0.07,0.22,0,0.35-0.2,0.4c-0.11,0.03-0.21-0.07-0.31-0.28c-0.19-0.38-0.37-0.61-0.57-0.71c-0.19-0.1-0.48-0.1-0.86-0.01
		l-6.88,1.59c-0.3,0.07-0.52,0.18-0.65,0.35c-0.12,0.15-0.21,0.42-0.29,0.8c-0.06,0.28-0.15,0.43-0.28,0.45
		c-0.14,0.02-0.23-0.09-0.25-0.31c-0.06-0.69-0.18-1.28-0.34-1.76c-0.08-0.25-0.04-0.5,0.13-0.76l5.44-8.12
		c0.08-0.11,0.12-0.18,0.11-0.21c-0.01-0.04-0.08-0.05-0.23-0.02l-5.63,1.3c-0.66,0.15-0.97,0.59-0.93,1.3
		c0.02,0.25-0.03,0.39-0.13,0.42c-0.22,0.05-0.34-0.04-0.36-0.27c-0.1-0.87-0.33-1.82-0.69-2.84c-0.06-0.18-0.09-0.29-0.09-0.35
		C90.86,151.63,90.94,151.57,91.08,151.54z M100.6,166.31c-1.44,0.57-2.43,1.41-2.95,2.53c-0.5,1.07-0.51,2.23-0.02,3.48
		c0.41,1.03,1.12,1.73,2.14,2.09c1.02,0.36,2.14,0.3,3.36-0.18c1.46-0.58,2.46-1.41,2.99-2.51c0.52-1.07,0.52-2.25,0.02-3.53
		c-0.41-1.04-1.12-1.73-2.14-2.08C102.97,165.75,101.84,165.82,100.6,166.31z M99.75,164.9c1.43-0.56,2.85-0.51,4.27,0.16
		c1.39,0.65,2.37,1.71,2.95,3.17c0.61,1.54,0.64,2.99,0.13,4.37c-0.54,1.41-1.56,2.42-3.07,3.01c-1.46,0.57-2.89,0.53-4.29-0.13
		c-1.38-0.66-2.36-1.73-2.95-3.23c-0.6-1.52-0.63-2.98-0.08-4.36C97.25,166.48,98.27,165.49,99.75,164.9z M108.07,176.01
		c0.68-0.18,1.28-0.42,1.8-0.71c0.09-0.05,0.21,0.08,0.36,0.38c0.38,0.75,0.88,1.66,1.5,2.74c0.66,1.14,1.27,2.15,1.83,3.02
		c0.09,0.13,0.12,0.22,0.11,0.27c-0.01,0.05-0.07,0.11-0.19,0.17c-0.12,0.07-0.25,0.01-0.38-0.18c-0.31-0.43-0.68-0.51-1.11-0.26
		l-6.38,3.66c-0.32,0.19-0.54,0.37-0.64,0.55c-0.12,0.21-0.15,0.5-0.08,0.86c0.04,0.22-0.02,0.36-0.18,0.42
		c-0.11,0.05-0.19,0.05-0.23,0.01c-0.05-0.04-0.11-0.16-0.2-0.37c-0.32-0.71-0.78-1.51-1.41-2.4c-0.11-0.16-0.17-0.25-0.18-0.28
		c-0.04-0.1-0.01-0.19,0.09-0.26c0.12-0.09,0.22-0.1,0.31-0.06c0.04,0.02,0.12,0.1,0.25,0.24c0.26,0.28,0.46,0.43,0.6,0.46
		c0.14,0.03,0.37-0.04,0.67-0.22l6.2-3.56c0.39-0.22,0.58-0.5,0.57-0.85c-0.01-0.34-0.21-0.86-0.61-1.54
		c-0.38-0.65-0.74-1.09-1.09-1.31c-0.35-0.22-0.81-0.3-1.39-0.23c-0.23,0.03-0.35-0.05-0.38-0.24
		C107.86,176.15,107.92,176.05,108.07,176.01z M113.88,189.29c-0.41,0.77-1.04,1.96-1.9,3.58c-0.04,0.09-0.05,0.16-0.02,0.2
		c0.03,0.04,0.1,0.05,0.19,0.02l3.83-1.07c-0.32-0.47-0.69-0.99-1.13-1.55C114.58,190.13,114.26,189.74,113.88,189.29z
		 M114.51,183.28c0.13-0.06,0.22-0.09,0.27-0.08c0.04,0.01,0.08,0.07,0.13,0.18c0.36,0.69,1.03,1.57,2.02,2.65
		c0.19,0.21,0.24,0.36,0.15,0.46c-0.1,0.11-0.25,0.12-0.43,0.01c-0.54-0.31-0.89-0.4-1.04-0.27c-0.06,0.05-0.13,0.15-0.21,0.29
		c-0.5,0.89-0.89,1.62-1.18,2.18c0.25,0.28,0.67,0.8,1.26,1.55c0.49,0.62,0.88,1.16,1.19,1.62c0.47-0.14,1.14-0.33,1.99-0.57
		c0.19-0.06,0.35-0.13,0.47-0.22c0.23-0.18,0.31-0.45,0.21-0.79c-0.14-0.53-0.17-0.82-0.07-0.88c0.15-0.1,0.31-0.02,0.48,0.26
		c0.53,0.85,1.13,1.56,1.8,2.13c0.18,0.15,0.19,0.29,0.04,0.44c-0.09,0.1-0.32,0.06-0.67-0.13c-0.37-0.21-0.88-0.23-1.52-0.08
		c-2.41,0.58-3.98,0.97-4.73,1.17c-1.79,0.47-3.2,0.92-4.23,1.34c-0.15,0.07-0.4,0-0.75-0.22c-0.08-0.05-0.03-0.24,0.15-0.56
		c1.46-2.61,2.99-5.45,4.59-8.52c0.25-0.49,0.28-1,0.07-1.53C114.38,183.49,114.39,183.34,114.51,183.28z M121.02,195.48
		c0.62-0.65,1.36-0.94,2.21-0.88c0.89,0.07,1.76,0.51,2.62,1.33c1.14,1.08,1.6,1.93,1.4,2.53c-0.12,0.37-0.31,0.8-0.57,1.31
		c-0.12,0.23-0.27,0.31-0.45,0.25c-0.22-0.08-0.31-0.22-0.27-0.44c0.13-0.8,0.13-1.45,0-1.98c-0.13-0.5-0.41-0.96-0.84-1.36
		c-1.07-1.02-2.01-1.1-2.83-0.25c-0.32,0.33-0.47,0.73-0.46,1.19c0.02,0.44,0.2,1.19,0.55,2.25c0.44,1.35,0.67,2.29,0.69,2.84
		c0.03,0.68-0.2,1.27-0.68,1.77c-0.51,0.53-1.17,0.78-1.98,0.73c-0.81-0.05-1.56-0.41-2.26-1.07c-0.49-0.47-0.91-0.99-1.26-1.56
		c-0.26-0.44-0.35-0.75-0.25-0.94c0.2-0.41,0.51-0.85,0.91-1.34c0.15-0.17,0.29-0.21,0.43-0.12c0.17,0.12,0.23,0.27,0.17,0.46
		c-0.22,0.71-0.27,1.31-0.15,1.79c0.11,0.45,0.39,0.89,0.85,1.33c0.4,0.38,0.81,0.59,1.23,0.63c0.41,0.04,0.79-0.12,1.12-0.47
		c0.31-0.32,0.46-0.71,0.45-1.17c-0.01-0.43-0.17-1.07-0.48-1.93c-0.47-1.32-0.74-2.31-0.78-2.95
		C120.31,196.65,120.53,195.99,121.02,195.48z M132.46,202.64c0.14-0.18,0.28-0.2,0.44-0.06c0.72,0.64,1.65,1.24,2.76,1.79
		c0.16,0.08,0.25,0.13,0.28,0.17c0.05,0.07,0.04,0.17-0.05,0.29c-0.08,0.11-0.25,0.13-0.51,0.06c-0.26-0.07-0.46-0.01-0.58,0.18
		c-0.07,0.1-0.09,0.23-0.08,0.38c0.1,1.24,0.18,2.53,0.25,3.86c1.64-0.51,2.73-0.9,3.28-1.18c0.24-0.12,0.41-0.26,0.5-0.4
		c0.14-0.22,0.11-0.47-0.1-0.75c-0.14-0.2-0.17-0.36-0.07-0.48c0.11-0.15,0.29-0.12,0.54,0.09c0.76,0.63,1.54,1.15,2.35,1.54
		c0.13,0.06,0.2,0.11,0.22,0.16c0.02,0.04,0,0.12-0.07,0.23c-0.1,0.15-0.31,0.19-0.62,0.1c-0.51-0.14-1.12-0.1-1.81,0.14
		c-0.33,0.11-1.73,0.53-4.18,1.28c0.04,1.18,0.07,1.99,0.1,2.42c0.05,0.93,0.11,1.72,0.2,2.36c0.07,0.59,0.33,1.11,0.76,1.56
		c0.18,0.18,0.25,0.32,0.19,0.4c-0.12,0.19-0.27,0.21-0.44,0.08c-0.74-0.58-1.69-1.13-2.86-1.64c-0.17-0.07-0.27-0.13-0.3-0.16
		c-0.06-0.07-0.04-0.16,0.04-0.29c0.07-0.11,0.24-0.14,0.51-0.08c0.3,0.07,0.51,0.02,0.6-0.13c0.07-0.11,0.1-0.28,0.08-0.54
		c-0.07-1.45-0.11-2.64-0.13-3.56c-1.66,0.53-2.7,0.91-3.11,1.16c-0.22,0.14-0.39,0.28-0.48,0.42c-0.15,0.23-0.12,0.47,0.06,0.72
		c0.15,0.21,0.18,0.38,0.09,0.5c-0.11,0.15-0.29,0.12-0.53-0.09c-0.81-0.68-1.6-1.2-2.36-1.55c-0.21-0.1-0.26-0.23-0.16-0.39
		c0.09-0.14,0.32-0.17,0.68-0.1c0.57,0.12,1.16,0.07,1.77-0.13c1.59-0.52,2.92-0.95,4-1.29c-0.05-2-0.19-3.69-0.39-5.05
		c-0.11-0.7-0.34-1.24-0.68-1.62C132.46,202.85,132.4,202.71,132.46,202.64z M142.58,211.09c0.4-0.51,0.75-1.05,1.06-1.62
		c0.05-0.09,0.21-0.06,0.5,0.09c0.74,0.38,1.69,0.83,2.87,1.36c1.29,0.58,2.41,1.06,3.36,1.43c0.21,0.08,0.28,0.22,0.2,0.4
		c-0.06,0.13-0.2,0.15-0.41,0.08c-0.31-0.1-0.52-0.13-0.64-0.09c-0.15,0.05-0.29,0.23-0.43,0.54l-3.03,6.7
		c-0.2,0.45-0.29,0.75-0.26,0.91c0.03,0.16,0.2,0.37,0.53,0.66c0.17,0.15,0.19,0.3,0.06,0.45c-0.06,0.08-0.13,0.11-0.18,0.1
		c-0.06-0.01-0.18-0.08-0.37-0.2c-0.29-0.19-1.09-0.58-2.4-1.18c-1.31-0.59-2.45-1.07-3.42-1.44c-0.32-0.12-0.47-0.22-0.44-0.28
		c0.01-0.02,0.03-0.05,0.05-0.06c0.32-0.43,0.61-0.95,0.87-1.57c0.06-0.15,0.17-0.2,0.31-0.13c0.14,0.06,0.2,0.17,0.19,0.32
		c-0.02,0.4,0,0.68,0.05,0.85c0.07,0.25,0.25,0.47,0.52,0.65c0.21,0.15,1.03,0.54,2.44,1.18c0.16,0.07,0.28,0.09,0.34,0.06
		c0.04-0.02,0.08-0.09,0.13-0.2l1.37-3.04c0.06-0.12,0.01-0.21-0.13-0.28c-0.45-0.19-1.11-0.45-1.97-0.78
		c-0.15-0.05-0.29-0.03-0.41,0.07c-0.1,0.07-0.24,0.25-0.44,0.53c-0.14,0.19-0.29,0.21-0.44,0.07c-0.15-0.11-0.19-0.21-0.11-0.32
		c0.43-0.59,0.86-1.43,1.29-2.5c0.05-0.12,0.16-0.15,0.33-0.1c0.15,0.05,0.2,0.16,0.15,0.35c-0.12,0.39-0.17,0.66-0.14,0.81
		c0.02,0.15,0.13,0.28,0.33,0.4c0.38,0.23,0.97,0.53,1.77,0.89c0.09,0.04,0.15,0.02,0.18-0.04l1.43-3.17
		c0.2-0.45,0.07-0.85-0.41-1.18c-0.12-0.08-0.57-0.3-1.35-0.65c-1.21-0.55-2.15-0.46-2.83,0.24c-0.16,0.17-0.31,0.18-0.44,0.04
		C142.5,211.33,142.48,211.21,142.58,211.09z"/>
	<path class="st22" d="M152.62,146.46l7.09-0.24c0.36-1.33,0.13-11.56,0.13-13.86c0-2.45-0.32-12.63,0.17-14.19
		c2.88-0.24,7.32,0.09,9.59-0.05c0.29-0.02,0.39-0.02,0.67-0.09c0.55-0.15,0.21,0.01,0.55-0.25l-0.36-0.15
		c-0.94-0.24-3.98-0.14-5.02-0.13c-1.64,0.01-3.9,0.16-5.46-0.07c-0.92-4.14,0.21-17.84-0.17-22.73c-0.23-2.98-1.54-3.41-2.9-4.92
		c7.13-0.36,19.6-0.02,27.99-0.12l3.23-0.06c0.47-0.17,0.17-0.05,0.38-0.27c-1.2-0.67-31.57-0.21-35.69-0.21
		c-0.47,2.47-0.35,43.78-0.22,50.06C152.65,141.58,152.42,144.12,152.62,146.46"/>
	<path class="st22" d="M178.83,113.64l0.04,48.78c2.25,0.11,5.06,0.31,7.05-0.1l-0.02-26.58c-0.01-1.58-0.18-1.61,1.41-1.63
		c1.93-0.02,8.98,0.14,9.73-0.29c-0.43-0.42-0.82-0.36-1.91-0.36c-0.73,0-1.47-0.01-2.2-0.01l-6.67,0.02
		c-0.63-1.64-0.41-20.42-0.36-22.27c0.05-1.72,0.02-2.14-0.75-3.4c-0.82-1.33-1.39-1.17-1.99-2.16c3.21,0,30.85,0.21,31.6-0.27
		c-0.61-0.58-4.46-0.32-6.01-0.34l-29.9-0.01L178.83,113.64z"/>
	<path class="st22" d="M223.76,170.45l-0.17,4.23c3.72-0.46,6.51-3.74,3.27-4.5C225.73,169.92,224.56,170.11,223.76,170.45
		 M223.66,175.64c-0.1,1.47-0.57,5.61,0.53,6.19c1.79,0.95,4.37-0.23,5.15-1.39C230.63,178.52,228.88,172.6,223.66,175.64z
		 M221.15,182.68c3.22,0.27,8.76,0.56,10.27-1.62c1.99-2.89-0.66-5.29-2.91-6.7l-0.55-0.42c1.34-0.91,2.73-1.32,2.41-3.4
		c-1.43-1.41-6.63-1.02-9.15-0.86C221.78,171.4,221.8,181,221.15,182.68z"/>
	<path class="st22" d="M189.95,179.78c-0.69-0.83-4.57-4.77-5.8-4.19c-0.56,0.27-1.24,1.38-1.38,2.3
		C181.96,183.27,188.55,183.29,189.95,179.78 M186.12,174.16c2.2-0.86,2.11-3.89-0.22-3.82
		C183.33,170.42,184.33,173.41,186.12,174.16z M183.71,174.67c-0.87,0.85-2.34,1.48-2.82,3.04c-1.38,4.53,5.35,7.19,8.94,3.59
		c0.3-0.3,0.1-0.15,0.35-0.39l0.56-0.46c0.77,0.86,1.17,1.16,0.53,2.47l3.26,0.03c-0.71-0.74-2.81-3.59-2.91-4.87
		c-0.08-1.07-0.05-1.42-0.25-2.52c1.96,0.2,3.79,0.01,4.17-1.71c0.48-2.23-1.37-2.49-2.87-1.86l1.28,0.62
		c-0.02,2.52-2.89,1.36-4.39,1.03c0.73,1.82,1.28,0.7,1.13,3.93c-0.68-0.22-3.29-2.36-3.74-2.91c1.04-0.76,2.14-1.09,2.07-2.67
		C188.82,167.84,179.28,169.39,183.71,174.67z"/>
	<path class="st22" d="M146.04,175.87c0.67,0.23,3.37,1.13,3.77,1.14c-0.3-1.16-1.27-5.03-2.11-5.65
		C147.05,172.04,146.17,174.89,146.04,175.87 M141.78,182.96l2.88-0.01c-1.33-1.57,0.37-4.95,1.33-5.87
		c3.09-0.34,6.42,3.1,4.69,5.85l3.62,0.07c-0.51-1.08-0.87-1.52-1.4-3.07c-1.02-3-2.98-7.53-3-10.32l-3.38,0.05
		c0.52,1.56-2.24,7.96-3.06,10.27C142.77,181.9,142.55,181.75,141.78,182.96z"/>
	<path class="st22" d="M212.31,175.98c1.73,0.27,2.48,0.85,3.73,1.09c-0.15-0.92-1.49-5.14-1.94-5.72
		C213.15,171.98,212.49,174.56,212.31,175.98 M208,182.93l2.93,0.06c-0.92-1.77-0.08-4.62,1.21-5.85c1.29-0.69,6.86,1.74,4.83,5.79
		l3.6,0.04c-1.15-1.85-4.54-11-4.34-13.32l-3.5,0.01c0.74,1.19-2.19,8.03-2.98,10.18C209.1,181.64,209.11,181.9,208,182.93z"/>
	<path class="st22" d="M154.99,179.64l0.61,3.31c4.17,0.32,10.31-0.08,9.33-5.33c-0.78-4.21-10.01-3.02-7.84-6.41
		c1.34-2.09,5.78-0.09,6.26,1.38l-0.41-2.76c-2.7,0-6.89-0.89-7.68,1.98c-1.39,5.06,7.16,3.75,7.98,6.82
		c0.7,2.63-2.59,4.83-5.48,3.49C156.12,181.36,156.27,180.57,154.99,179.64"/>
	<path class="st22" d="M201.44,182.94l2.94,0.04c-0.73-2.09-0.47-6.19-0.4-8.67c2.78-0.4,2.92-0.06,4.51,0.94l-0.27-2.21
		c-1.8,0.67-2.1,0.49-4.23,0.48c-0.06-2.64-0.02-3.48,2.93-3.12c2.12,0.26,2.99,1.1,3.95,2.11l-0.54-2.84l-8.82-0.03
		C202.29,171.16,202.06,181.39,201.44,182.94"/>
	<path class="st22" d="M135.17,182.88l2.97,0.14c-0.63-2.13-0.57-6.35-0.35-8.81c1.93,0.07,3.94-0.27,4.44,1.34l-0.37-2.77
		c-0.7,1.13-2.64,0.77-4.12,0.74c0.03-2.37-0.07-3.39,2.63-3.15c3.05,0.27,2.98,1.24,4.22,1.98l-0.53-2.72l-8.85,0.01
		C135.98,171.34,136.04,181.69,135.17,182.88"/>
	<path class="st22" d="M165.18,172c1.15-0.62,1.94-2.15,4.19-1.55c0.14,0.25,0.1,0.01,0.22,0.59l0.07,5.57c0,2,0.36,4.66-0.35,6.33
		l2.91,0.02c-0.72-1.35-0.55-11.64-0.2-12.49c2.04-0.33,3.05,0.76,4.19,1.37l-0.58-2.22l-9.8,0.03L165.18,172z"/>
</g>
</svg>
