<?xml version="1.0" encoding="utf-8"?>
<!-- Generator: Adobe Illustrator 27.3.1, SVG Export Plug-In . SVG Version: 6.00 Build 0)  -->
<svg version="1.1" id="Layer_1" xmlns="http://www.w3.org/2000/svg" xmlns:xlink="http://www.w3.org/1999/xlink" x="0px" y="0px"
	 viewBox="0 0 365.06 273.39" style="enable-background:new 0 0 365.06 273.39;" xml:space="preserve">
<style type="text/css">
	.st0{display:none;fill-rule:evenodd;clip-rule:evenodd;}
	.st1{clip-path:url(#SVGID_00000018960139368234774420000000848468767168921242_);}
	.st2{clip-path:url(#SVGID_00000010303730303122134370000015615291956391014022_);}
	.st3{fill:#FFFFFF;}
	.st4{clip-path:url(#SVGID_00000117669244064972075380000012122363050163768728_);}
	.st5{clip-path:url(#SVGID_00000023997154905491945680000014480444605263811518_);}
	.st6{clip-path:url(#SVGID_00000078744427512338106300000005134471014465806476_);}
	.st7{clip-path:url(#SVGID_00000158016292715100006660000006461520627325734540_);}
	.st8{clip-path:url(#SVGID_00000149374659629218294800000004102658242387055801_);}
	.st9{clip-path:url(#SVGID_00000121982060029399178600000007476484720958126222_);}
	.st10{clip-path:url(#SVGID_00000033367349604308320610000011074165572107507372_);}
	.st11{clip-path:url(#SVGID_00000160149305049741286080000007878569480281933201_);}
	.st12{clip-path:url(#SVGID_00000095337431569089464700000001491629802471312053_);}
	.st13{clip-path:url(#SVGID_00000029041624593921189200000009698116562782295947_);}
	.st14{clip-path:url(#SVGID_00000007404897534998322380000008280409927258148229_);}
	.st15{clip-path:url(#SVGID_00000141456572525390765320000017141396507923608480_);}
	.st16{clip-path:url(#SVGID_00000157266894887321724150000005350311618733008291_);}
	.st17{clip-path:url(#SVGID_00000100362605258672559310000014946896675279709581_);}
	.st18{clip-path:url(#SVGID_00000118385210003870976190000000917195995433375405_);}
	.st19{clip-path:url(#SVGID_00000143618258581677862710000007016977613781523105_);}
	.st20{fill:#50495F;}
	.st21{fill:none;stroke:#FFFFFF;stroke-width:0.216;stroke-miterlimit:22.9256;}
	.st22{fill-rule:evenodd;clip-rule:evenodd;fill:#50495F;}
	.st23{fill:#068FBE;}
	.st24{fill:url(#SVGID_00000026159839548679990630000014953024123890722708_);}
	.st25{fill:url(#SVGID_00000118387754458917120750000007542812459168253610_);}
	.st26{fill:url(#SVGID_00000143590475380190783460000001790785407800064951_);}
	.st27{fill:url(#SVGID_00000079471726319088394830000017976478808886766012_);}
	.st28{fill:url(#SVGID_00000069399356667581398700000009186282580969948597_);}
	.st29{fill:url(#SVGID_00000073685019653776655450000000078603953773866675_);}
	.st30{fill:url(#SVGID_00000095325888483109063900000008744525273266669982_);}
	.st31{fill:url(#SVGID_00000062170683799581699110000006407336421008045447_);}
	.st32{fill:url(#SVGID_00000177450259441673570380000015058223614816651417_);}
	.st33{fill:#94D6F4;}
	.st34{fill:#26BBED;}
	.st35{fill:#11A1D9;}
	.st36{fill-rule:evenodd;clip-rule:evenodd;fill:#CC3B7A;}
	.st37{fill-rule:evenodd;clip-rule:evenodd;fill:#FFFFFF;}
	.st38{fill-rule:evenodd;clip-rule:evenodd;fill:#D96C9B;}
	.st39{fill-rule:evenodd;clip-rule:evenodd;fill:#D3558D;}
</style>
<g id="_x34_">
	<g>
		<path class="st23" d="M157.66,209.03c-2.05,5.57-6.65,10.55-14.36,10.55c-4.75,0-9.15-1.51-12.75-4.07
			c-3.59,2.56-7.99,4.07-12.75,4.07c-12.14,0-21.97-9.84-21.97-21.97c0-12.14,9.84-21.97,21.97-21.97c4.75,0,9.15,1.51,12.75,4.07
			c3.59-2.56,7.99-4.07,12.75-4.07c5.3,0,9.13,3.06,11.39,6.1c0.09,0.12,0.56,0.8,0.82,1.2c0,0,0,0,0,0
			c0.54,0.8,0.98,1.09,0.98-2.04h0.29v9.38h-0.29c0-3.79-0.69-6.54-2.32-8.69c-2.6-3.44-6.43-5.66-10.87-5.66
			c-4.23,0-8.06,1.96-11,5.17c4.59,4.03,7.48,9.93,7.48,16.52c0,6.58-2.89,12.49-7.48,16.52c2.94,3.2,6.76,5.17,11,5.17
			c6,0,11.24-3.16,14.06-10.25H157.66z M130.31,215.32c-5.44-4-8.98-10.45-8.98-17.72c0-7.27,3.53-13.72,8.98-17.72
			c-3.53-2.49-7.84-3.96-12.5-3.96c-9.38,0-16.99,9.71-16.99,21.68c0,11.97,7.62,21.68,16.99,21.68
			C122.47,219.28,126.78,217.81,130.31,215.32z M132.11,213.9c4.53-3.97,7.39-9.8,7.39-16.3c0-6.5-2.86-12.33-7.39-16.3
			c-3.58,4.02-5.8,9.9-5.8,16.3C126.31,204,128.54,209.88,132.11,213.9z"/>
		<path class="st23" d="M186.2,214.01v4.69h-26.95v-0.29c3.81,0,4.69-0.59,4.69-3.52v-34.57c0-2.93-0.88-3.52-4.69-3.52v-0.29h26.08
			v4.69h-0.29c0-3.52-0.59-4.39-3.52-4.39h-12.89v20.51H178c2.93,0,3.52-0.88,3.52-4.69h0.29v9.67h-0.29c0-3.81-0.59-4.69-3.52-4.69
			h-9.38v20.8h13.77c2.93,0,3.52-0.88,3.52-4.39H186.2z"/>
		<path class="st23" d="M227.48,218.4v0.29h-14.06v-0.29c3.56,0,4.18-1.15,3.56-3.09l-3.56-10.68h-16.77l-3.22,10.25
			c-0.8,2.56-0.22,3.52,3.58,3.52v0.29h-9.67v-0.29c3.81,0,4.83-0.47,5.79-3.51l11.22-35.75c0.48-1.48-0.53-2.34-3.83-2.34v-0.29
			h8.2l12.79,38.38C222.4,217.52,223.67,218.4,227.48,218.4z M213.31,204.34l-8.54-25.62l-8.04,25.62H213.31z"/>
		<path class="st23" d="M269.22,176.5v0.29c-3.81,0-4.69,0.59-4.69,3.52v38.38h-0.29l-31.06-39.55v35.74c0,2.93,0.88,3.52,4.69,3.52
			v0.29h-9.67v-0.29c3.81,0,4.69-0.59,4.69-3.52v-34.87c0-2.64-0.88-3.22-4.69-3.22v-0.29h8.2l27.83,35.16v-31.35
			c0-2.93-0.88-3.52-4.69-3.52v-0.29H269.22z"/>
	</g>
	<g>
		
			<linearGradient id="SVGID_00000054248337228630128980000012902949859008286354_" gradientUnits="userSpaceOnUse" x1="131.4463" y1="232.8903" x2="132.1207" y2="232.8903">
			<stop  offset="0" style="stop-color:#424143"/>
			<stop  offset="1" style="stop-color:#6E6F72"/>
		</linearGradient>
		<path style="fill:url(#SVGID_00000054248337228630128980000012902949859008286354_);" d="M131.45,237.52v-9.26h0.67v9.26H131.45z"
			/>
		
			<linearGradient id="SVGID_00000106832666540350346930000007148638835099661724_" gradientUnits="userSpaceOnUse" x1="137.9914" y1="232.8903" x2="145.5282" y2="232.8903">
			<stop  offset="0" style="stop-color:#424143"/>
			<stop  offset="1" style="stop-color:#6E6F72"/>
		</linearGradient>
		<path style="fill:url(#SVGID_00000106832666540350346930000007148638835099661724_);" d="M137.99,237.52v-9.26h0.57l6.6,8.42h-0.3
			v-8.42h0.67v9.26h-0.56l-6.61-8.42h0.3v8.42H137.99z"/>
		
			<linearGradient id="SVGID_00000123403305815391889870000016933941023361575591_" gradientUnits="userSpaceOnUse" x1="151.3989" y1="232.8903" x2="157.5871" y2="232.8903">
			<stop  offset="0" style="stop-color:#424143"/>
			<stop  offset="1" style="stop-color:#6E6F72"/>
		</linearGradient>
		<path style="fill:url(#SVGID_00000123403305815391889870000016933941023361575591_);" d="M151.4,237.52v-9.26h6.19v0.61h-5.51
			v8.65H151.4z M151.99,233.43v-0.61h5.01v0.61H151.99z"/>
		
			<linearGradient id="SVGID_00000072265503377884280850000004172631782700438706_" gradientUnits="userSpaceOnUse" x1="162.3869" y1="232.8903" x2="169.5798" y2="232.8903">
			<stop  offset="0" style="stop-color:#424143"/>
			<stop  offset="1" style="stop-color:#6E6F72"/>
		</linearGradient>
		<path style="fill:url(#SVGID_00000072265503377884280850000004172631782700438706_);" d="M162.39,237.52v-9.26h3.32
			c1.16,0,2.08,0.27,2.74,0.82c0.66,0.55,0.99,1.31,0.99,2.3c0,0.64-0.15,1.2-0.45,1.66c-0.3,0.46-0.73,0.82-1.28,1.07
			c-0.56,0.25-1.22,0.38-2,0.38h-2.95l0.3-0.32v3.35H162.39z M163.06,234.21l-0.3-0.32h2.95c1,0,1.75-0.22,2.27-0.66
			c0.52-0.44,0.77-1.06,0.77-1.85c0-0.8-0.26-1.42-0.77-1.86c-0.52-0.44-1.27-0.65-2.27-0.65h-2.95l0.3-0.33V234.21z M168.81,237.52
			l-2.41-3.36h0.77l2.41,3.36H168.81z"/>
		
			<linearGradient id="SVGID_00000075869008951517634920000007207646310848791208_" gradientUnits="userSpaceOnUse" x1="173.0043" y1="232.8903" x2="182.1939" y2="232.8903">
			<stop  offset="0" style="stop-color:#424143"/>
			<stop  offset="1" style="stop-color:#6E6F72"/>
		</linearGradient>
		<path style="fill:url(#SVGID_00000075869008951517634920000007207646310848791208_);" d="M173,237.52l4.26-9.26h0.67l4.26,9.26
			h-0.73l-4.02-8.83h0.29l-4.01,8.83H173z M174.56,234.91l0.22-0.57h5.54l0.22,0.57H174.56z"/>
		
			<linearGradient id="SVGID_00000104696972826160741740000001724605190317534341_" gradientUnits="userSpaceOnUse" x1="191" y1="232.8903" x2="198.3385" y2="232.8903">
			<stop  offset="0" style="stop-color:#424143"/>
			<stop  offset="1" style="stop-color:#6E6F72"/>
		</linearGradient>
		<path style="fill:url(#SVGID_00000104696972826160741740000001724605190317534341_);" d="M194.33,237.52v-8.65H191v-0.61h7.34
			v0.61h-3.33v8.65H194.33z"/>
		
			<linearGradient id="SVGID_00000155131434297955103700000004570447466377753773_" gradientUnits="userSpaceOnUse" x1="202.649" y1="232.8903" x2="209.0354" y2="232.8903">
			<stop  offset="0" style="stop-color:#424143"/>
			<stop  offset="1" style="stop-color:#6E6F72"/>
		</linearGradient>
		<path style="fill:url(#SVGID_00000155131434297955103700000004570447466377753773_);" d="M202.65,237.52v-9.26h6.19v0.61h-5.51
			v8.04h5.71v0.61H202.65z M203.24,233.12v-0.6h5.01v0.6H203.24z"/>
		
			<linearGradient id="SVGID_00000046303134605269105290000007327056801579082114_" gradientUnits="userSpaceOnUse" x1="213.2137" y1="232.8905" x2="221.3057" y2="232.8905">
			<stop  offset="0" style="stop-color:#424143"/>
			<stop  offset="1" style="stop-color:#6E6F72"/>
		</linearGradient>
		<path style="fill:url(#SVGID_00000046303134605269105290000007327056801579082114_);" d="M218.01,237.58
			c-0.69,0-1.32-0.12-1.91-0.35c-0.59-0.23-1.1-0.56-1.53-0.98s-0.77-0.92-1-1.49c-0.24-0.57-0.36-1.19-0.36-1.87
			c0-0.68,0.12-1.3,0.36-1.87c0.24-0.57,0.58-1.06,1.01-1.49c0.44-0.42,0.95-0.75,1.53-0.98c0.58-0.23,1.22-0.35,1.9-0.35
			c0.65,0,1.26,0.11,1.83,0.32c0.57,0.21,1.06,0.53,1.46,0.97l-0.42,0.44c-0.4-0.39-0.84-0.67-1.32-0.84
			c-0.48-0.17-0.99-0.26-1.53-0.26c-0.59,0-1.14,0.1-1.65,0.3c-0.51,0.2-0.95,0.49-1.32,0.86c-0.37,0.37-0.67,0.8-0.87,1.3
			c-0.21,0.49-0.31,1.03-0.31,1.61c0,0.58,0.1,1.12,0.31,1.61c0.21,0.49,0.5,0.93,0.87,1.3c0.37,0.37,0.82,0.66,1.32,0.86
			c0.51,0.2,1.06,0.3,1.65,0.3c0.54,0,1.05-0.09,1.53-0.26c0.48-0.17,0.92-0.46,1.32-0.85l0.42,0.44c-0.41,0.43-0.89,0.76-1.46,0.97
			C219.28,237.48,218.67,237.58,218.01,237.58z"/>
		
			<linearGradient id="SVGID_00000098207514887671727510000013344744435722967201_" gradientUnits="userSpaceOnUse" x1="226.0791" y1="232.8903" x2="233.6157" y2="232.8903">
			<stop  offset="0" style="stop-color:#424143"/>
			<stop  offset="1" style="stop-color:#6E6F72"/>
		</linearGradient>
		<path style="fill:url(#SVGID_00000098207514887671727510000013344744435722967201_);" d="M226.08,237.52v-9.26h0.67v9.26H226.08z
			 M226.67,233.12v-0.6h6.35v0.6H226.67z M232.94,237.52v-9.26h0.67v9.26H232.94z"/>
	</g>
	<g>
		<path class="st33" d="M125.75,81.24c13.78-8.39,30.15-10.51,45.79-11.55c2.27-0.15,4.59-0.29,6.82-0.42
			c12.68-0.74,25.8-1.51,37.74-5.53c11.92-4.02,25.98-13.47,29.65-27.94H119.3v50.02C121.35,84.14,123.5,82.61,125.75,81.24z"/>
		<path class="st34" d="M163.09,108.44c8,2.25,15.57,5.69,22.9,9.01c3.86,1.75,7.86,3.56,11.82,5.15
			c13.73,5.51,24.57,7.05,34.12,4.84c0.05-0.01,0.1-0.02,0.15-0.03c8.04-1.91,13.69-9.15,13.69-17.42V51.54
			c-1.78,2.36-3.84,4.61-6.16,6.7c-5.84,5.26-13.19,9.48-21.24,12.19c-12.84,4.32-26.43,5.12-39.58,5.89
			c-2.22,0.13-4.52,0.26-6.77,0.41c-14.75,0.98-30.11,2.94-42.59,10.53c-0.04,0.02-0.07,0.04-0.11,0.07
			c-6.25,3.83-10.01,10.68-10.01,18.01v9.93c1.55-1.38,3.22-2.63,4.99-3.71C134.47,105.37,148.24,104.26,163.09,108.44z"/>
		<path class="st35" d="M233.51,134.32c-3.32,0.77-6.74,1.15-10.32,1.15c-8.3,0-17.44-2.08-28.01-6.32
			c-4.1-1.65-8.17-3.49-12.1-5.27c-7.09-3.21-14.42-6.54-21.91-8.65c-7.49-2.11-21.77-4.61-33.2,2.36c-0.03,0.02-0.07,0.04-0.1,0.06
			c-5.36,3.3-8.56,9.19-8.56,15.48v20.01c4.29-7.01,10.8-12.53,18.44-15.59c6.13-2.46,12.92-3.35,20.2-2.65
			c6.42,0.62,13.16,2.52,19.49,5.5c11.71,5.51,21.74,14.1,30.61,21.85h37.71v-33.32C242.05,131.46,237.87,133.32,233.51,134.32z"/>
		<path class="st23" d="M140.37,144.11c-6.55,2.63-12.07,7.45-15.56,13.58c-0.83,1.47-1.54,3-2.12,4.57h74.54
			c-6.92-5.82-14.5-11.56-22.8-15.46C162.51,141.19,150.1,140.21,140.37,144.11z"/>
	</g>
</g>
</svg>
