<?xml version="1.0" encoding="utf-8"?>
<!-- Generator: Adobe Illustrator 27.3.1, SVG Export Plug-In . SVG Version: 6.00 Build 0)  -->
<svg version="1.1" id="Layer_1" xmlns="http://www.w3.org/2000/svg" xmlns:xlink="http://www.w3.org/1999/xlink" x="0px" y="0px"
	 viewBox="0 0 365.06 273.39" style="enable-background:new 0 0 365.06 273.39;" xml:space="preserve">
<style type="text/css">
	.st0{display:none;fill-rule:evenodd;clip-rule:evenodd;}
	.st1{clip-path:url(#SVGID_00000109745393843101454190000009161992466260950169_);}
	.st2{clip-path:url(#SVGID_00000005242314469343540220000002983310691299973764_);}
	.st3{fill:#FFFFFF;}
	.st4{clip-path:url(#SVGID_00000156565700200641243960000002821584702857427131_);}
	.st5{clip-path:url(#SVGID_00000157287957600067613930000010425827839432726446_);}
	.st6{clip-path:url(#SVGID_00000160910770507397930710000005469213478695870604_);}
	.st7{clip-path:url(#SVGID_00000067914384720014493950000004381310880311673517_);}
	.st8{clip-path:url(#SVGID_00000120524210613501916270000016066595418406610057_);}
	.st9{clip-path:url(#SVGID_00000158722088495736253860000018042726909139865481_);}
	.st10{clip-path:url(#SVGID_00000155145360849874287090000007529742613647487659_);}
	.st11{clip-path:url(#SVGID_00000176006669252098943140000007831860373835115907_);}
	.st12{clip-path:url(#SVGID_00000147924125507541227430000010217354933787562143_);}
	.st13{clip-path:url(#SVGID_00000138571743316604748640000015108107477493935499_);}
	.st14{clip-path:url(#SVGID_00000116945455757466894800000013556803539732341666_);}
	.st15{clip-path:url(#SVGID_00000086667690789909264850000000342747641082756006_);}
	.st16{clip-path:url(#SVGID_00000147932739615785330820000017007097833097922460_);}
	.st17{clip-path:url(#SVGID_00000182519750041836491620000009648838036784583084_);}
	.st18{clip-path:url(#SVGID_00000039848958338608893610000013011840107137967803_);}
	.st19{clip-path:url(#SVGID_00000126292568798192082120000000702186205878524847_);}
	.st20{fill:#50495F;}
	.st21{fill:none;stroke:#FFFFFF;stroke-width:0.216;stroke-miterlimit:22.9256;}
	.st22{fill-rule:evenodd;clip-rule:evenodd;fill:#50495F;}
	.st23{fill:#068FBE;}
	.st24{fill:url(#SVGID_00000109003143355120264580000012368001939243962299_);}
	.st25{fill:url(#SVGID_00000050635900604529187830000012390172868324205239_);}
	.st26{fill:url(#SVGID_00000075865990658517352780000000933766539328994482_);}
	.st27{fill:url(#SVGID_00000114049586371519944400000002379535517605466246_);}
	.st28{fill:url(#SVGID_00000005238914486595579130000002877770991000021423_);}
	.st29{fill:url(#SVGID_00000138566890147613220670000009828165612609759651_);}
	.st30{fill:url(#SVGID_00000052076610449193078900000004201680998475313312_);}
	.st31{fill:url(#SVGID_00000110455048558005527270000002723476131774547093_);}
	.st32{fill:url(#SVGID_00000055686806946484611730000010864242108496325796_);}
	.st33{fill:#94D6F4;}
	.st34{fill:#26BBED;}
	.st35{fill:#11A1D9;}
	.st36{fill-rule:evenodd;clip-rule:evenodd;fill:#CC3B7A;}
	.st37{fill-rule:evenodd;clip-rule:evenodd;fill:#FFFFFF;}
	.st38{fill-rule:evenodd;clip-rule:evenodd;fill:#D96C9B;}
	.st39{fill-rule:evenodd;clip-rule:evenodd;fill:#D3558D;}
</style>
<g id="_x35_">
	<path class="st36" d="M148.95,89.26c-1.66,1.31,0.01-0.13-1.06,1.63l-0.34,0.55c-0.07,0.09-0.45,0.53-0.62,0.7l-0.71,0.62
		c-0.07,0.06-0.18,0.13-0.26,0.18c-0.08,0.05-0.19,0.12-0.27,0.17c-2.55,1.69-6.89,3.78-7.81,5.02c-2.26-0.6-1.61-2.35-4.32,0.99
		c-1.27,1.56-2.38,2.05-4.97,2.11v-1.77c-2.77-0.23-5-0.58-5.75,2.65c-1.98-1.32-2.29-5.41-9.01-0.16l-12.14,5.56
		c-1.96,0.68-2,1.54-4.38,2.26c-2.84,0.85-5.69,0.96-9.79,3.49c-2.62,1.62-5.39,2.18-9.11,4.61c-1,0.65-0.94,0.6-1.96,1.14
		l-19.39,11.14c-5.25,2.74-7.54,0.88-14.33,6.02c-4.22,3.19,0.55,3.52-5.09,4.64c-4.48,0.89-5.78,5.33-8.71,8.54
		c-1.88,2.06-4.07,6.24-5.29,7.98c-0.32,0.46-1.26,1.7-1.44,2.1c-0.33,0.79-0.42,1.88-0.74,2.8c-0.6,1.72-1.53,2.57-1.71,4.92
		c-0.37,4.75-0.36,7.84,1.32,11.94c1.45,3.52,7.81,9.05,10.63,9.72c1.66,0.39,4.05,0.68,5.79,0.89c1.1,0.13,5.43-0.03,5.21,1.29
		c-0.47,2.91,0.88,2.04,3.08,2.81c10.82,3.83,10.37,0.77,13.37,0.61c2.44-0.12,4.49,1.11,8.13-1.85c1.72-1.4,0.5-0.63,1.18-1.47
		c0.57-0.7,0.53-0.85,1.71-0.94c1.24,5.31,8.28-0.04,9.57-1.89c0.49-0.7,0.16-0.1,0.39-0.76c-1.83-0.89-4.46,0.55-5.18-1.61
		l-0.2-9.01c-0.02-7.4,0.37-27.55-0.17-32.19c-4.12,0-13.72,0.43-16.94-0.41l-0.13-2.99c2.95-0.9,44.81-0.86,47.78,0.03l0.06,2.88
		c-3.18,0.99-12.89,0.46-16.98,0.54c-0.89,3.73-0.21,23.21,0.04,28.16c0.96-1.38,0.47-0.55,1.48-1.5c1.53-1.44,0.44-0.58,1.31-1.79
		c1.17-1.63,6.16-2.93,9.81-5.67c0.55-0.41,1.55-1.02,2.21-1.33c5.1-2.38,11.91-6.41,17.06-8.73c-2.52-5.14-9.46-9.81-8.48-13.25
		c1.7-0.63,11.24-1.01,12.8-0.04c0.13,0.08,2.81,3.33,3.22,3.85c0.95,1.22,2.26,2.99,3.39,3.6c1.08-1.26,4.84-2.82,5.5-3.26
		l15.08-7.96c2.29-1.13,0.15-0.81,1.09-2.85c2.62,0.22,1.1,1.47,3.72,0.68c2.07-0.62,0.81-0.41,1.53-1.18
		c2.26-2.42,0.17,0.53,4.59-2.94l0.51-0.37c0.07-0.06,0.17-0.14,0.23-0.21l0.57-0.76c0.63-0.86-0.26,0.17,0.55-0.78
		c0.06-0.07,0.16-0.17,0.21-0.23l0.47-0.42c1.36,1,0.71-0.29,0.88,1.77l3.06-0.99c1.39-0.48,0.35,0.94,2.69-2.55
		c-1.62,0.43-0.93,0.47-2.21,1.33c-1.83-2.5-3.13-1.29-4.87-0.88l-1.32-1.33l0.62-1.3l-2.83-1.8c0.16-2.28,2.54-2.61,2.65-2.65
		c1.6,0.87-0.24,0.88,2.29-1.23c1.34-1.12,0.86-0.43,2.13-1.87c1.92-2.17,2.92-1.13,5.31-2.21c-0.1-0.1-0.22-0.24-0.3-0.31
		l-1.03-0.87c-1.1-0.59-0.52,0.42-2.26-0.91c-0.41-0.31-0.89-0.8-1.11-1c0.03-0.11,0.11-0.26,0.14-0.32
		c0.8-2.22-0.97-1.29-1.25-2.17c-0.05-0.15-0.23-0.1-0.36-0.16l-0.03-1.33c-0.1-1.54,0.33-0.11-2.21-1.33
		c0.06-2.62,0.82-2.27,1.33-4.42c2.75,0.23,2.25,1.54,3.54-0.88c-1.04-0.24-1.31-0.41-2.65-0.44c0.55-2.06,2.23-1.63,3.49-3.54
		c-0.01-2.72-0.57,1.73,0.16-0.7l1.59-4.24c-5.1-1.79,0.75-3.24-3.84-3.91c0.85,0.75,0.9,0.49,1.26,1.76
		c-4.39,1.8-5.32,0.36-8.24,1.06c-1.51,0.36-1.46,0.73-2.7,0.49c-0.09-0.02-0.21-0.08-0.3-0.1c-0.12-0.03-0.48-0.19-0.59-0.21
		c-0.6-0.11,0.49-0.58-0.76-0.01c-1.7,0.78-0.29,0.08-0.31,0.74c-0.03,0.98,0.3-0.82,0.12,0.74l-2.72,2.96
		c-0.2-0.31-0.67-0.27-0.11-1.7c0.05-0.13,0.65-0.66,0.76-0.82c-1.71,0.38-1.64,1.14-3.72,1.3c-0.39-1-0.27-2.11,0.15-3.11
		c-0.08-0.04-0.22-0.06-0.26-0.08c-0.04-0.02-0.2-0.06-0.25-0.08L148.95,89.26z M122.4,103.01l0.13,0.13
		C122.52,103.13,122.36,103.05,122.4,103.01z M160.89,128.67c-1.24-0.33-2-0.88-2.65-1.77c1.71-0.14,1.43-0.44,3.54-0.44
		C161.39,127.27,161.31,127.9,160.89,128.67z M44.09,191.05c0.47-0.47,1.68,0.7,0.49,0.23C44.57,191.28,43.35,191.79,44.09,191.05z"
		/>
	<path class="st37" d="M169.74,152.12v29.2c0,3.25,0.23,6.19,3.54,6.19c6.82,0,34.4,0.61,38.93-0.44c1.34-5.74-0.04-24.1-0.01-30.52
		c0.02-3.99,0.03-7.99,0.03-11.98c0-2.15-0.03-3.41-1.64-4.11c-3.43-1.49-23.42-0.28-28.92-0.29
		C173.08,140.16,169.74,141.64,169.74,152.12 M183.46,148.58c0-5.95,7.95-4.42,15.04-4.42l0.44,38.93h-15.48V148.58z"/>
	<path class="st37" d="M275.48,143.27v40.7c0,4.31,3.87,3.1,11.5,3.1c1.04,0,1.77-0.73,1.77-1.77v-19.91h17.7v18.58
		c0,3.7,3.93,3.54,9.29,3.54c1.99,0,4.42-0.84,4.42-2.65v-42.47c0-3.31-6.76-2.21-11.94-2.21c-2.41,0-1.77,5.27-1.77,8.85v12.39
		h-17.7v-19.47c0-2.78-5.4-1.77-11.06-1.77C276.26,140.17,275.48,141.78,275.48,143.27"/>
	<path class="st37" d="M222.39,152.12l0.88,10.63c0.4,2.29,0.24,1.02,1.33,2.65c5.75,0,11.5,0,17.25,0c1.52,0,7.39-0.22,8.41,0
		c1.87,0.4,1.2,0.68,1.48,2.94c0.55,4.45,0.39,10.49-0.6,14.76l-22.13-0.01c-4.45-0.03-5.74,0.05-5.74,2.66
		c0,1.36,1.3,1.77,2.65,1.77c4.92,0,35.06,0.47,37.52-0.53c3.44-1.41,2.42-21.64,0.53-25.57c-4.38-1.02-21.71-0.44-27.43-0.44
		c0-2.53-0.44-3.06-0.44-5.75v-7.08c0-2.22,0.4-1.98,0.44-3.98h24.33c2.02,0,2.65-0.66,2.65-2.21c0-2.75-5.72-1.77-8.41-1.77h-31.41
		C222.92,143.58,222.39,147.93,222.39,152.12"/>
	<path class="st37" d="M131.25,148.04c-1.14-0.61-2.45-2.38-3.39-3.6c-0.4-0.52-3.09-3.77-3.22-3.85
		c-1.56-0.97-11.11-0.59-12.8,0.04c-0.98,3.45,5.96,8.11,8.48,13.25l4.48,5.56c6.96,8.92,4.68,4.03,4.68,26.73
		c2.91,1.95,3.85,1.33,8.42,1.34c4.42,0.02,5.37-0.1,5.32-4.42c-0.04-3.07-0.41-17.97,0.09-19.82c0.91-3.34,16.72-18.1,17.58-21.79
		c-2.79-4.16-4.81,0.15-5.63,1l-12.17,13.94c-1.14,1.28-1.09,1.78-2.55,2.76l-4.77-5.41C134.14,151.91,132.49,150.14,131.25,148.04"
		/>
	<path class="st37" d="M80.16,187.51c3.66,0,5.59,0.35,8.17-0.89c1.01-4.34,0.04-6.93,0.3-8.73c0.38-2.61,0.32-0.67-0.14-2.89
		c-0.23-1.15-0.17-0.94-0.06-2.09c-0.25-4.95-0.93-24.42-0.04-28.16c4.09-0.08,13.79,0.45,16.98-0.54l-0.06-2.88
		c-2.97-0.89-44.83-0.93-47.78-0.03l0.13,2.99c3.23,0.84,12.82,0.42,16.94,0.41c0.54,4.64,0.15,24.8,0.17,32.19l0.2,9.01
		C75.7,188.06,78.33,186.62,80.16,187.51"/>
	<path class="st37" d="M331.23,158.31c0,5.56-0.18,15.43,0.38,20.42c1.04,9.26-3.99,8.34,11.57,8.34c2.29,0,2.21-5.31,2.21-8.41
		c0-8.24,0.41-28-0.34-35.05c-0.46-4.36,0.67-3.44-11.6-3.44c-2.91,0-1.53,5.65-1.83,8.34
		C331.26,151.57,331.23,154.63,331.23,158.31"/>
	<path class="st38" d="M148.95,89.26l2.32,1.2c0.05,0.02,0.21,0.07,0.25,0.08c0.04,0.02,0.18,0.04,0.26,0.08
		c-0.42,1-0.55,2.11-0.15,3.11c2.08-0.16,2.01-0.92,3.72-1.3c-0.11,0.17-0.7,0.69-0.76,0.82c-0.56,1.42-0.09,1.38,0.11,1.7
		l2.72-2.96c0.18-1.56-0.15,0.24-0.12-0.74c0.02-0.66-1.39,0.04,0.31-0.74c1.25-0.57,0.16-0.1,0.76,0.01
		c0.11,0.02,0.47,0.18,0.59,0.21c0.09,0.02,0.21,0.08,0.3,0.1c1.23,0.23,1.19-0.13,2.7-0.49c2.91-0.7,3.84,0.74,8.24-1.06
		c-0.36-1.27-0.41-1.01-1.26-1.76c4.59,0.67-1.25,2.12,3.84,3.91l-1.59,4.24c-0.73,2.43-0.17-2.03-0.16,0.7
		c1.45-1.4,1.63,0.05,3.59-0.89c-0.47-1.17,0.91-0.82-1.77-0.88l0.76-2.33c0.89-1.12-0.07-0.76,2.34-0.76
		c0.03-1.35,0.2-1.61,0.44-2.65c1.84,1.35-0.09,1.15,2.21,1.77c1.43-1.05,0.26-0.16,1.26-1.44c0.98-1.26,0.91-0.17,0.81-1.65
		c-0.14-2.17-1.24-0.59-2.95-0.45l-0.14-0.65c-0.59-1.43-1.26-1.53-2.96-1.56c1.03,1.41,0.74,0.36,1.77,1.77
		c-1.04,0-1.07,0.07-2.04-0.2c-1.14-0.32-0.71-0.6-1.84-0.54c-0.01,0-3.99,1.15-4.08,1.19c0.09-4.2,1.27,0.42,2.21-3.1
		c-2.13,0.18-1.41,0.71-3.54,0.89c0-1.29-0.05-0.91,0.28-1.93c0.04-0.14,0.21-0.49,0.26-0.62c0.91-2.16,0.91-2.03,2.71-3.04
		c0.06-0.03,0.2-0.09,0.29-0.16c-2.83,0.06-6.41,2.62-8.45,4.38l-2.39,1.59c-7.68,3.78-1.9,0.74-5.22,1.46
		c-1.59,0.34,0.11-0.01-1.19,0.49c-3.46,1.34-0.74-0.2-3.62,1.74L148.95,89.26z M165.32,85.31l0.13,0.13
		C165.44,85.43,165.27,85.35,165.32,85.31z M165.32,85.31l-2.21,1.33 M154.26,87.08c0.47-0.47,1.68,0.7,0.49,0.23
		C154.74,87.31,153.51,87.82,154.26,87.08 M166.2,86.64h1.77c-0.1,1.2-0.21,1.2-0.44,2.21c-0.06-0.09-0.16-0.33-0.18-0.26
		l-0.85-1.36C166.44,87.13,166.29,86.76,166.2,86.64z M152.93,88.41l0.13,0.13C153.05,88.53,152.88,88.45,152.93,88.41z
		 M172.39,88.41c1.53,0.41,1.36,0.24,1.77,1.77C172.07,89.95,173.07,89.92,172.39,88.41z"/>
	<path class="st39" d="M163.99,119.38c-0.11,0.04-2.5,0.37-2.65,2.65l2.83,1.8l-0.62,1.3c0.84-0.34,1.05-0.74,2.28-0.85
		c2.83-0.24,1.83,2.18,5.68,1.29c-0.33-3.93-0.77-2.65-3.98-2.65c1.72-2.56,2.82-2.03,6.64-4.42c1.11-0.7,1.4-0.82,1.77-2.21
		c-5,0.42-6.23,4.09-7.52,4.42c-2.27-0.19-0.75-0.57-2.24-0.63c-0.79-0.03-0.97,0.35-2.18,0.63
		C163.67,120.19,163.52,121.2,163.99,119.38"/>
	<path class="st39" d="M167.53,106.99l0.03,1.33c0.12,0.07,0.31,0.01,0.36,0.16c0.28,0.88,2.05-0.05,1.25,2.17
		c-0.02,0.06-0.11,0.21-0.14,0.32c0.22,0.2,0.7,0.69,1.11,1c1.74,1.33,1.16,0.32,2.26,0.91l1.03,0.87c0.08,0.07,0.19,0.22,0.3,0.31
		c0.51-1.22,0.12-0.67,0.89-1.77c-2.13-0.18-1.41-0.71-3.54-0.89c0.15-1.75-0.11-1.6,4.42-2.65c-0.4-1.5-0.44-0.65-0.66-1.81
		c-0.51-2.69,2.66-3.21-0.22-3.88c-0.46-0.11-1.29-0.06-1.78-0.06c-2.31,3.45-2.49,2.99-3.54,4.42
		C168.56,107.24,168.28,107.22,167.53,106.99 M169.74,108.32c0.76-0.76,1.48,1.2,0.39,0.34
		C170.1,108.63,169.09,108.97,169.74,108.32z"/>
	<path class="st39" d="M174.61,98.14c0,1.2,0.21,1.22,0.44,2.21c2.37-0.2,2.62-1.49,3.1-3.54
		C176.32,96.81,174.61,96.27,174.61,98.14"/>
	<path class="st39" d="M177.7,92.83c2.09-0.05,1.74,0.45,2.21-1.33C178.47,91.54,177.74,91.36,177.7,92.83"/>
	<path class="st39" d="M177.26,115.4h1.33v-0.88C177.81,114.7,177.4,114.57,177.26,115.4"/>
	<path class="st39" d="M173.72,102.12c1.29-0.31,0.64,0.06,1.33-0.88h-1.33V102.12z"/>
	<path class="st38" d="M171.07,101.24c0.05,0.04,0.13-0.19,0.13-0.13C171.19,101.12,171.02,101.19,171.07,101.24"/>
	<path class="st38" d="M172.39,77.79l0.13-0.13C172.52,77.67,172.35,77.75,172.39,77.79"/>
</g>
</svg>
