<?xml version="1.0" encoding="utf-8"?>
<!-- Generator: Adobe Illustrator 27.3.1, SVG Export Plug-In . SVG Version: 6.00 Build 0)  -->
<svg version="1.1" id="Layer_1" xmlns="http://www.w3.org/2000/svg" xmlns:xlink="http://www.w3.org/1999/xlink" x="0px" y="0px"
	 viewBox="0 0 512 512" style="enable-background:new 0 0 512 512;" xml:space="preserve">
<style type="text/css">
	.st0{opacity:0.41;fill:url(#XMLID_00000013908938624626168600000002268688446542143935_);}
	.st1{opacity:0.56;fill:url(#XMLID_00000142869068473629814310000014926830564075961754_);}
	.st2{fill:#1D1C57;}
	.st3{fill:#9796CA;}
	.st4{opacity:0.41;fill:url(#XMLID_00000151545544790428120340000010314719464917739414_);}
	.st5{opacity:0.56;fill:url(#XMLID_00000053513216481127217080000009166781730402396588_);}
	.st6{fill-rule:evenodd;clip-rule:evenodd;fill:#6D52A2;}
	.st7{fill-rule:evenodd;clip-rule:evenodd;fill:url(#SVGID_1_);}
	.st8{fill-rule:evenodd;clip-rule:evenodd;fill:url(#SVGID_00000089533587922662991290000008914352390083414678_);}
	.st9{fill-rule:evenodd;clip-rule:evenodd;fill:url(#SVGID_00000087370891506016369700000012384588055528080304_);}
	.st10{fill-rule:evenodd;clip-rule:evenodd;fill:url(#SVGID_00000135664916394371940770000000447118196397575074_);}
	.st11{fill:#FFFFFF;}
	.st12{opacity:0.41;fill:url(#XMLID_00000047030294149687407910000008175311330336778139_);}
	.st13{opacity:0.56;fill:url(#XMLID_00000145778760666856246750000009150904179235547036_);}
	.st14{fill-rule:evenodd;clip-rule:evenodd;}
	.st15{fill:#47B1E5;}
	.st16{fill:#4AB96F;}
	.st17{fill:#F3723D;}
	.st18{fill:#EF3F3D;}
	.st19{fill:#715FA9;}
	.st20{opacity:0.41;fill:url(#XMLID_00000079450278582659038850000016108067424701103511_);}
	.st21{opacity:0.56;fill:url(#XMLID_00000180356155613932184240000006067260163956191382_);}
	.st22{fill:#401121;}
	.st23{fill:#DD5173;}
	.st24{opacity:0.41;fill:url(#XMLID_00000138567554736583547980000003948353733005240450_);}
	.st25{opacity:0.56;fill:url(#XMLID_00000091727902341271058070000016191309475695223680_);}
	.st26{fill-rule:evenodd;clip-rule:evenodd;fill:#FFFFFF;}
	.st27{opacity:0.41;fill:url(#XMLID_00000078008384449177109290000017780451716873352118_);}
	.st28{opacity:0.56;fill:url(#XMLID_00000074421356292381565060000011751045682979439014_);}
	.st29{fill-rule:evenodd;clip-rule:evenodd;fill:#1D3A4E;}
	.st30{opacity:0.41;fill:url(#XMLID_00000036230110654312759880000001978005940429193910_);}
	.st31{opacity:0.56;fill:url(#XMLID_00000168816399349564902800000006531044068316211630_);}
	.st32{fill:#2F1111;}
	.st33{fill:#F8961D;}
	.st34{opacity:0.41;fill:url(#XMLID_00000010287031417575624790000002319503833345886910_);}
	.st35{opacity:0.56;fill:url(#XMLID_00000030471687672264553960000001774268133851581318_);}
	.st36{fill:#072138;}
	.st37{fill:#5AA6DC;}
</style>
<g id="_x34__00000113317291065715472340000011405971603063915662_">
	<g>
		
			<radialGradient id="XMLID_00000008143322288700451460000016177939329148339091_" cx="256" cy="256" r="210.0531" gradientUnits="userSpaceOnUse">
			<stop  offset="0.8929" style="stop-color:#010101"/>
			<stop  offset="0.9022" style="stop-color:#1D1D1D"/>
			<stop  offset="0.9298" style="stop-color:#6C6C6C"/>
			<stop  offset="0.9543" style="stop-color:#ABABAB"/>
			<stop  offset="0.975" style="stop-color:#D9D9D9"/>
			<stop  offset="0.9908" style="stop-color:#F5F5F5"/>
			<stop  offset="1" style="stop-color:#FFFFFF"/>
		</radialGradient>
		
			<circle id="XMLID_00000022530270724717337960000010112782906210024872_" style="opacity:0.41;fill:url(#XMLID_00000008143322288700451460000016177939329148339091_);" cx="256" cy="256" r="210.05"/>
		
			<radialGradient id="XMLID_00000056422219120446590870000007570238852316232107_" cx="5676.6494" cy="-5995.4399" r="202.3268" gradientTransform="matrix(-1 0 0 -1 5973.0386 -5699.4517)" gradientUnits="userSpaceOnUse">
			<stop  offset="0.0204" style="stop-color:#C4C4C4"/>
			<stop  offset="0.2934" style="stop-color:#C8C8C8"/>
			<stop  offset="0.5378" style="stop-color:#D3D3D3"/>
			<stop  offset="0.7704" style="stop-color:#E5E5E5"/>
			<stop  offset="0.9958" style="stop-color:#FEFEFE"/>
			<stop  offset="1" style="stop-color:#FFFFFF"/>
		</radialGradient>
		
			<circle id="XMLID_00000047038839004313227990000010969074063547763380_" style="opacity:0.56;fill:url(#XMLID_00000056422219120446590870000007570238852316232107_);" cx="254.09" cy="253.69" r="146.74"/>
	</g>
	<g>
		<g transform="matrix(.26718 0 0 .26718 0 0)">
			<circle class="st6" cx="958.16" cy="958.16" r="728.5"/>
			
				<radialGradient id="SVGID_1_" cx="-0.3453" cy="-484.4046" r="0.7668" gradientTransform="matrix(255.4228 -298.1754 -298.1754 -255.4228 -143838.6406 -122309.8984)" gradientUnits="userSpaceOnUse">
				<stop  offset="0" style="stop-color:#5D55A4"/>
				<stop  offset="1" style="stop-color:#5D55A4;stop-opacity:0"/>
			</radialGradient>
			<circle class="st7" cx="958.16" cy="958.16" r="728.5"/>
			
				<radialGradient id="SVGID_00000073699017385557411480000010787303964773660801_" cx="8.6333" cy="-483.5932" r="0.7668" gradientTransform="matrix(255.8274 361.3582 361.3582 -255.8274 173157.0938 -126440.8125)" gradientUnits="userSpaceOnUse">
				<stop  offset="0" style="stop-color:#26BEC8"/>
				<stop  offset="1" style="stop-color:#26BEC8;stop-opacity:0"/>
			</radialGradient>
			
				<circle style="fill-rule:evenodd;clip-rule:evenodd;fill:url(#SVGID_00000073699017385557411480000010787303964773660801_);" cx="958.16" cy="958.16" r="728.5"/>
			
				<radialGradient id="SVGID_00000031899109208682533760000012704938084827763386_" cx="-0.0884" cy="-489.8141" r="0.7668" gradientTransform="matrix(273.3251 -275.1954 -126.5661 -125.7058 -61458.6055 -60075.7656)" gradientUnits="userSpaceOnUse">
				<stop  offset="0" style="stop-color:#5D55A4"/>
				<stop  offset="1" style="stop-color:#5D55A4;stop-opacity:0"/>
			</radialGradient>
			
				<circle style="fill-rule:evenodd;clip-rule:evenodd;fill:url(#SVGID_00000031899109208682533760000012704938084827763386_);" cx="958.16" cy="958.16" r="728.5"/>
			
				<radialGradient id="SVGID_00000050639580278897337310000013701533052523484577_" cx="9.6778" cy="-481.8977" r="0.7668" gradientTransform="matrix(159.239 366.571 614.0892 -266.7608 295212.5625 -131673.0469)" gradientUnits="userSpaceOnUse">
				<stop  offset="0" style="stop-color:#26BEC8;stop-opacity:0.73"/>
				<stop  offset="0" style="stop-color:#26BEC8"/>
				<stop  offset="1" style="stop-color:#26BEC8;stop-opacity:0"/>
			</radialGradient>
			
				<circle style="fill-rule:evenodd;clip-rule:evenodd;fill:url(#SVGID_00000050639580278897337310000013701533052523484577_);" cx="958.16" cy="958.16" r="728.5"/>
		</g>
		<path class="st11" d="M403.94,273.66c-0.51,0-0.97,0.33-1.21,1.02c-3.08,8.78-7.23,14-10.65,14c-1.97,0-2.76-2.19-2.76-5.63
			c0-8.6,5.15-26.83,7.74-35.14c0.3-1.01,0.5-1.91,0.5-2.67c0-2.42-1.32-3.6-4.59-3.6c-3.53,0-7.32,1.38-11.01,7.85
			c-1.28-5.7-5.13-8.19-10.52-8.19c-6.23,0-12.24,4.01-17.19,10.5c-4.95,6.5-10.77,8.63-15.15,7.58c3.15-7.71,4.32-13.47,4.32-17.75
			c0-6.71-3.32-10.76-8.67-10.76c-8.15,0-12.84,7.77-12.84,15.95c0,6.32,2.86,12.81,9.17,15.96c-5.28,11.94-12.99,22.74-15.92,22.74
			c-3.78,0-4.89-18.5-4.68-31.73c0.13-7.59,0.77-7.98,0.77-10.28c0-1.32-0.86-2.22-4.29-2.22c-8.01,0-10.49,6.78-10.86,14.57
			c-0.12,2.96-0.58,5.89-1.38,8.75c-3.35,11.94-10.25,21-14.75,21c-2.09,0-2.66-2.09-2.66-4.82c0-8.6,4.82-19.34,4.82-28.51
			c0-6.74-2.96-11-8.52-11c-6.56,0-15.23,7.8-23.43,22.41c2.7-11.19,3.81-22.02-4.19-22.02c-1.73,0.03-3.44,0.47-4.97,1.29
			c-1.05,0.49-1.69,1.57-1.62,2.73c0.77,11.91-9.6,42.43-19.43,42.43c-1.79,0-2.66-1.94-2.66-5.06c0-8.61,5.13-26.8,7.71-35.12
			c0.33-1.08,0.51-2.01,0.51-2.82c0-2.28-1.41-3.45-4.61-3.45c-3.51,0-7.32,1.34-11,7.8c-1.29-5.7-5.15-8.19-10.53-8.19
			c-8.84,0-18.71,9.35-23.04,21.53c-5.81,16.26-17.51,31.97-33.26,31.97c-14.3,0-21.84-11.9-21.84-30.7
			c0-27.14,19.92-49.31,34.7-49.31c7.07,0,10.44,4.5,10.44,11.4c0,8.36-4.67,12.24-4.67,15.42c0,0.98,0.81,1.94,2.42,1.94
			c6.42,0,13.98-7.55,13.98-17.84c0-10.29-8.36-17.82-23.13-17.82c-24.42,0-49,24.58-49,56.07c0,25.06,12.36,40.16,33.74,40.16
			c14.58,0,27.32-11.34,34.19-24.58c0.78,10.97,5.76,16.7,13.35,16.7c6.75,0,12.21-4.02,16.38-11.09c1.61,7.4,5.87,11.01,11.4,11.01
			c6.35,0,11.66-4.02,16.71-11.49c-0.07,5.87,1.26,11.39,6.35,11.39c2.4,0,5.27-0.56,5.78-2.66c5.36-22.14,18.59-40.22,22.64-40.22
			c1.2,0,1.53,1.16,1.53,2.52c0,6.02-4.25,18.35-4.25,26.23c0,8.51,3.62,14.13,11.09,14.13c8.28,0,16.7-10.14,22.31-24.97
			c1.76,13.85,5.55,25.02,11.49,25.02c7.29,0,20.24-15.35,28.09-31.6c3.08,0.39,7.7,0.29,12.14-2.85c-1.89,4.79-3,10.02-3,15.26
			c0,15.08,7.2,19.31,13.4,19.31c6.74,0,12.2-4.02,16.38-11.09c1.38,6.38,4.91,11,11.39,11c10.14,0,18.95-10.37,18.95-18.87
			C406.03,275.02,405.07,273.66,403.94,273.66L403.94,273.66z M193.44,287.88c-4.1,0-5.7-4.13-5.7-10.28
			c0-10.68,7.31-28.52,15.03-28.52c3.38,0,4.65,3.98,4.65,8.84C207.42,268.77,200.47,287.88,193.44,287.88L193.44,287.88z
			 M333.73,256c-2.45-2.91-3.33-6.87-3.33-10.4c0-4.35,1.59-8.03,3.5-8.03c1.91,0,2.49,1.88,2.49,4.49
			C336.39,246.43,334.83,252.8,333.73,256z M365.49,287.88c-4.09,0-5.7-4.74-5.7-10.28c0-10.31,7.31-28.52,15.09-28.52
			c3.38,0,4.58,3.95,4.58,8.84C379.46,268.77,372.63,287.88,365.49,287.88L365.49,287.88z"/>
	</g>
</g>
</svg>
