<?xml version="1.0" encoding="utf-8"?>
<!-- Generator: Adobe Illustrator 27.3.1, SVG Export Plug-In . SVG Version: 6.00 Build 0)  -->
<svg version="1.1" id="Layer_1" xmlns="http://www.w3.org/2000/svg" xmlns:xlink="http://www.w3.org/1999/xlink" x="0px" y="0px"
	 viewBox="0 0 512 512" style="enable-background:new 0 0 512 512;" xml:space="preserve">
<style type="text/css">
	.st0{opacity:0.41;fill:url(#XMLID_00000146460052627422424300000017489581706238377610_);}
	.st1{opacity:0.56;fill:url(#XMLID_00000016769527771942207760000016087844205770009768_);}
	.st2{fill:#1D1C57;}
	.st3{fill:#9796CA;}
	.st4{opacity:0.41;fill:url(#XMLID_00000133510509121310669310000000064085372281078159_);}
	.st5{opacity:0.56;fill:url(#XMLID_00000100348645150653798990000007818671898213266309_);}
	.st6{fill-rule:evenodd;clip-rule:evenodd;fill:#6D52A2;}
	.st7{fill-rule:evenodd;clip-rule:evenodd;fill:url(#SVGID_1_);}
	.st8{fill-rule:evenodd;clip-rule:evenodd;fill:url(#SVGID_00000041255432197415382770000001136786933461852859_);}
	.st9{fill-rule:evenodd;clip-rule:evenodd;fill:url(#SVGID_00000058569814961861238840000005162604546964266168_);}
	.st10{fill-rule:evenodd;clip-rule:evenodd;fill:url(#SVGID_00000111882912509156718630000015543465347229709190_);}
	.st11{fill:#FFFFFF;}
	.st12{opacity:0.41;fill:url(#XMLID_00000111177361642036560220000015633745937864811924_);}
	.st13{opacity:0.56;fill:url(#XMLID_00000031891978600105278260000016551481468502614417_);}
	.st14{fill-rule:evenodd;clip-rule:evenodd;}
	.st15{fill:#47B1E5;}
	.st16{fill:#4AB96F;}
	.st17{fill:#F3723D;}
	.st18{fill:#EF3F3D;}
	.st19{fill:#715FA9;}
	.st20{opacity:0.41;fill:url(#XMLID_00000140735915504791538320000000381910881635640725_);}
	.st21{opacity:0.56;fill:url(#XMLID_00000101091746503854201900000005324656887740393104_);}
	.st22{fill:#401121;}
	.st23{fill:#DD5173;}
	.st24{opacity:0.41;fill:url(#XMLID_00000065068783443932384410000002635988029717297312_);}
	.st25{opacity:0.56;fill:url(#XMLID_00000008124590810272501280000002624237445233205676_);}
	.st26{fill-rule:evenodd;clip-rule:evenodd;fill:#FFFFFF;}
	.st27{opacity:0.41;fill:url(#XMLID_00000013881963886383654950000009864575869321201084_);}
	.st28{opacity:0.56;fill:url(#XMLID_00000125565126535584158320000002027413473843852951_);}
	.st29{fill-rule:evenodd;clip-rule:evenodd;fill:#1D3A4E;}
	.st30{opacity:0.41;fill:url(#XMLID_00000039819702126756644830000018290602577442302849_);}
	.st31{opacity:0.56;fill:url(#XMLID_00000104682544697000688470000005798483635351544757_);}
	.st32{fill:#2F1111;}
	.st33{fill:#F8961D;}
	.st34{opacity:0.41;fill:url(#XMLID_00000047742747775428307680000003670606261967408804_);}
	.st35{opacity:0.56;fill:url(#XMLID_00000065048236197803479620000005628015861006764980_);}
	.st36{fill:#072138;}
	.st37{fill:#5AA6DC;}
</style>
<g id="_x35__00000074418652885149149800000005608169726687989147_">
	<g>
		
			<radialGradient id="XMLID_00000169547016084237245370000000465115400341795259_" cx="256" cy="256" r="210.0531" gradientUnits="userSpaceOnUse">
			<stop  offset="0.8929" style="stop-color:#010101"/>
			<stop  offset="0.9022" style="stop-color:#1D1D1D"/>
			<stop  offset="0.9298" style="stop-color:#6C6C6C"/>
			<stop  offset="0.9543" style="stop-color:#ABABAB"/>
			<stop  offset="0.975" style="stop-color:#D9D9D9"/>
			<stop  offset="0.9908" style="stop-color:#F5F5F5"/>
			<stop  offset="1" style="stop-color:#FFFFFF"/>
		</radialGradient>
		
			<circle id="XMLID_00000085954383033681433560000014944358638223157153_" style="opacity:0.41;fill:url(#XMLID_00000169547016084237245370000000465115400341795259_);" cx="256" cy="256" r="210.05"/>
		
			<radialGradient id="XMLID_00000150092817536081357880000016996555346497120447_" cx="4487.8833" cy="-5995.4399" r="202.3268" gradientTransform="matrix(-1 0 0 -1 4784.2725 -5699.4517)" gradientUnits="userSpaceOnUse">
			<stop  offset="0.0204" style="stop-color:#C4C4C4"/>
			<stop  offset="0.2934" style="stop-color:#C8C8C8"/>
			<stop  offset="0.5378" style="stop-color:#D3D3D3"/>
			<stop  offset="0.7704" style="stop-color:#E5E5E5"/>
			<stop  offset="0.9958" style="stop-color:#FEFEFE"/>
			<stop  offset="1" style="stop-color:#FFFFFF"/>
		</radialGradient>
		
			<circle id="XMLID_00000080908160621197865720000014967021923315647886_" style="opacity:0.56;fill:url(#XMLID_00000150092817536081357880000016996555346497120447_);" cx="254.09" cy="253.69" r="146.74"/>
	</g>
	<circle class="st14" cx="256" cy="256" r="194.64"/>
	<g>
		<path class="st15" d="M255.76,251.18c0-21.83,17.71-39.53,39.53-39.53h5.72c0.16,0.01,0.33-0.01,0.49-0.01
			c24.49,0,44.35,19.87,44.35,44.35s-19.86,44.35-44.35,44.35c-0.16,0-0.33-0.01-0.49-0.01l-5.71,0.01
			c-21.83,0-39.53-17.71-39.53-39.53V251.18z"/>
		<path class="st16" d="M166.15,344.71c0-24.49,19.86-44.36,44.35-44.36l45.25,0.01v43.9c0,24.75-20.29,44.8-45.04,44.8
			C186.23,389.05,166.15,369.2,166.15,344.71z"/>
		<path class="st17" d="M255.76,122.95v88.7h45.25c0.16-0.01,0.33,0.01,0.49,0.01c24.49,0,44.35-19.87,44.35-44.35
			c0-24.49-19.86-44.35-44.35-44.35c-0.16,0-0.33,0.01-0.49,0.01H255.76z"/>
		<path class="st18" d="M166.15,167.3c0,24.49,19.86,44.35,44.35,44.35h45.25v-88.7H210.5C186.01,122.95,166.15,142.81,166.15,167.3
			z"/>
		<path class="st19" d="M166.15,256c0,24.49,19.86,44.35,44.35,44.35h45.25v-88.7H210.5C186.01,211.66,166.15,231.51,166.15,256z"/>
	</g>
</g>
</svg>
