<?xml version="1.0" encoding="utf-8"?>
<!-- Generator: Adobe Illustrator 27.3.1, SVG Export Plug-In . SVG Version: 6.00 Build 0)  -->
<svg version="1.1" id="Layer_1" xmlns="http://www.w3.org/2000/svg" xmlns:xlink="http://www.w3.org/1999/xlink" x="0px" y="0px"
	 viewBox="0 0 512 512" style="enable-background:new 0 0 512 512;" xml:space="preserve">
<style type="text/css">
	.st0{opacity:0.41;fill:url(#XMLID_00000167394129975079763260000017645440600471338174_);}
	.st1{opacity:0.56;fill:url(#XMLID_00000132778396914050892790000003825425869883735688_);}
	.st2{fill:#1D1C57;}
	.st3{fill:#9796CA;}
	.st4{opacity:0.41;fill:url(#XMLID_00000026880254069519935540000007493171919984527539_);}
	.st5{opacity:0.56;fill:url(#XMLID_00000083080259538878518380000009537882977935784098_);}
	.st6{fill-rule:evenodd;clip-rule:evenodd;fill:#6D52A2;}
	.st7{fill-rule:evenodd;clip-rule:evenodd;fill:url(#SVGID_1_);}
	.st8{fill-rule:evenodd;clip-rule:evenodd;fill:url(#SVGID_00000066481550761634465540000015630811046750068914_);}
	.st9{fill-rule:evenodd;clip-rule:evenodd;fill:url(#SVGID_00000071527974598490011980000013496414836175368861_);}
	.st10{fill-rule:evenodd;clip-rule:evenodd;fill:url(#SVGID_00000068659488170953836520000014078827154591894423_);}
	.st11{fill:#FFFFFF;}
	.st12{opacity:0.41;fill:url(#XMLID_00000099653806647512781430000011057150930651224720_);}
	.st13{opacity:0.56;fill:url(#XMLID_00000005250928834568782270000007366961419298404001_);}
	.st14{fill-rule:evenodd;clip-rule:evenodd;}
	.st15{fill:#47B1E5;}
	.st16{fill:#4AB96F;}
	.st17{fill:#F3723D;}
	.st18{fill:#EF3F3D;}
	.st19{fill:#715FA9;}
	.st20{opacity:0.41;fill:url(#XMLID_00000163039742264862375740000000480817814082165139_);}
	.st21{opacity:0.56;fill:url(#XMLID_00000181798728309873958650000018317871167405553064_);}
	.st22{fill:#401121;}
	.st23{fill:#DD5173;}
	.st24{opacity:0.41;fill:url(#XMLID_00000117652406690947110970000014031065800512664464_);}
	.st25{opacity:0.56;fill:url(#XMLID_00000168092487596695516540000002070860661588434337_);}
	.st26{fill-rule:evenodd;clip-rule:evenodd;fill:#FFFFFF;}
	.st27{opacity:0.41;fill:url(#XMLID_00000014602752142517273990000002355153905106474419_);}
	.st28{opacity:0.56;fill:url(#XMLID_00000147915968466981061370000017119582513375829141_);}
	.st29{fill-rule:evenodd;clip-rule:evenodd;fill:#1D3A4E;}
	.st30{opacity:0.41;fill:url(#XMLID_00000145776942097750664160000014922594991212621710_);}
	.st31{opacity:0.56;fill:url(#XMLID_00000119819534731365347640000017598036187237028777_);}
	.st32{fill:#2F1111;}
	.st33{fill:#F8961D;}
	.st34{opacity:0.41;fill:url(#XMLID_00000161615592843403515720000018090549970896505999_);}
	.st35{opacity:0.56;fill:url(#XMLID_00000034065647982890991930000013146436177794302859_);}
	.st36{fill:#072138;}
	.st37{fill:#5AA6DC;}
</style>
<g id="_x37_">
	<g>
		
			<radialGradient id="XMLID_00000034794344180836244480000006633523036614406278_" cx="256" cy="256" r="210.0531" gradientUnits="userSpaceOnUse">
			<stop  offset="0.8929" style="stop-color:#010101"/>
			<stop  offset="0.9022" style="stop-color:#1D1D1D"/>
			<stop  offset="0.9298" style="stop-color:#6C6C6C"/>
			<stop  offset="0.9543" style="stop-color:#ABABAB"/>
			<stop  offset="0.975" style="stop-color:#D9D9D9"/>
			<stop  offset="0.9908" style="stop-color:#F5F5F5"/>
			<stop  offset="1" style="stop-color:#FFFFFF"/>
		</radialGradient>
		
			<circle id="XMLID_00000093894365335301381560000016052397593655893389_" style="opacity:0.41;fill:url(#XMLID_00000034794344180836244480000006633523036614406278_);" cx="256" cy="256" r="210.05"/>
		
			<radialGradient id="XMLID_00000056405451328248190150000017410579286544276394_" cx="4487.8833" cy="-7294.5039" r="202.3268" gradientTransform="matrix(-1 0 0 -1 4784.2725 -6998.5156)" gradientUnits="userSpaceOnUse">
			<stop  offset="0.0204" style="stop-color:#C4C4C4"/>
			<stop  offset="0.2934" style="stop-color:#C8C8C8"/>
			<stop  offset="0.5378" style="stop-color:#D3D3D3"/>
			<stop  offset="0.7704" style="stop-color:#E5E5E5"/>
			<stop  offset="0.9958" style="stop-color:#FEFEFE"/>
			<stop  offset="1" style="stop-color:#FFFFFF"/>
		</radialGradient>
		
			<circle id="XMLID_00000142896028926611947670000017548253119146558344_" style="opacity:0.56;fill:url(#XMLID_00000056405451328248190150000017410579286544276394_);" cx="254.09" cy="253.69" r="146.74"/>
	</g>
	<circle class="st26" cx="256" cy="256" r="194.64"/>
	<g id="Icon">
		<g id="Vietnam">
			<path d="M252.24,193.57c0,3.3-0.84,6.76-2.15,9.37l-52.76,118.11c-3.46,8.29-8.45,12.21-15.9,12.21s-12.21-3.92-15.9-12.21
				l-52.53-118.11c-1.31-2.61-2.15-6.07-2.15-9.37c0-8.06,6.99-14.82,15.9-14.82c7.22,0,13.06,4.15,15.74,10.44l39.01,92.15
				l39.17-92.15c2.61-6.3,8.29-10.44,15.67-10.44C245.25,178.74,252.24,185.5,252.24,193.57z M401.14,195.56v121.8
				c0,10.44-6.76,15.9-15.44,15.9c-7.22,0-12.9-3.69-16.97-9.6l-62.13-84.93v77.95c0,8.91-7.22,16.59-16.36,16.59
				s-16.97-7.6-16.97-16.59V194.64c0-10.21,6.76-15.9,15.67-15.9c6.99,0,12.59,3.69,16.82,9.6l62.13,84.93v-77.72
				c0-9.14,7.37-16.82,16.36-16.82C393.77,178.74,401.14,186.35,401.14,195.56L401.14,195.56z"/>
		</g>
	</g>
</g>
</svg>
